<svg xmlns="http://www.w3.org/2000/svg" xmlns:xlink="http://www.w3.org/1999/xlink" width="6912" zoomAndPan="magnify" viewBox="0 0 5184 2592.000001" height="3456" preserveAspectRatio="xMidYMid meet" version="1.0"><defs><g/></defs><path fill="#5271ff" d="M 633 1516.902344 C 632.003906 1516.886719 631.019531 1516.984375 630.046875 1517.203125 C 629.074219 1517.417969 628.140625 1517.746094 627.246094 1518.179688 C 626.351562 1518.617188 625.519531 1519.152344 624.746094 1519.785156 C 623.976562 1520.417969 623.292969 1521.128906 622.691406 1521.925781 L 551.042969 1613.136719 L 521.695312 1576.386719 C 521.085938 1575.601562 520.394531 1574.894531 519.625 1574.265625 C 518.851562 1573.640625 518.019531 1573.109375 517.125 1572.671875 C 516.230469 1572.238281 515.300781 1571.910156 514.332031 1571.6875 C 513.359375 1571.46875 512.378906 1571.359375 511.382812 1571.363281 C 509.832031 1571.390625 508.332031 1571.675781 506.878906 1572.222656 C 505.429688 1572.765625 504.109375 1573.539062 502.921875 1574.539062 C 502.257812 1575.085938 501.652344 1575.695312 501.109375 1576.363281 C 500.5625 1577.03125 500.085938 1577.746094 499.683594 1578.507812 C 499.277344 1579.265625 498.949219 1580.058594 498.699219 1580.886719 C 498.445312 1581.710938 498.277344 1582.550781 498.191406 1583.410156 C 498.105469 1584.269531 498.105469 1585.125 498.1875 1585.984375 C 498.269531 1586.84375 498.433594 1587.6875 498.679688 1588.511719 C 498.929688 1589.339844 499.253906 1590.132812 499.65625 1590.894531 C 500.058594 1591.65625 500.53125 1592.375 501.074219 1593.042969 L 540.996094 1641.691406 C 541.597656 1642.484375 542.28125 1643.199219 543.050781 1643.832031 C 543.824219 1644.464844 544.65625 1644.996094 545.550781 1645.433594 C 546.445312 1645.871094 547.378906 1646.195312 548.351562 1646.414062 C 549.324219 1646.628906 550.308594 1646.730469 551.304688 1646.714844 C 553.132812 1646.570312 554.855469 1646.058594 556.464844 1645.183594 C 558.078125 1644.308594 559.441406 1643.144531 560.558594 1641.691406 L 642.253906 1538.316406 C 642.808594 1537.644531 643.285156 1536.925781 643.695312 1536.160156 C 644.101562 1535.390625 644.429688 1534.589844 644.675781 1533.757812 C 644.921875 1532.921875 645.082031 1532.074219 645.15625 1531.207031 C 645.234375 1530.34375 645.222656 1529.476562 645.121094 1528.613281 C 645.023438 1527.75 644.839844 1526.90625 644.570312 1526.078125 C 644.300781 1525.253906 643.953125 1524.460938 643.527344 1523.707031 C 643.097656 1522.949219 642.597656 1522.242188 642.027344 1521.585938 C 641.457031 1520.929688 640.828125 1520.339844 640.140625 1519.808594 C 639.144531 1518.941406 638.035156 1518.257812 636.8125 1517.761719 C 635.589844 1517.261719 634.320312 1516.976562 633 1516.902344 Z M 633 1516.902344 " fill-opacity="1" fill-rule="nonzero"/><path fill="#5271ff" d="M 740.078125 1446.839844 C 733.050781 1446.101562 726.074219 1445.039062 719.144531 1443.660156 C 712.214844 1442.28125 705.363281 1440.585938 698.589844 1438.574219 C 691.816406 1436.566406 685.152344 1434.25 678.589844 1431.625 C 672.03125 1429.003906 665.605469 1426.085938 659.3125 1422.871094 C 653.019531 1419.660156 646.890625 1416.164062 640.917969 1412.386719 C 634.949219 1408.609375 629.164062 1404.566406 623.566406 1400.257812 C 617.964844 1395.945312 612.578125 1391.390625 607.394531 1386.585938 C 602.214844 1381.78125 597.269531 1376.75 592.550781 1371.488281 C 591.929688 1370.71875 591.230469 1370.023438 590.453125 1369.402344 C 589.679688 1368.785156 588.847656 1368.261719 587.957031 1367.824219 C 587.066406 1367.390625 586.136719 1367.058594 585.171875 1366.832031 C 584.207031 1366.601562 583.230469 1366.480469 582.238281 1366.464844 C 581.242188 1366.449219 580.257812 1366.550781 579.285156 1366.765625 C 578.3125 1366.984375 577.378906 1367.308594 576.484375 1367.746094 C 575.589844 1368.183594 574.753906 1368.714844 573.984375 1369.347656 C 573.214844 1369.980469 572.53125 1370.695312 571.929688 1371.488281 C 567.226562 1376.699219 562.296875 1381.6875 557.140625 1386.453125 C 551.988281 1391.21875 546.628906 1395.742188 541.066406 1400.023438 C 535.5 1404.300781 529.757812 1408.324219 523.828125 1412.085938 C 517.902344 1415.84375 511.816406 1419.332031 505.578125 1422.542969 C 499.335938 1425.753906 492.960938 1428.675781 486.453125 1431.3125 C 479.949219 1433.945312 473.335938 1436.28125 466.617188 1438.320312 C 459.898438 1440.355469 453.105469 1442.085938 446.230469 1443.507812 C 439.355469 1444.933594 432.433594 1446.042969 425.457031 1446.839844 C 424.734375 1446.882812 424.023438 1446.984375 423.316406 1447.144531 C 422.609375 1447.304688 421.921875 1447.523438 421.253906 1447.796875 C 420.582031 1448.070312 419.941406 1448.398438 419.324219 1448.777344 C 418.707031 1449.15625 418.125 1449.582031 417.578125 1450.058594 C 417.035156 1450.535156 416.53125 1451.050781 416.066406 1451.609375 C 415.605469 1452.164062 415.195312 1452.757812 414.828125 1453.382812 C 414.464844 1454.007812 414.15625 1454.660156 413.898438 1455.335938 C 413.640625 1456.011719 413.441406 1456.703125 413.296875 1457.414062 C 413.296875 1460.058594 368.617188 1710.960938 579.332031 1774.675781 L 587 1774.675781 C 798.507812 1710.167969 753.5625 1459.265625 753.03125 1457.414062 C 752.894531 1456.667969 752.691406 1455.9375 752.421875 1455.226562 C 752.15625 1454.519531 751.828125 1453.835938 751.441406 1453.183594 C 751.050781 1452.53125 750.609375 1451.914062 750.117188 1451.339844 C 749.621094 1450.765625 749.078125 1450.238281 748.492188 1449.757812 C 747.902344 1449.277344 747.277344 1448.851562 746.613281 1448.480469 C 745.949219 1448.109375 745.261719 1447.800781 744.542969 1447.550781 C 743.824219 1447.304688 743.089844 1447.117188 742.339844 1447 C 741.589844 1446.878906 740.835938 1446.824219 740.078125 1446.839844 Z M 436.828125 1471.957031 C 443.660156 1471 450.441406 1469.773438 457.175781 1468.265625 C 463.90625 1466.761719 470.566406 1464.988281 477.15625 1462.941406 C 483.742188 1460.894531 490.238281 1458.582031 496.636719 1456.007812 C 503.035156 1453.433594 509.320312 1450.605469 515.492188 1447.519531 C 521.664062 1444.4375 527.699219 1441.105469 533.597656 1437.53125 C 539.496094 1433.953125 545.242188 1430.144531 550.832031 1426.101562 C 556.421875 1422.058594 561.835938 1417.796875 567.082031 1413.3125 C 572.324219 1408.832031 577.378906 1404.144531 582.238281 1399.25 C 587.082031 1404.148438 592.117188 1408.84375 597.34375 1413.332031 C 602.570312 1417.824219 607.972656 1422.089844 613.550781 1426.136719 C 619.125 1430.183594 624.855469 1433.996094 630.746094 1437.578125 C 636.632812 1441.15625 642.65625 1444.488281 648.816406 1447.574219 C 654.976562 1450.660156 661.253906 1453.488281 667.644531 1456.058594 C 674.035156 1458.632812 680.523438 1460.941406 687.105469 1462.980469 C 693.683594 1465.023438 700.335938 1466.792969 707.0625 1468.292969 C 713.789062 1469.789062 720.5625 1471.011719 727.386719 1471.957031 C 733.203125 1516.371094 745.894531 1695.890625 582.238281 1748.769531 C 418.320312 1695.890625 431.011719 1516.371094 436.828125 1471.957031 Z M 436.828125 1471.957031 " fill-opacity="1" fill-rule="nonzero"/><path fill="#5271ff" d="M 845.304688 846.417969 C 837.609375 846.429688 829.921875 846.632812 822.242188 847.023438 C 814.558594 847.410156 806.890625 847.988281 799.234375 848.753906 C 791.582031 849.519531 783.949219 850.472656 776.34375 851.613281 C 768.734375 852.753906 761.160156 854.078125 753.617188 855.589844 C 746.074219 857.097656 738.574219 858.792969 731.113281 860.671875 C 723.65625 862.550781 716.246094 864.609375 708.886719 866.851562 C 701.53125 869.09375 694.230469 871.511719 686.988281 874.113281 C 679.75 876.710938 672.578125 879.488281 665.472656 882.4375 C 658.371094 885.386719 651.34375 888.511719 644.390625 891.804688 C 637.441406 895.101562 630.574219 898.566406 623.792969 902.195312 C 617.011719 905.828125 610.324219 909.625 603.730469 913.582031 C 597.132812 917.542969 590.640625 921.660156 584.246094 925.9375 C 577.851562 930.214844 571.570312 934.648438 565.394531 939.234375 C 559.214844 943.820312 553.15625 948.554688 547.210938 953.4375 C 541.269531 958.320312 535.449219 963.34375 529.75 968.511719 C 524.050781 973.679688 518.484375 978.984375 513.046875 984.425781 C 507.609375 989.867188 502.308594 995.4375 497.140625 1001.136719 C 491.976562 1006.839844 486.957031 1012.664062 482.074219 1018.609375 C 477.195312 1024.554688 472.464844 1030.621094 467.882812 1036.796875 C 463.300781 1042.976562 458.875 1049.265625 454.597656 1055.660156 C 450.324219 1062.054688 446.210938 1068.550781 442.253906 1075.148438 C 438.296875 1081.746094 434.507812 1088.4375 430.878906 1095.21875 C 427.25 1102.003906 423.792969 1108.871094 420.5 1115.824219 C 417.210938 1122.777344 414.089844 1129.804688 411.144531 1136.910156 C 408.195312 1144.015625 405.425781 1151.191406 402.832031 1158.433594 C 400.234375 1165.671875 397.820312 1172.972656 395.582031 1180.332031 C 393.34375 1187.695312 391.289062 1195.105469 389.414062 1202.566406 C 387.539062 1210.023438 385.851562 1217.527344 384.34375 1225.070312 C 382.835938 1232.613281 381.515625 1240.191406 380.378906 1247.796875 C 379.246094 1255.40625 378.296875 1263.039062 377.535156 1270.691406 C 376.773438 1278.347656 376.203125 1286.015625 375.816406 1293.699219 C 375.429688 1301.382812 375.234375 1309.070312 375.226562 1316.761719 C 375.363281 1336.757812 376.683594 1356.671875 379.191406 1376.511719 C 365.550781 1379.28125 351.804688 1381.308594 337.945312 1382.59375 C 337.226562 1382.652344 336.515625 1382.773438 335.816406 1382.949219 C 335.117188 1383.128906 334.433594 1383.359375 333.773438 1383.648438 C 333.109375 1383.941406 332.476562 1384.28125 331.867188 1384.671875 C 331.261719 1385.066406 330.691406 1385.507812 330.15625 1385.992188 C 329.625 1386.480469 329.132812 1387.007812 328.683594 1387.574219 C 328.238281 1388.140625 327.839844 1388.742188 327.488281 1389.375 C 327.140625 1390.007812 326.84375 1390.664062 326.601562 1391.34375 C 326.363281 1392.027344 326.175781 1392.722656 326.050781 1393.433594 C 326.050781 1396.871094 262.597656 1750.882812 544.960938 1863.777344 C 547.917969 1864.90625 550.921875 1865.902344 553.972656 1866.761719 C 557.023438 1867.617188 560.105469 1868.335938 563.21875 1868.910156 C 566.335938 1869.488281 569.46875 1869.917969 572.625 1870.207031 C 575.777344 1870.5 578.9375 1870.644531 582.105469 1870.644531 C 585.273438 1870.644531 588.4375 1870.5 591.589844 1870.207031 C 594.746094 1869.917969 597.878906 1869.488281 600.996094 1868.910156 C 604.109375 1868.335938 607.191406 1867.617188 610.242188 1866.761719 C 613.292969 1865.902344 616.296875 1864.90625 619.253906 1863.777344 C 631.363281 1859.0625 643.15625 1853.664062 654.640625 1847.582031 C 666.125 1841.5 677.21875 1834.777344 687.921875 1827.410156 C 698.628906 1820.042969 708.871094 1812.082031 718.652344 1803.53125 C 728.4375 1794.976562 737.691406 1785.890625 746.421875 1776.265625 C 779.015625 1783.210938 811.976562 1786.734375 845.304688 1786.839844 C 853.113281 1787.023438 860.925781 1787.015625 868.738281 1786.8125 C 876.546875 1786.605469 884.347656 1786.207031 892.140625 1785.617188 C 899.933594 1785.023438 907.703125 1784.234375 915.457031 1783.253906 C 923.207031 1782.277344 930.929688 1781.101562 938.625 1779.738281 C 946.316406 1778.371094 953.972656 1776.816406 961.589844 1775.070312 C 969.203125 1773.324219 976.773438 1771.386719 984.292969 1769.265625 C 991.8125 1767.140625 999.273438 1764.832031 1006.675781 1762.335938 C 1014.082031 1759.839844 1021.417969 1757.160156 1028.691406 1754.300781 C 1035.960938 1751.4375 1043.15625 1748.398438 1050.277344 1745.179688 C 1057.394531 1741.957031 1064.429688 1738.5625 1071.382812 1734.992188 C 1078.332031 1731.421875 1085.1875 1727.679688 1091.953125 1723.769531 C 1098.714844 1719.855469 1105.378906 1715.777344 1111.9375 1711.53125 C 1118.5 1707.289062 1124.949219 1702.882812 1131.289062 1698.316406 C 1137.632812 1693.75 1143.855469 1689.03125 1149.960938 1684.15625 C 1156.066406 1679.277344 1162.046875 1674.253906 1167.902344 1669.078125 C 1173.757812 1663.90625 1179.480469 1658.589844 1185.070312 1653.128906 C 1190.660156 1647.671875 1196.109375 1642.074219 1201.421875 1636.34375 C 1206.734375 1630.613281 1211.898438 1624.753906 1216.917969 1618.765625 C 1221.9375 1612.777344 1226.804688 1606.667969 1231.519531 1600.4375 C 1236.234375 1594.207031 1240.789062 1587.863281 1245.191406 1581.402344 C 1249.589844 1574.945312 1253.824219 1568.382812 1257.894531 1561.710938 C 1261.964844 1555.042969 1265.871094 1548.277344 1269.605469 1541.414062 C 1273.339844 1534.550781 1276.898438 1527.597656 1280.285156 1520.554688 C 1283.675781 1513.515625 1286.886719 1506.394531 1289.917969 1499.191406 C 1292.949219 1491.992188 1295.800781 1484.71875 1298.472656 1477.375 C 1301.144531 1470.035156 1303.628906 1462.628906 1305.929688 1455.160156 C 1308.230469 1447.695312 1310.347656 1440.175781 1312.273438 1432.601562 C 1314.199219 1425.03125 1315.9375 1417.414062 1317.484375 1409.753906 C 1319.03125 1402.09375 1320.386719 1394.402344 1321.550781 1386.675781 C 1322.714844 1378.949219 1323.683594 1371.199219 1324.460938 1363.421875 C 1325.238281 1355.648438 1325.820312 1347.859375 1326.210938 1340.054688 C 1326.601562 1332.25 1326.796875 1324.441406 1326.796875 1316.628906 C 1326.796875 1308.816406 1326.601562 1301.007812 1326.210938 1293.203125 C 1325.820312 1285.398438 1325.238281 1277.609375 1324.460938 1269.832031 C 1323.683594 1262.058594 1322.714844 1254.308594 1321.550781 1246.582031 C 1320.386719 1238.855469 1319.03125 1231.160156 1317.484375 1223.503906 C 1315.9375 1215.84375 1314.199219 1208.226562 1312.273438 1200.65625 C 1310.347656 1193.082031 1308.230469 1185.5625 1305.929688 1178.097656 C 1303.628906 1170.628906 1301.144531 1163.222656 1298.472656 1155.878906 C 1295.800781 1148.539062 1292.949219 1141.265625 1289.917969 1134.0625 C 1286.886719 1126.863281 1283.675781 1119.742188 1280.285156 1112.699219 C 1276.898438 1105.660156 1273.339844 1098.707031 1269.605469 1091.84375 C 1265.871094 1084.980469 1261.964844 1078.214844 1257.894531 1071.542969 C 1253.824219 1064.875 1249.589844 1058.3125 1245.191406 1051.855469 C 1240.789062 1045.394531 1236.234375 1039.050781 1231.519531 1032.820312 C 1226.804688 1026.589844 1221.9375 1020.480469 1216.917969 1014.492188 C 1211.898438 1008.503906 1206.734375 1002.644531 1201.421875 996.914062 C 1196.109375 991.183594 1190.660156 985.585938 1185.070312 980.128906 C 1179.480469 974.667969 1173.757812 969.351562 1167.902344 964.175781 C 1162.046875 959.003906 1156.066406 953.980469 1149.960938 949.101562 C 1143.855469 944.226562 1137.632812 939.503906 1131.289062 934.941406 C 1124.949219 930.375 1118.5 925.96875 1111.9375 921.722656 C 1105.378906 917.480469 1098.714844 913.402344 1091.953125 909.488281 C 1085.1875 905.578125 1078.332031 901.835938 1071.378906 898.265625 C 1064.429688 894.695312 1057.394531 891.300781 1050.277344 888.078125 C 1043.15625 884.859375 1035.960938 881.820312 1028.691406 878.957031 C 1021.417969 876.097656 1014.082031 873.417969 1006.675781 870.921875 C 999.273438 868.425781 991.8125 866.117188 984.292969 863.992188 C 976.773438 861.867188 969.203125 859.933594 961.589844 858.1875 C 953.972656 856.441406 946.316406 854.882812 938.625 853.519531 C 930.929688 852.15625 923.207031 850.980469 915.457031 850 C 907.703125 849.019531 899.933594 848.234375 892.140625 847.640625 C 884.347656 847.050781 876.546875 846.652344 868.738281 846.445312 C 860.925781 846.242188 853.113281 846.234375 845.304688 846.417969 Z M 845.304688 1760.402344 C 818.652344 1760.371094 792.214844 1757.992188 765.988281 1753.261719 C 876.5 1606 840.015625 1402.15625 838.429688 1393.433594 C 838.300781 1392.722656 838.117188 1392.027344 837.875 1391.34375 C 837.632812 1390.664062 837.339844 1390.007812 836.988281 1389.375 C 836.640625 1388.742188 836.242188 1388.140625 835.792969 1387.574219 C 835.34375 1387.007812 834.855469 1386.480469 834.320312 1385.992188 C 833.785156 1385.507812 833.214844 1385.066406 832.609375 1384.671875 C 832.003906 1384.28125 831.371094 1383.9375 830.707031 1383.648438 C 830.042969 1383.359375 829.363281 1383.128906 828.664062 1382.949219 C 827.960938 1382.773438 827.253906 1382.652344 826.53125 1382.59375 C 811.347656 1381.222656 796.320312 1378.863281 781.445312 1375.515625 C 766.570312 1372.167969 751.980469 1367.859375 737.675781 1362.589844 C 723.367188 1357.324219 709.46875 1351.140625 695.972656 1344.046875 C 682.480469 1336.949219 669.507812 1329 657.0625 1320.199219 C 664.527344 1311.464844 672.527344 1303.257812 681.0625 1295.566406 C 689.597656 1287.878906 698.597656 1280.777344 708.058594 1274.261719 C 717.519531 1267.746094 727.363281 1261.871094 737.589844 1256.636719 C 747.816406 1251.40625 758.339844 1246.859375 769.160156 1242.996094 C 774.546875 1247.324219 780.269531 1251.160156 786.320312 1254.5 C 792.371094 1257.839844 798.660156 1260.636719 805.195312 1262.886719 C 811.730469 1265.140625 818.40625 1266.816406 825.230469 1267.917969 C 832.054688 1269.015625 838.921875 1269.523438 845.832031 1269.4375 C 852.761719 1269.511719 859.648438 1268.996094 866.488281 1267.890625 C 873.332031 1266.785156 880.027344 1265.109375 886.582031 1262.855469 C 893.136719 1260.601562 899.449219 1257.808594 905.527344 1254.476562 C 911.601562 1251.140625 917.347656 1247.316406 922.769531 1242.996094 C 925.929688 1244.113281 929.066406 1245.292969 932.179688 1246.53125 C 935.292969 1247.769531 938.382812 1249.066406 941.445312 1250.425781 C 944.507812 1251.785156 947.546875 1253.199219 950.554688 1254.675781 C 953.5625 1256.152344 956.542969 1257.6875 959.492188 1259.277344 C 962.441406 1260.871094 965.359375 1262.515625 968.242188 1264.222656 C 971.128906 1265.925781 973.980469 1267.6875 976.796875 1269.5 C 979.613281 1271.316406 982.394531 1273.183594 985.140625 1275.109375 C 987.882812 1277.03125 990.589844 1279.007812 993.257812 1281.035156 C 995.925781 1283.0625 998.554688 1285.140625 1001.144531 1287.269531 C 1003.730469 1289.398438 1006.277344 1291.578125 1008.777344 1293.808594 C 1011.28125 1296.035156 1013.742188 1298.3125 1016.15625 1300.636719 C 1018.570312 1302.957031 1020.941406 1305.328125 1023.261719 1307.742188 C 1025.585938 1310.160156 1027.859375 1312.617188 1030.089844 1315.121094 C 1032.316406 1317.625 1034.496094 1320.171875 1036.625 1322.757812 C 1038.753906 1325.347656 1040.832031 1327.976562 1042.859375 1330.644531 C 1044.886719 1333.3125 1046.859375 1336.019531 1048.78125 1338.765625 C 1050.703125 1341.511719 1052.574219 1344.292969 1054.386719 1347.109375 C 1056.203125 1349.925781 1057.960938 1352.777344 1059.664062 1355.664062 C 1061.367188 1358.550781 1063.015625 1361.46875 1064.605469 1364.417969 C 1066.195312 1367.367188 1067.730469 1370.347656 1069.207031 1373.355469 C 1070.679688 1376.363281 1072.097656 1379.402344 1073.453125 1382.464844 C 1074.8125 1385.527344 1076.109375 1388.617188 1077.347656 1391.734375 C 1078.585938 1394.847656 1079.761719 1397.984375 1080.878906 1401.144531 C 1081.996094 1404.304688 1083.050781 1407.484375 1084.042969 1410.683594 C 1085.035156 1413.886719 1085.964844 1417.105469 1086.835938 1420.339844 C 1087.703125 1423.578125 1088.507812 1426.832031 1089.25 1430.097656 C 1089.992188 1433.367188 1090.671875 1436.648438 1091.285156 1439.941406 C 1091.898438 1443.238281 1092.449219 1446.542969 1092.9375 1449.859375 C 1093.425781 1453.171875 1093.847656 1456.496094 1094.203125 1459.828125 C 1094.5625 1463.160156 1094.855469 1466.5 1095.085938 1469.84375 C 1095.3125 1473.1875 1095.476562 1476.53125 1095.574219 1479.882812 C 1095.675781 1483.230469 1095.707031 1486.582031 1095.675781 1489.933594 L 989.921875 1489.933594 L 967.980469 1393.167969 C 967.8125 1392.441406 967.589844 1391.730469 967.304688 1391.039062 C 967.019531 1390.347656 966.679688 1389.6875 966.28125 1389.050781 C 965.886719 1388.417969 965.4375 1387.824219 964.9375 1387.265625 C 964.441406 1386.710938 963.898438 1386.199219 963.316406 1385.734375 C 962.730469 1385.269531 962.109375 1384.855469 961.457031 1384.496094 C 960.800781 1384.136719 960.121094 1383.832031 959.414062 1383.585938 C 958.710938 1383.34375 957.988281 1383.160156 957.25 1383.035156 C 956.511719 1382.914062 955.769531 1382.855469 955.023438 1382.855469 L 951.585938 1382.855469 C 950.734375 1383.042969 949.910156 1383.3125 949.109375 1383.664062 C 948.308594 1384.015625 947.554688 1384.441406 946.839844 1384.941406 C 946.125 1385.445312 945.464844 1386.011719 944.863281 1386.640625 C 944.257812 1387.273438 943.722656 1387.957031 943.257812 1388.695312 C 942.789062 1389.433594 942.398438 1390.207031 942.085938 1391.023438 C 941.773438 1391.839844 941.542969 1392.675781 941.394531 1393.535156 C 941.25 1394.394531 941.1875 1395.261719 941.210938 1396.136719 C 941.234375 1397.007812 941.34375 1397.871094 941.539062 1398.71875 L 962.160156 1489.667969 L 916.953125 1489.667969 C 916.085938 1489.667969 915.222656 1489.753906 914.375 1489.921875 C 913.523438 1490.09375 912.695312 1490.34375 911.894531 1490.675781 C 911.089844 1491.007812 910.328125 1491.414062 909.609375 1491.898438 C 908.886719 1492.378906 908.21875 1492.925781 907.605469 1493.542969 C 906.992188 1494.15625 906.441406 1494.824219 905.960938 1495.542969 C 905.476562 1496.265625 905.070312 1497.027344 904.738281 1497.828125 C 904.40625 1498.632812 904.15625 1499.457031 903.988281 1500.308594 C 903.816406 1501.160156 903.734375 1502.019531 903.734375 1502.890625 C 903.734375 1503.757812 903.816406 1504.617188 903.988281 1505.46875 C 904.15625 1506.320312 904.40625 1507.144531 904.738281 1507.949219 C 905.070312 1508.75 905.476562 1509.511719 905.960938 1510.234375 C 906.441406 1510.953125 906.992188 1511.621094 907.605469 1512.234375 C 908.21875 1512.851562 908.886719 1513.398438 909.609375 1513.878906 C 910.328125 1514.363281 911.089844 1514.769531 911.894531 1515.101562 C 912.695312 1515.433594 913.523438 1515.683594 914.371094 1515.855469 C 915.222656 1516.023438 916.085938 1516.109375 916.953125 1516.109375 L 1108.632812 1516.109375 C 1109.5 1516.109375 1110.359375 1516.023438 1111.210938 1515.855469 C 1112.0625 1515.683594 1112.890625 1515.433594 1113.691406 1515.101562 C 1114.492188 1514.769531 1115.253906 1514.363281 1115.976562 1513.878906 C 1116.699219 1513.398438 1117.367188 1512.851562 1117.980469 1512.234375 C 1118.59375 1511.621094 1119.140625 1510.953125 1119.625 1510.234375 C 1120.105469 1509.511719 1120.511719 1508.75 1120.84375 1507.949219 C 1121.175781 1507.144531 1121.429688 1506.320312 1121.597656 1505.46875 C 1121.765625 1504.617188 1121.851562 1503.757812 1121.851562 1502.890625 C 1122.003906 1499.195312 1122.085938 1495.5 1122.097656 1491.800781 C 1122.109375 1488.105469 1122.050781 1484.410156 1121.921875 1480.714844 C 1121.789062 1477.019531 1121.589844 1473.328125 1121.320312 1469.640625 C 1121.050781 1465.953125 1120.710938 1462.273438 1120.300781 1458.601562 C 1119.890625 1454.925781 1119.410156 1451.261719 1118.859375 1447.605469 C 1118.308594 1443.949219 1117.6875 1440.304688 1117 1436.671875 C 1116.308594 1433.039062 1115.550781 1429.421875 1114.722656 1425.820312 C 1113.898438 1422.214844 1113 1418.628906 1112.039062 1415.0625 C 1111.074219 1411.492188 1110.042969 1407.941406 1108.941406 1404.414062 C 1107.84375 1400.882812 1106.675781 1397.375 1105.445312 1393.890625 C 1104.210938 1390.40625 1102.910156 1386.945312 1101.546875 1383.507812 C 1100.179688 1380.074219 1098.75 1376.664062 1097.257812 1373.28125 C 1095.761719 1369.902344 1094.203125 1366.550781 1092.578125 1363.226562 C 1090.957031 1359.90625 1089.269531 1356.617188 1087.523438 1353.359375 C 1085.773438 1350.101562 1083.964844 1346.878906 1082.09375 1343.691406 C 1080.222656 1340.503906 1078.289062 1337.351562 1076.296875 1334.234375 C 1074.308594 1331.121094 1072.257812 1328.046875 1070.148438 1325.007812 C 1068.039062 1321.972656 1065.875 1318.976562 1063.648438 1316.023438 C 1061.425781 1313.070312 1059.148438 1310.160156 1056.816406 1307.292969 C 1054.480469 1304.425781 1052.09375 1301.601562 1049.652344 1298.828125 C 1047.210938 1296.050781 1044.714844 1293.320312 1042.171875 1290.640625 C 1039.625 1287.960938 1037.027344 1285.328125 1034.382812 1282.746094 C 1031.738281 1280.164062 1029.042969 1277.632812 1026.300781 1275.15625 C 1023.558594 1272.675781 1020.769531 1270.25 1017.933594 1267.875 C 1015.097656 1265.503906 1012.21875 1263.1875 1009.296875 1260.921875 C 1006.371094 1258.660156 1003.40625 1256.453125 1000.398438 1254.304688 C 997.390625 1252.152344 994.34375 1250.0625 991.257812 1248.027344 C 988.167969 1245.992188 985.042969 1244.019531 981.882812 1242.105469 C 978.71875 1240.191406 975.519531 1238.335938 972.289062 1236.542969 C 969.054688 1234.75 965.789062 1233.023438 962.488281 1231.355469 C 959.191406 1229.6875 955.859375 1228.082031 952.5 1226.539062 C 949.136719 1225 945.75 1223.523438 942.332031 1222.109375 C 946.515625 1216.839844 950.234375 1211.261719 953.492188 1205.375 C 956.753906 1199.488281 959.507812 1193.375 961.753906 1187.03125 C 964.003906 1180.691406 965.71875 1174.207031 966.894531 1167.582031 C 968.070312 1160.957031 968.699219 1154.28125 968.773438 1147.554688 L 968.773438 1108.160156 C 968.730469 1099.003906 967.683594 1089.96875 965.632812 1081.046875 C 963.578125 1072.125 960.570312 1063.535156 956.609375 1055.28125 C 955.886719 1053.699219 955.128906 1052.132812 954.339844 1050.585938 C 953.546875 1049.035156 952.726562 1047.5 951.871094 1045.988281 C 951.015625 1044.472656 950.125 1042.976562 949.207031 1041.5 C 948.285156 1040.019531 947.335938 1038.566406 946.355469 1037.128906 C 945.371094 1035.691406 944.359375 1034.277344 943.320312 1032.882812 C 942.277344 1031.488281 941.207031 1030.117188 940.105469 1028.769531 C 939.003906 1027.421875 937.875 1026.097656 936.71875 1024.800781 C 935.5625 1023.5 934.378906 1022.226562 933.167969 1020.976562 C 931.957031 1019.726562 930.71875 1018.503906 929.453125 1017.308594 C 928.191406 1016.113281 926.902344 1014.941406 925.589844 1013.800781 C 924.277344 1012.660156 922.9375 1011.546875 921.578125 1010.460938 C 920.21875 1009.378906 918.835938 1008.324219 917.429688 1007.296875 C 916.023438 1006.273438 914.597656 1005.277344 913.148438 1004.3125 C 911.699219 1003.347656 910.230469 1002.414062 908.742188 1001.511719 C 907.253906 1000.609375 905.75 999.742188 904.222656 998.902344 C 902.699219 998.066406 901.15625 997.261719 899.597656 996.488281 C 898.039062 995.714844 896.464844 994.976562 894.871094 994.273438 C 893.28125 993.570312 891.675781 992.898438 890.058594 992.261719 C 888.4375 991.625 886.804688 991.023438 885.160156 990.457031 C 883.515625 989.890625 881.859375 989.359375 880.191406 988.863281 C 878.523438 988.367188 876.84375 987.90625 875.15625 987.480469 C 873.46875 987.058594 871.773438 986.667969 870.070312 986.316406 C 868.367188 985.964844 866.65625 985.648438 864.9375 985.367188 C 863.222656 985.089844 861.5 984.847656 859.769531 984.640625 C 858.042969 984.433594 856.3125 984.265625 854.578125 984.132812 C 852.84375 984.003906 851.105469 983.90625 849.367188 983.847656 C 847.625 983.792969 845.886719 983.769531 844.148438 983.785156 C 842.40625 983.804688 840.667969 983.855469 838.929688 983.945312 C 837.195312 984.035156 835.457031 984.164062 833.726562 984.328125 C 831.992188 984.492188 830.265625 984.695312 828.542969 984.933594 C 826.820312 985.171875 825.101562 985.445312 823.390625 985.757812 C 821.675781 986.066406 819.972656 986.414062 818.277344 986.800781 C 816.578125 987.183594 814.890625 987.601562 813.210938 988.058594 C 811.53125 988.515625 809.863281 989.007812 808.203125 989.535156 C 806.546875 990.058594 804.902344 990.621094 803.265625 991.21875 C 801.632812 991.816406 800.011719 992.449219 798.402344 993.117188 C 796.796875 993.78125 795.203125 994.480469 793.625 995.214844 C 792.050781 995.949219 790.488281 996.71875 788.945312 997.519531 C 787.398438 998.320312 785.871094 999.152344 784.363281 1000.019531 C 782.851562 1000.886719 781.363281 1001.785156 779.890625 1002.714844 C 778.421875 1003.644531 776.972656 1004.601562 775.542969 1005.59375 C 774.113281 1006.585938 772.703125 1007.609375 771.316406 1008.660156 C 769.929688 1009.710938 768.566406 1010.789062 767.226562 1011.902344 C 765.886719 1013.011719 764.570312 1014.148438 763.277344 1015.3125 C 761.988281 1016.480469 760.71875 1017.671875 759.480469 1018.890625 C 758.238281 1020.109375 757.023438 1021.355469 755.835938 1022.628906 C 754.648438 1023.898438 753.488281 1025.195312 752.355469 1026.515625 C 751.222656 1027.839844 750.121094 1029.183594 749.042969 1030.550781 C 747.96875 1031.917969 746.921875 1033.308594 745.90625 1034.722656 C 744.890625 1036.132812 743.90625 1037.566406 742.953125 1039.023438 C 741.996094 1040.476562 741.074219 1041.953125 740.183594 1043.445312 C 739.289062 1044.941406 738.429688 1046.453125 737.601562 1047.984375 C 736.773438 1049.511719 735.980469 1051.0625 735.21875 1052.625 C 734.457031 1054.191406 733.730469 1055.769531 733.035156 1057.367188 C 732.34375 1058.960938 731.683594 1060.570312 731.058594 1062.195312 C 730.433594 1063.816406 729.839844 1065.453125 729.285156 1067.105469 C 728.730469 1068.753906 728.210938 1070.414062 727.726562 1072.082031 C 727.238281 1073.753906 726.792969 1075.433594 726.378906 1077.125 C 725.964844 1078.816406 725.585938 1080.515625 725.246094 1082.21875 C 724.90625 1083.925781 724.601562 1085.640625 724.335938 1087.359375 C 724.066406 1089.078125 723.835938 1090.800781 723.640625 1092.53125 C 723.449219 1094.261719 723.289062 1095.992188 723.167969 1097.730469 C 723.050781 1099.464844 722.964844 1101.203125 722.921875 1102.941406 C 722.875 1104.679688 722.863281 1106.421875 722.894531 1108.160156 L 722.894531 1146.496094 C 722.964844 1153.203125 723.59375 1159.859375 724.769531 1166.464844 C 725.945312 1173.066406 727.660156 1179.53125 729.910156 1185.851562 C 732.160156 1192.167969 734.914062 1198.261719 738.171875 1204.125 C 741.429688 1209.988281 745.152344 1215.542969 749.332031 1220.789062 C 738.414062 1225.351562 727.8125 1230.554688 717.523438 1236.398438 C 707.234375 1242.242188 697.335938 1248.683594 687.824219 1255.722656 C 678.3125 1262.761719 669.257812 1270.34375 660.664062 1278.476562 C 652.066406 1286.609375 643.992188 1295.226562 636.4375 1304.335938 C 626.65625 1296.402344 617.929688 1289 611.320312 1282.65625 C 610.390625 1281.75 609.414062 1280.894531 608.402344 1280.082031 C 607.386719 1279.273438 606.335938 1278.515625 605.246094 1277.804688 C 604.15625 1277.097656 603.039062 1276.441406 601.886719 1275.839844 C 600.734375 1275.238281 599.558594 1274.695312 598.355469 1274.207031 C 597.152344 1273.71875 595.925781 1273.289062 594.683594 1272.921875 C 593.4375 1272.550781 592.175781 1272.242188 590.902344 1271.992188 C 589.628906 1271.746094 588.34375 1271.558594 587.050781 1271.433594 C 585.757812 1271.308594 584.464844 1271.246094 583.164062 1271.246094 C 581.867188 1271.246094 580.570312 1271.308594 579.277344 1271.433594 C 577.984375 1271.558594 576.703125 1271.746094 575.425781 1271.992188 C 574.152344 1272.242188 572.890625 1272.550781 571.648438 1272.921875 C 570.402344 1273.289062 569.179688 1273.71875 567.972656 1274.207031 C 566.769531 1274.695312 565.59375 1275.238281 564.441406 1275.839844 C 563.292969 1276.441406 562.171875 1277.097656 561.082031 1277.804688 C 559.996094 1278.515625 558.945312 1279.273438 557.929688 1280.082031 C 556.914062 1280.894531 555.941406 1281.75 555.007812 1282.65625 L 545.226562 1291.644531 L 543.902344 1291.644531 C 533.90625 1300.589844 523.449219 1308.964844 512.539062 1316.773438 C 501.628906 1324.582031 490.328125 1331.777344 478.636719 1338.355469 C 466.945312 1344.9375 454.929688 1350.863281 442.59375 1356.136719 C 430.257812 1361.410156 417.671875 1365.996094 404.835938 1369.902344 C 403.941406 1362.503906 403.230469 1355.089844 402.707031 1347.65625 C 402.183594 1340.222656 401.847656 1332.78125 401.699219 1325.332031 C 401.550781 1317.882812 401.589844 1310.433594 401.816406 1302.984375 C 402.042969 1295.535156 402.457031 1288.097656 403.058594 1280.671875 C 403.660156 1273.242188 404.449219 1265.835938 405.421875 1258.449219 C 406.398438 1251.0625 407.558594 1243.703125 408.902344 1236.375 C 410.246094 1229.042969 411.777344 1221.753906 413.488281 1214.5 C 415.199219 1207.25 417.09375 1200.046875 419.167969 1192.886719 C 421.242188 1185.730469 423.496094 1178.632812 425.929688 1171.585938 C 428.363281 1164.542969 430.972656 1157.566406 433.753906 1150.65625 C 436.539062 1143.742188 439.496094 1136.90625 442.621094 1130.140625 C 445.75 1123.378906 449.046875 1116.699219 452.511719 1110.101562 C 455.976562 1103.503906 459.605469 1097 463.398438 1090.585938 C 467.191406 1084.171875 471.140625 1077.855469 475.25 1071.640625 C 479.363281 1065.425781 483.625 1059.316406 488.042969 1053.316406 C 492.460938 1047.316406 497.027344 1041.429688 501.742188 1035.660156 C 506.457031 1029.886719 511.3125 1024.238281 516.3125 1018.714844 C 521.308594 1013.1875 526.445312 1007.789062 531.714844 1002.523438 C 536.984375 997.253906 542.386719 992.125 547.914062 987.128906 C 553.441406 982.132812 559.09375 977.277344 564.867188 972.566406 C 570.640625 967.855469 576.53125 963.292969 582.53125 958.878906 C 588.535156 954.464844 594.644531 950.203125 600.863281 946.097656 C 607.082031 941.988281 613.398438 938.042969 619.816406 934.253906 C 626.230469 930.464844 632.738281 926.839844 639.339844 923.378906 C 645.9375 919.917969 652.621094 916.625 659.382812 913.5 C 666.148438 910.375 672.988281 907.425781 679.902344 904.644531 C 686.816406 901.863281 693.792969 899.257812 700.839844 896.832031 C 707.882812 894.402344 714.984375 892.152344 722.144531 890.082031 C 729.300781 888.011719 736.507812 886.121094 743.761719 884.414062 C 751.011719 882.703125 758.304688 881.179688 765.632812 879.839844 C 772.964844 878.5 780.324219 877.34375 787.710938 876.371094 C 795.097656 875.402344 802.507812 874.617188 809.933594 874.019531 C 817.363281 873.421875 824.800781 873.011719 832.25 872.789062 C 839.695312 872.566406 847.144531 872.53125 854.597656 872.683594 C 862.046875 872.835938 869.488281 873.175781 876.921875 873.703125 C 884.351562 874.230469 891.769531 874.945312 899.164062 875.847656 C 906.5625 876.746094 913.933594 877.832031 921.273438 879.105469 C 928.617188 880.375 935.921875 881.832031 943.191406 883.472656 C 950.460938 885.109375 957.683594 886.933594 964.859375 888.9375 C 972.039062 890.941406 979.160156 893.121094 986.226562 895.484375 C 993.292969 897.847656 1000.296875 900.382812 1007.238281 903.097656 C 1014.175781 905.8125 1021.042969 908.703125 1027.835938 911.761719 C 1034.632812 914.824219 1041.34375 918.050781 1047.976562 921.449219 C 1054.605469 924.847656 1061.148438 928.414062 1067.601562 932.140625 C 1074.050781 935.867188 1080.40625 939.757812 1086.664062 943.804688 C 1092.917969 947.851562 1099.070312 952.054688 1105.113281 956.414062 C 1111.15625 960.769531 1117.089844 965.277344 1122.90625 969.933594 C 1128.722656 974.589844 1134.421875 979.390625 1139.996094 984.332031 C 1145.574219 989.277344 1151.019531 994.359375 1156.339844 999.574219 C 1161.660156 1004.792969 1166.84375 1010.140625 1171.894531 1015.621094 C 1176.945312 1021.097656 1181.855469 1026.699219 1186.625 1032.425781 C 1191.394531 1038.152344 1196.015625 1043.996094 1200.488281 1049.953125 C 1204.964844 1055.914062 1209.285156 1061.980469 1213.453125 1068.15625 C 1217.621094 1074.332031 1221.632812 1080.609375 1225.484375 1086.988281 C 1229.339844 1093.367188 1233.027344 1099.839844 1236.554688 1106.402344 C 1240.082031 1112.964844 1243.441406 1119.613281 1246.632812 1126.347656 C 1249.824219 1133.082031 1252.84375 1139.890625 1255.695312 1146.777344 C 1258.542969 1153.660156 1261.21875 1160.613281 1263.714844 1167.636719 C 1266.214844 1174.65625 1268.535156 1181.734375 1270.675781 1188.871094 C 1272.820312 1196.007812 1274.78125 1203.195312 1276.5625 1210.429688 C 1278.34375 1217.664062 1279.941406 1224.941406 1281.355469 1232.257812 C 1282.769531 1239.574219 1283.996094 1246.921875 1285.042969 1254.296875 C 1286.085938 1261.675781 1286.941406 1269.078125 1287.613281 1276.496094 C 1288.285156 1283.917969 1288.769531 1291.351562 1289.066406 1298.796875 C 1289.363281 1306.242188 1289.472656 1313.691406 1289.394531 1321.144531 C 1289.316406 1328.59375 1289.050781 1336.039062 1288.601562 1343.476562 C 1288.148438 1350.914062 1287.507812 1358.335938 1286.679688 1365.742188 C 1285.851562 1373.148438 1284.839844 1380.527344 1283.644531 1387.882812 C 1282.445312 1395.234375 1281.0625 1402.554688 1279.496094 1409.839844 C 1277.929688 1417.125 1276.179688 1424.367188 1274.246094 1431.5625 C 1272.316406 1438.761719 1270.203125 1445.90625 1267.914062 1452.996094 C 1265.621094 1460.085938 1263.152344 1467.113281 1260.507812 1474.078125 C 1257.863281 1481.046875 1255.042969 1487.941406 1252.050781 1494.765625 C 1249.058594 1501.589844 1245.898438 1508.335938 1242.5625 1515 C 1239.230469 1521.664062 1235.734375 1528.242188 1232.070312 1534.730469 C 1228.40625 1541.21875 1224.582031 1547.613281 1220.597656 1553.910156 C 1216.613281 1560.203125 1212.472656 1566.398438 1208.175781 1572.484375 C 1203.878906 1578.570312 1199.429688 1584.546875 1194.832031 1590.410156 C 1190.234375 1596.277344 1185.492188 1602.019531 1180.605469 1607.644531 C 1175.714844 1613.269531 1170.691406 1618.769531 1165.527344 1624.140625 C 1160.363281 1629.511719 1155.066406 1634.75 1149.636719 1639.855469 C 1144.210938 1644.960938 1138.65625 1649.925781 1132.980469 1654.75 C 1127.300781 1659.578125 1121.503906 1664.257812 1115.589844 1668.789062 C 1109.675781 1673.324219 1103.652344 1677.703125 1097.519531 1681.933594 C 1091.382812 1686.164062 1085.148438 1690.238281 1078.808594 1694.15625 C 1072.46875 1698.070312 1066.035156 1701.824219 1059.503906 1705.417969 C 1052.976562 1709.007812 1046.363281 1712.433594 1039.660156 1715.695312 C 1032.960938 1718.953125 1026.179688 1722.042969 1019.324219 1724.957031 C 1012.46875 1727.875 1005.542969 1730.621094 998.546875 1733.1875 C 991.550781 1735.757812 984.496094 1738.148438 977.382812 1740.363281 C 970.265625 1742.574219 963.101562 1744.609375 955.882812 1746.460938 C 948.664062 1748.3125 941.40625 1749.984375 934.105469 1751.472656 C 926.804688 1752.957031 919.46875 1754.261719 912.101562 1755.378906 C 904.734375 1756.496094 897.34375 1757.425781 889.929688 1758.171875 C 882.515625 1758.917969 875.085938 1759.476562 867.644531 1759.847656 C 860.203125 1760.21875 852.753906 1760.402344 845.304688 1760.402344 Z M 742.722656 1739.25 C 734.234375 1750.292969 725.027344 1760.699219 715.101562 1770.472656 C 705.175781 1780.242188 694.625 1789.285156 683.453125 1797.601562 C 672.277344 1805.914062 660.582031 1813.421875 648.371094 1820.121094 C 636.160156 1826.816406 623.546875 1832.644531 610.527344 1837.601562 C 602.039062 1840.984375 593.226562 1842.746094 584.089844 1842.890625 C 574.945312 1842.796875 566.128906 1841.03125 557.652344 1837.601562 C 319.703125 1743.214844 346.144531 1462.703125 353.28125 1406.652344 C 362.929688 1405.457031 372.519531 1403.902344 382.046875 1401.980469 C 391.578125 1400.058594 401.023438 1397.78125 410.378906 1395.144531 C 419.738281 1392.507812 428.980469 1389.523438 438.113281 1386.1875 C 447.246094 1382.847656 456.234375 1379.171875 465.089844 1375.152344 C 473.941406 1371.136719 482.628906 1366.789062 491.152344 1362.113281 C 499.675781 1357.4375 508.011719 1352.445312 516.15625 1347.136719 C 524.300781 1341.832031 532.234375 1336.222656 539.953125 1330.3125 C 547.671875 1324.40625 555.160156 1318.214844 562.410156 1311.738281 L 574.042969 1301.164062 C 575.335938 1299.863281 576.832031 1298.871094 578.53125 1298.183594 C 580.226562 1297.492188 581.992188 1297.164062 583.824219 1297.195312 C 585.613281 1297.199219 587.328125 1297.546875 588.980469 1298.234375 C 590.628906 1298.921875 592.082031 1299.898438 593.34375 1301.164062 C 605.21875 1312.414062 617.730469 1322.902344 630.886719 1332.625 C 637.585938 1337.714844 644.449219 1342.578125 651.476562 1347.214844 C 658.5 1351.847656 665.671875 1356.242188 672.992188 1360.398438 C 680.3125 1364.550781 687.761719 1368.460938 695.339844 1372.117188 C 702.917969 1375.777344 710.613281 1379.175781 718.417969 1382.324219 C 726.222656 1385.46875 734.128906 1388.347656 742.125 1390.964844 C 750.125 1393.582031 758.203125 1395.929688 766.355469 1398.011719 C 774.511719 1400.089844 782.726562 1401.894531 791.003906 1403.421875 C 799.28125 1404.953125 807.597656 1406.207031 815.957031 1407.179688 C 815.957031 1407.179688 815.957031 1409.296875 815.957031 1410.617188 C 815.957031 1411.941406 815.957031 1412.734375 815.957031 1414.054688 C 816.101562 1415.816406 816.101562 1417.582031 815.957031 1419.34375 C 815.957031 1420.664062 815.957031 1421.988281 815.957031 1423.308594 C 815.957031 1424.628906 815.957031 1431.238281 815.957031 1435.46875 L 815.957031 1439.171875 C 815.957031 1448.691406 815.957031 1459.53125 817.277344 1471.691406 C 818.863281 1544.398438 807.761719 1653.324219 742.722656 1739.25 Z M 749.597656 1108.160156 L 749.597656 1106.574219 C 773.804688 1111.9375 798.300781 1114.757812 823.09375 1115.035156 C 828.144531 1115.246094 833.191406 1115.257812 838.242188 1115.066406 C 843.289062 1114.878906 848.324219 1114.492188 853.339844 1113.90625 C 858.359375 1113.320312 863.347656 1112.539062 868.304688 1111.558594 C 873.261719 1110.578125 878.171875 1109.40625 883.035156 1108.039062 C 887.898438 1106.671875 892.699219 1105.113281 897.441406 1103.367188 C 902.183594 1101.621094 906.847656 1099.691406 911.433594 1097.578125 C 916.023438 1095.460938 920.523438 1093.167969 924.929688 1090.699219 C 929.335938 1088.230469 933.640625 1085.589844 937.839844 1082.777344 C 940.15625 1091.441406 941.300781 1100.253906 941.277344 1109.21875 L 941.277344 1147.554688 C 941.359375 1149.175781 941.40625 1150.796875 941.40625 1152.421875 C 941.410156 1154.042969 941.371094 1155.664062 941.292969 1157.285156 C 941.214844 1158.90625 941.09375 1160.527344 940.929688 1162.140625 C 940.769531 1163.757812 940.566406 1165.367188 940.324219 1166.972656 C 940.082031 1168.574219 939.796875 1170.171875 939.472656 1171.765625 C 939.148438 1173.355469 938.785156 1174.933594 938.378906 1176.507812 C 937.976562 1178.078125 937.53125 1179.640625 937.046875 1181.191406 C 936.5625 1182.738281 936.039062 1184.273438 935.480469 1185.796875 C 934.917969 1187.320312 934.316406 1188.828125 933.679688 1190.320312 C 933.042969 1191.8125 932.367188 1193.289062 931.652344 1194.746094 C 930.941406 1196.207031 930.191406 1197.644531 929.402344 1199.0625 C 928.617188 1200.484375 927.796875 1201.882812 926.941406 1203.261719 C 926.082031 1204.640625 925.191406 1205.996094 924.265625 1207.328125 C 923.339844 1208.664062 922.378906 1209.972656 921.386719 1211.257812 C 920.394531 1212.542969 919.371094 1213.800781 918.316406 1215.03125 C 917.257812 1216.265625 916.171875 1217.46875 915.054688 1218.648438 C 913.9375 1219.824219 912.792969 1220.972656 911.617188 1222.09375 C 910.441406 1223.210938 909.238281 1224.300781 908.007812 1225.359375 C 906.777344 1226.417969 905.519531 1227.445312 904.238281 1228.4375 C 902.953125 1229.433594 901.648438 1230.394531 900.316406 1231.320312 C 898.984375 1232.25 897.628906 1233.144531 896.253906 1234.003906 C 894.875 1234.863281 893.476562 1235.6875 892.058594 1236.476562 C 890.640625 1237.265625 889.203125 1238.015625 887.746094 1238.730469 C 886.289062 1239.449219 884.8125 1240.125 883.324219 1240.765625 C 881.832031 1241.40625 880.324219 1242.007812 878.804688 1242.574219 C 877.28125 1243.136719 875.746094 1243.664062 874.199219 1244.148438 C 872.648438 1244.636719 871.089844 1245.082031 869.519531 1245.492188 C 867.945312 1245.898438 866.367188 1246.265625 864.777344 1246.59375 C 863.1875 1246.917969 861.589844 1247.207031 859.984375 1247.453125 C 858.378906 1247.699219 856.769531 1247.902344 855.15625 1248.066406 C 853.542969 1248.230469 851.921875 1248.355469 850.300781 1248.4375 C 848.679688 1248.519531 847.058594 1248.5625 845.4375 1248.5625 C 843.8125 1248.5625 842.191406 1248.519531 840.570312 1248.4375 C 838.949219 1248.355469 837.332031 1248.230469 835.714844 1248.066406 C 834.101562 1247.902344 832.492188 1247.699219 830.886719 1247.453125 C 829.28125 1247.207031 827.683594 1246.917969 826.09375 1246.59375 C 824.503906 1246.265625 822.925781 1245.898438 821.355469 1245.492188 C 819.78125 1245.082031 818.222656 1244.636719 816.675781 1244.148438 C 815.125 1243.664062 813.589844 1243.136719 812.066406 1242.574219 C 810.546875 1242.007812 809.039062 1241.40625 807.546875 1240.765625 C 806.058594 1240.125 804.582031 1239.449219 803.125 1238.730469 C 801.667969 1238.015625 800.230469 1237.265625 798.8125 1236.476562 C 797.394531 1235.6875 795.996094 1234.863281 794.617188 1234.003906 C 793.242188 1233.144531 791.886719 1232.25 790.554688 1231.320312 C 789.222656 1230.394531 787.917969 1229.433594 786.632812 1228.4375 C 785.351562 1227.445312 784.09375 1226.417969 782.863281 1225.359375 C 781.632812 1224.300781 780.429688 1223.210938 779.253906 1222.09375 C 778.078125 1220.972656 776.933594 1219.824219 775.816406 1218.648438 C 774.699219 1217.46875 773.613281 1216.265625 772.554688 1215.03125 C 771.5 1213.800781 770.476562 1212.542969 769.484375 1211.257812 C 768.492188 1209.972656 767.53125 1208.664062 766.605469 1207.328125 C 765.679688 1205.996094 764.789062 1204.640625 763.933594 1203.261719 C 763.074219 1201.882812 762.253906 1200.484375 761.46875 1199.0625 C 760.679688 1197.644531 759.933594 1196.207031 759.21875 1194.746094 C 758.503906 1193.289062 757.832031 1191.8125 757.191406 1190.320312 C 756.554688 1188.828125 755.953125 1187.320312 755.390625 1185.796875 C 754.832031 1184.273438 754.308594 1182.738281 753.824219 1181.191406 C 753.339844 1179.640625 752.894531 1178.078125 752.492188 1176.507812 C 752.085938 1174.9375 751.722656 1173.355469 751.398438 1171.765625 C 751.074219 1170.171875 750.789062 1168.574219 750.546875 1166.972656 C 750.304688 1165.367188 750.101562 1163.757812 749.941406 1162.140625 C 749.777344 1160.527344 749.65625 1158.90625 749.578125 1157.285156 C 749.5 1155.664062 749.460938 1154.042969 749.464844 1152.421875 C 749.464844 1150.796875 749.511719 1149.175781 749.597656 1147.554688 Z M 845.304688 1012.1875 C 849.417969 1012.15625 853.515625 1012.390625 857.601562 1012.886719 C 861.683594 1013.382812 865.71875 1014.140625 869.707031 1015.15625 C 873.691406 1016.171875 877.597656 1017.4375 881.421875 1018.957031 C 885.246094 1020.472656 888.957031 1022.230469 892.554688 1024.226562 C 896.152344 1026.21875 899.609375 1028.4375 902.921875 1030.875 C 906.234375 1033.316406 909.375 1035.957031 912.347656 1038.800781 C 915.320312 1041.644531 918.101562 1044.667969 920.683594 1047.867188 C 923.269531 1051.066406 925.636719 1054.421875 927.792969 1057.925781 C 924.113281 1060.644531 920.320312 1063.195312 916.417969 1065.582031 C 912.515625 1067.96875 908.515625 1070.179688 904.417969 1072.214844 C 900.324219 1074.253906 896.144531 1076.105469 891.886719 1077.777344 C 887.628906 1079.449219 883.308594 1080.933594 878.917969 1082.226562 C 874.53125 1083.519531 870.097656 1084.621094 865.613281 1085.527344 C 861.128906 1086.433594 856.613281 1087.140625 852.066406 1087.652344 C 847.523438 1088.164062 842.960938 1088.476562 838.390625 1088.589844 C 833.816406 1088.703125 829.246094 1088.617188 824.679688 1088.332031 C 801.121094 1088.121094 777.851562 1085.390625 754.882812 1080.136719 C 755.621094 1077.722656 756.449219 1075.34375 757.371094 1073 C 758.296875 1070.652344 759.308594 1068.347656 760.414062 1066.082031 C 761.519531 1063.816406 762.714844 1061.597656 763.992188 1059.425781 C 765.273438 1057.253906 766.636719 1055.132812 768.082031 1053.070312 C 769.53125 1051.003906 771.054688 1049 772.660156 1047.054688 C 774.265625 1045.113281 775.945312 1043.234375 777.699219 1041.421875 C 779.449219 1039.609375 781.273438 1037.871094 783.164062 1036.203125 C 785.050781 1034.53125 787.003906 1032.941406 789.019531 1031.425781 C 791.035156 1029.914062 793.109375 1028.480469 795.238281 1027.128906 C 797.363281 1025.777344 799.542969 1024.511719 801.769531 1023.332031 C 804 1022.152344 806.269531 1021.0625 808.585938 1020.0625 C 810.898438 1019.0625 813.25 1018.152344 815.632812 1017.335938 C 818.019531 1016.523438 820.433594 1015.800781 822.875 1015.175781 C 825.316406 1014.550781 827.78125 1014.023438 830.265625 1013.589844 C 832.75 1013.160156 835.246094 1012.828125 837.757812 1012.59375 C 840.265625 1012.359375 842.78125 1012.222656 845.304688 1012.1875 Z M 845.304688 1012.1875 " fill-opacity="1" fill-rule="nonzero"/><g fill="#737373" fill-opacity="1"><g transform="translate(2276.6349, 1227.83833)"><g><path d="M 95.65625 -147.84375 L 82.03125 -103.78125 L 127.546875 -103.78125 L 113.921875 -147.84375 C 113.148438 -149.582031 112.328125 -150.835938 111.453125 -151.609375 C 110.585938 -152.378906 109.578125 -152.765625 108.421875 -152.765625 L 101.171875 -152.765625 C 100.015625 -152.765625 99 -152.378906 98.125 -151.609375 C 97.257812 -150.835938 96.4375 -149.582031 95.65625 -147.84375 Z M 79.140625 -10.4375 C 79.140625 -6.757812 78.316406 -4.097656 76.671875 -2.453125 C 75.035156 -0.816406 72.378906 0 68.703125 0 L 26.09375 0 C 22.414062 0 19.753906 -0.816406 18.109375 -2.453125 C 16.472656 -4.097656 15.65625 -6.757812 15.65625 -10.4375 L 15.65625 -86.96875 C 15.65625 -92.757812 16.570312 -99.425781 18.40625 -106.96875 C 20.238281 -114.507812 23.085938 -123.300781 26.953125 -133.34375 L 52.1875 -199.15625 C 53.34375 -202.4375 55.128906 -204.847656 57.546875 -206.390625 C 59.960938 -207.941406 63.101562 -208.71875 66.96875 -208.71875 L 144.9375 -208.71875 C 148.613281 -208.71875 151.660156 -207.941406 154.078125 -206.390625 C 156.492188 -204.847656 158.28125 -202.4375 159.4375 -199.15625 L 184.65625 -133.34375 C 188.519531 -123.300781 191.367188 -114.507812 193.203125 -106.96875 C 195.046875 -99.425781 195.96875 -92.757812 195.96875 -86.96875 L 195.96875 -10.4375 C 195.96875 -6.757812 195.144531 -4.097656 193.5 -2.453125 C 191.851562 -0.816406 189.195312 0 185.53125 0 L 141.75 0 C 137.882812 0 135.035156 -0.816406 133.203125 -2.453125 C 131.367188 -4.097656 130.453125 -6.757812 130.453125 -10.4375 L 130.453125 -51.015625 L 79.140625 -51.015625 Z M 79.140625 -10.4375 "/></g></g></g><g fill="#737373" fill-opacity="1"><g transform="translate(2488.249263, 1227.83833)"><g><path d="M 141.75 0 L 30.4375 0 C 26.769531 0 24.113281 -0.816406 22.46875 -2.453125 C 20.820312 -4.097656 20 -6.757812 20 -10.4375 L 20 -198.28125 C 20 -201.957031 20.820312 -204.613281 22.46875 -206.25 C 24.113281 -207.894531 26.769531 -208.71875 30.4375 -208.71875 L 122.90625 -208.71875 C 141.851562 -208.71875 155.867188 -205.09375 164.953125 -197.84375 C 174.035156 -190.601562 178.578125 -179.445312 178.578125 -164.375 L 178.578125 -150.453125 C 178.578125 -142.335938 177.175781 -135.71875 174.375 -130.59375 C 171.570312 -125.46875 167.269531 -121.648438 161.46875 -119.140625 C 173.832031 -117.984375 183.007812 -113.734375 189 -106.390625 C 195 -99.046875 198 -88.320312 198 -74.21875 L 198 -47.546875 C 198 -31.304688 193.40625 -19.320312 184.21875 -11.59375 C 175.039062 -3.863281 160.882812 0 141.75 0 Z M 85.234375 -159.4375 L 85.234375 -128.125 L 109.875 -128.125 C 113.539062 -128.125 116.289062 -129.085938 118.125 -131.015625 C 119.96875 -132.953125 120.890625 -135.859375 120.890625 -139.734375 L 120.890625 -147.84375 C 120.890625 -151.707031 119.96875 -154.601562 118.125 -156.53125 C 116.289062 -158.46875 113.539062 -159.4375 109.875 -159.4375 Z M 85.234375 -83.484375 L 85.234375 -49.28125 L 122.90625 -49.28125 C 126.582031 -49.28125 129.335938 -50.242188 131.171875 -52.171875 C 133.003906 -54.109375 133.921875 -57.007812 133.921875 -60.875 L 133.921875 -72.1875 C 133.921875 -76.050781 133.003906 -78.898438 131.171875 -80.734375 C 129.335938 -82.566406 126.582031 -83.484375 122.90625 -83.484375 Z M 85.234375 -83.484375 "/></g></g></g><g fill="#737373" fill-opacity="1"><g transform="translate(2698.414172, 1227.83833)"><g><path d="M 116.828125 0 L 25.21875 0 C 21.550781 0 18.894531 -0.816406 17.25 -2.453125 C 15.601562 -4.097656 14.78125 -6.757812 14.78125 -10.4375 L 14.78125 -44.359375 C 14.78125 -48.023438 15.601562 -50.679688 17.25 -52.328125 C 18.894531 -53.972656 21.550781 -54.796875 25.21875 -54.796875 L 103.203125 -54.796875 C 105.710938 -54.796875 107.59375 -55.613281 108.84375 -57.25 C 110.101562 -58.894531 110.734375 -60.878906 110.734375 -63.203125 C 110.734375 -66.484375 110.101562 -68.894531 108.84375 -70.4375 C 107.59375 -71.988281 105.710938 -72.859375 103.203125 -73.046875 L 59.71875 -79.140625 C 46.1875 -81.066406 35.3125 -85.507812 27.09375 -92.46875 C 18.882812 -99.425781 14.78125 -111.023438 14.78125 -127.265625 L 14.78125 -157.703125 C 14.78125 -174.128906 20.09375 -186.738281 30.71875 -195.53125 C 41.351562 -204.320312 56.046875 -208.71875 74.796875 -208.71875 L 155.96875 -208.71875 C 159.632812 -208.71875 162.285156 -207.894531 163.921875 -206.25 C 165.566406 -204.613281 166.390625 -201.957031 166.390625 -198.28125 L 166.390625 -163.78125 C 166.390625 -160.113281 165.566406 -157.457031 163.921875 -155.8125 C 162.285156 -154.175781 159.632812 -153.359375 155.96875 -153.359375 L 88.421875 -153.359375 C 85.898438 -153.359375 83.960938 -152.535156 82.609375 -150.890625 C 81.265625 -149.242188 80.59375 -147.164062 80.59375 -144.65625 C 80.59375 -142.144531 81.265625 -140.019531 82.609375 -138.28125 C 83.960938 -136.539062 85.898438 -135.570312 88.421875 -135.375 L 131.609375 -129.578125 C 145.140625 -127.648438 156.054688 -123.207031 164.359375 -116.25 C 172.671875 -109.289062 176.828125 -97.691406 176.828125 -81.453125 L 176.828125 -51.015625 C 176.828125 -34.585938 171.460938 -21.976562 160.734375 -13.1875 C 150.015625 -4.394531 135.378906 0 116.828125 0 Z M 116.828125 0 "/></g></g></g><g fill="#737373" fill-opacity="1"><g transform="translate(2886.837927, 1227.83833)"><g><path d="M 196.828125 -54.796875 C 196.828125 -45.898438 195.523438 -37.828125 192.921875 -30.578125 C 190.316406 -23.335938 185.675781 -17.15625 179 -12.03125 C 172.332031 -6.90625 163.148438 -2.894531 151.453125 0 C 139.765625 2.894531 124.9375 4.34375 106.96875 4.34375 C 89 4.34375 74.117188 2.894531 62.328125 0 C 50.535156 -2.894531 41.304688 -6.90625 34.640625 -12.03125 C 27.972656 -17.15625 23.332031 -23.335938 20.71875 -30.578125 C 18.113281 -37.828125 16.8125 -45.898438 16.8125 -54.796875 L 16.8125 -153.640625 C 16.8125 -162.535156 18.113281 -170.601562 20.71875 -177.84375 C 23.332031 -185.09375 27.972656 -191.328125 34.640625 -196.546875 C 41.304688 -201.765625 50.535156 -205.820312 62.328125 -208.71875 C 74.117188 -211.613281 89 -213.0625 106.96875 -213.0625 C 124.9375 -213.0625 139.765625 -211.613281 151.453125 -208.71875 C 163.148438 -205.820312 172.332031 -201.765625 179 -196.546875 C 185.675781 -191.328125 190.316406 -185.09375 192.921875 -177.84375 C 195.523438 -170.601562 196.828125 -162.535156 196.828125 -153.640625 Z M 82.625 -65.21875 C 82.625 -61.351562 84.070312 -58.113281 86.96875 -55.5 C 89.863281 -52.894531 96.53125 -51.59375 106.96875 -51.59375 C 117.40625 -51.59375 124.070312 -52.894531 126.96875 -55.5 C 129.875 -58.113281 131.328125 -61.351562 131.328125 -65.21875 L 131.328125 -143.203125 C 131.328125 -146.878906 129.875 -150.019531 126.96875 -152.625 C 124.070312 -155.238281 117.40625 -156.546875 106.96875 -156.546875 C 96.53125 -156.546875 89.863281 -155.238281 86.96875 -152.625 C 84.070312 -150.019531 82.625 -146.878906 82.625 -143.203125 Z M 82.625 -65.21875 "/></g></g></g><g fill="#737373" fill-opacity="1"><g transform="translate(3100.481509, 1227.83833)"><g><path d="M 178 0 L 30.4375 0 C 26.769531 0 24.113281 -0.816406 22.46875 -2.453125 C 20.820312 -4.097656 20 -6.757812 20 -10.4375 L 20 -198.28125 C 20 -201.957031 20.820312 -204.613281 22.46875 -206.25 C 24.113281 -207.894531 26.769531 -208.71875 30.4375 -208.71875 L 75.375 -208.71875 C 79.039062 -208.71875 81.695312 -207.894531 83.34375 -206.25 C 84.988281 -204.613281 85.8125 -201.957031 85.8125 -198.28125 L 85.8125 -54.796875 L 125.515625 -54.796875 L 125.515625 -101.75 C 125.515625 -105.425781 126.335938 -108.082031 127.984375 -109.71875 C 129.628906 -111.363281 132.285156 -112.1875 135.953125 -112.1875 L 178 -112.1875 C 181.664062 -112.1875 184.316406 -111.363281 185.953125 -109.71875 C 187.597656 -108.082031 188.421875 -105.425781 188.421875 -101.75 L 188.421875 -10.4375 C 188.421875 -6.757812 187.597656 -4.097656 185.953125 -2.453125 C 184.316406 -0.816406 181.664062 0 178 0 Z M 178 0 "/></g></g></g><g fill="#737373" fill-opacity="1"><g transform="translate(3301.949976, 1227.83833)"><g><path d="M 197.703125 -54.796875 C 197.703125 -45.898438 196.394531 -37.828125 193.78125 -30.578125 C 191.175781 -23.335938 186.539062 -17.15625 179.875 -12.03125 C 173.207031 -6.90625 164.078125 -2.894531 152.484375 0 C 140.890625 2.894531 126.101562 4.34375 108.125 4.34375 C 90.15625 4.34375 75.367188 2.894531 63.765625 0 C 52.171875 -2.894531 43.039062 -6.90625 36.375 -12.03125 C 29.707031 -17.15625 25.066406 -23.335938 22.453125 -30.578125 C 19.847656 -37.828125 18.546875 -45.898438 18.546875 -54.796875 L 18.546875 -198.28125 C 18.546875 -201.957031 19.367188 -204.613281 21.015625 -206.25 C 22.660156 -207.894531 25.316406 -208.71875 28.984375 -208.71875 L 74.5 -208.71875 C 78.175781 -208.71875 80.832031 -207.894531 82.46875 -206.25 C 84.113281 -204.613281 84.9375 -201.957031 84.9375 -198.28125 L 84.9375 -66.09375 C 84.9375 -62.226562 86.382812 -58.988281 89.28125 -56.375 C 92.1875 -53.769531 98.660156 -52.46875 108.703125 -52.46875 C 118.953125 -52.46875 125.523438 -53.769531 128.421875 -56.375 C 131.316406 -58.988281 132.765625 -62.226562 132.765625 -66.09375 L 132.765625 -198.28125 C 132.765625 -201.957031 133.585938 -204.613281 135.234375 -206.25 C 136.878906 -207.894531 139.535156 -208.71875 143.203125 -208.71875 L 187.265625 -208.71875 C 190.941406 -208.71875 193.597656 -207.894531 195.234375 -206.25 C 196.878906 -204.613281 197.703125 -201.957031 197.703125 -198.28125 Z M 197.703125 -54.796875 "/></g></g></g><g fill="#737373" fill-opacity="1"><g transform="translate(3518.202349, 1227.83833)"><g><path d="M 118.5625 0 L 71.609375 0 C 67.929688 0 65.269531 -0.816406 63.625 -2.453125 C 61.988281 -4.097656 61.171875 -6.757812 61.171875 -10.4375 L 61.171875 -152.765625 L 18.546875 -152.765625 C 14.878906 -152.765625 12.222656 -153.585938 10.578125 -155.234375 C 8.929688 -156.878906 8.109375 -159.535156 8.109375 -163.203125 L 8.109375 -198.28125 C 8.109375 -201.957031 8.929688 -204.613281 10.578125 -206.25 C 12.222656 -207.894531 14.878906 -208.71875 18.546875 -208.71875 L 171.609375 -208.71875 C 175.285156 -208.71875 177.941406 -207.894531 179.578125 -206.25 C 181.222656 -204.613281 182.046875 -201.957031 182.046875 -198.28125 L 182.046875 -163.203125 C 182.046875 -159.535156 181.222656 -156.878906 179.578125 -155.234375 C 177.941406 -153.585938 175.285156 -152.765625 171.609375 -152.765625 L 129 -152.765625 L 129 -10.4375 C 129 -6.757812 128.175781 -4.097656 126.53125 -2.453125 C 124.894531 -0.816406 122.238281 0 118.5625 0 Z M 118.5625 0 "/></g></g></g><g fill="#737373" fill-opacity="1"><g transform="translate(3708.365396, 1227.83833)"><g><path d="M 164.953125 0 L 30.4375 0 C 26.769531 0 24.113281 -0.816406 22.46875 -2.453125 C 20.820312 -4.097656 20 -6.757812 20 -10.4375 L 20 -198.28125 C 20 -201.957031 20.820312 -204.613281 22.46875 -206.25 C 24.113281 -207.894531 26.769531 -208.71875 30.4375 -208.71875 L 164.953125 -208.71875 C 168.617188 -208.71875 171.273438 -207.894531 172.921875 -206.25 C 174.566406 -204.613281 175.390625 -201.957031 175.390625 -198.28125 L 175.390625 -164.375 C 175.390625 -160.695312 174.566406 -158.035156 172.921875 -156.390625 C 171.273438 -154.753906 168.617188 -153.9375 164.953125 -153.9375 L 84.9375 -153.9375 L 84.9375 -131.609375 L 141.46875 -131.609375 C 145.132812 -131.609375 147.789062 -130.785156 149.4375 -129.140625 C 151.082031 -127.503906 151.90625 -124.847656 151.90625 -121.171875 L 151.90625 -90.15625 C 151.90625 -86.476562 151.082031 -83.816406 149.4375 -82.171875 C 147.789062 -80.535156 145.132812 -79.71875 141.46875 -79.71875 L 84.9375 -79.71875 L 84.9375 -54.796875 L 164.953125 -54.796875 C 168.617188 -54.796875 171.273438 -53.972656 172.921875 -52.328125 C 174.566406 -50.679688 175.390625 -48.023438 175.390625 -44.359375 L 175.390625 -10.4375 C 175.390625 -6.757812 174.566406 -4.097656 172.921875 -2.453125 C 171.273438 -0.816406 168.617188 0 164.953125 0 Z M 164.953125 0 "/></g></g></g><g fill="#000000" fill-opacity="1"><g transform="translate(1686.57741, 1633.431835)"><g><path d="M 116.828125 0 L 25.21875 0 C 21.550781 0 18.894531 -0.816406 17.25 -2.453125 C 15.601562 -4.097656 14.78125 -6.757812 14.78125 -10.4375 L 14.78125 -44.359375 C 14.78125 -48.023438 15.601562 -50.679688 17.25 -52.328125 C 18.894531 -53.972656 21.550781 -54.796875 25.21875 -54.796875 L 103.203125 -54.796875 C 105.710938 -54.796875 107.59375 -55.613281 108.84375 -57.25 C 110.101562 -58.894531 110.734375 -60.878906 110.734375 -63.203125 C 110.734375 -66.484375 110.101562 -68.894531 108.84375 -70.4375 C 107.59375 -71.988281 105.710938 -72.859375 103.203125 -73.046875 L 59.71875 -79.140625 C 46.1875 -81.066406 35.3125 -85.507812 27.09375 -92.46875 C 18.882812 -99.425781 14.78125 -111.023438 14.78125 -127.265625 L 14.78125 -157.703125 C 14.78125 -174.128906 20.09375 -186.738281 30.71875 -195.53125 C 41.351562 -204.320312 56.046875 -208.71875 74.796875 -208.71875 L 155.96875 -208.71875 C 159.632812 -208.71875 162.285156 -207.894531 163.921875 -206.25 C 165.566406 -204.613281 166.390625 -201.957031 166.390625 -198.28125 L 166.390625 -163.78125 C 166.390625 -160.113281 165.566406 -157.457031 163.921875 -155.8125 C 162.285156 -154.175781 159.632812 -153.359375 155.96875 -153.359375 L 88.421875 -153.359375 C 85.898438 -153.359375 83.960938 -152.535156 82.609375 -150.890625 C 81.265625 -149.242188 80.59375 -147.164062 80.59375 -144.65625 C 80.59375 -142.144531 81.265625 -140.019531 82.609375 -138.28125 C 83.960938 -136.539062 85.898438 -135.570312 88.421875 -135.375 L 131.609375 -129.578125 C 145.140625 -127.648438 156.054688 -123.207031 164.359375 -116.25 C 172.671875 -109.289062 176.828125 -97.691406 176.828125 -81.453125 L 176.828125 -51.015625 C 176.828125 -34.585938 171.460938 -21.976562 160.734375 -13.1875 C 150.015625 -4.394531 135.378906 0 116.828125 0 Z M 116.828125 0 "/></g></g></g><g fill="#000000" fill-opacity="1"><g transform="translate(1875.001143, 1633.431835)"><g><path d="M 164.953125 0 L 30.4375 0 C 26.769531 0 24.113281 -0.816406 22.46875 -2.453125 C 20.820312 -4.097656 20 -6.757812 20 -10.4375 L 20 -198.28125 C 20 -201.957031 20.820312 -204.613281 22.46875 -206.25 C 24.113281 -207.894531 26.769531 -208.71875 30.4375 -208.71875 L 164.953125 -208.71875 C 168.617188 -208.71875 171.273438 -207.894531 172.921875 -206.25 C 174.566406 -204.613281 175.390625 -201.957031 175.390625 -198.28125 L 175.390625 -164.375 C 175.390625 -160.695312 174.566406 -158.035156 172.921875 -156.390625 C 171.273438 -154.753906 168.617188 -153.9375 164.953125 -153.9375 L 84.9375 -153.9375 L 84.9375 -131.609375 L 141.46875 -131.609375 C 145.132812 -131.609375 147.789062 -130.785156 149.4375 -129.140625 C 151.082031 -127.503906 151.90625 -124.847656 151.90625 -121.171875 L 151.90625 -90.15625 C 151.90625 -86.476562 151.082031 -83.816406 149.4375 -82.171875 C 147.789062 -80.535156 145.132812 -79.71875 141.46875 -79.71875 L 84.9375 -79.71875 L 84.9375 -54.796875 L 164.953125 -54.796875 C 168.617188 -54.796875 171.273438 -53.972656 172.921875 -52.328125 C 174.566406 -50.679688 175.390625 -48.023438 175.390625 -44.359375 L 175.390625 -10.4375 C 175.390625 -6.757812 174.566406 -4.097656 172.921875 -2.453125 C 171.273438 -0.816406 168.617188 0 164.953125 0 Z M 164.953125 0 "/></g></g></g><g fill="#000000" fill-opacity="1"><g transform="translate(2064.584401, 1633.431835)"><g><path d="M 158.859375 0 L 88.125 0 C 63.96875 0 46.039062 -4.828125 34.34375 -14.484375 C 22.65625 -24.148438 16.8125 -39.035156 16.8125 -59.140625 L 16.8125 -149.296875 C 16.8125 -169.390625 22.65625 -184.316406 34.34375 -194.078125 C 46.039062 -203.835938 63.96875 -208.71875 88.125 -208.71875 L 158.859375 -208.71875 C 162.535156 -208.71875 165.191406 -207.894531 166.828125 -206.25 C 168.472656 -204.613281 169.296875 -201.957031 169.296875 -198.28125 L 169.296875 -163.203125 C 169.296875 -159.535156 168.472656 -156.878906 166.828125 -155.234375 C 165.191406 -153.585938 162.535156 -152.765625 158.859375 -152.765625 L 100.59375 -152.765625 C 94.601562 -152.765625 90.15625 -151.554688 87.25 -149.140625 C 84.351562 -146.734375 82.90625 -143.113281 82.90625 -138.28125 L 82.90625 -69.28125 C 82.90625 -64.445312 84.351562 -60.921875 87.25 -58.703125 C 90.15625 -56.484375 94.601562 -55.375 100.59375 -55.375 L 158.859375 -55.375 C 162.535156 -55.375 165.191406 -54.550781 166.828125 -52.90625 C 168.472656 -51.257812 169.296875 -48.601562 169.296875 -44.9375 L 169.296875 -10.4375 C 169.296875 -6.757812 168.472656 -4.097656 166.828125 -2.453125 C 165.191406 -0.816406 162.535156 0 158.859375 0 Z M 158.859375 0 "/></g></g></g><g fill="#000000" fill-opacity="1"><g transform="translate(2246.630675, 1633.431835)"><g><path d="M 197.703125 -54.796875 C 197.703125 -45.898438 196.394531 -37.828125 193.78125 -30.578125 C 191.175781 -23.335938 186.539062 -17.15625 179.875 -12.03125 C 173.207031 -6.90625 164.078125 -2.894531 152.484375 0 C 140.890625 2.894531 126.101562 4.34375 108.125 4.34375 C 90.15625 4.34375 75.367188 2.894531 63.765625 0 C 52.171875 -2.894531 43.039062 -6.90625 36.375 -12.03125 C 29.707031 -17.15625 25.066406 -23.335938 22.453125 -30.578125 C 19.847656 -37.828125 18.546875 -45.898438 18.546875 -54.796875 L 18.546875 -198.28125 C 18.546875 -201.957031 19.367188 -204.613281 21.015625 -206.25 C 22.660156 -207.894531 25.316406 -208.71875 28.984375 -208.71875 L 74.5 -208.71875 C 78.175781 -208.71875 80.832031 -207.894531 82.46875 -206.25 C 84.113281 -204.613281 84.9375 -201.957031 84.9375 -198.28125 L 84.9375 -66.09375 C 84.9375 -62.226562 86.382812 -58.988281 89.28125 -56.375 C 92.1875 -53.769531 98.660156 -52.46875 108.703125 -52.46875 C 118.953125 -52.46875 125.523438 -53.769531 128.421875 -56.375 C 131.316406 -58.988281 132.765625 -62.226562 132.765625 -66.09375 L 132.765625 -198.28125 C 132.765625 -201.957031 133.585938 -204.613281 135.234375 -206.25 C 136.878906 -207.894531 139.535156 -208.71875 143.203125 -208.71875 L 187.265625 -208.71875 C 190.941406 -208.71875 193.597656 -207.894531 195.234375 -206.25 C 196.878906 -204.613281 197.703125 -201.957031 197.703125 -198.28125 Z M 197.703125 -54.796875 "/></g></g></g><g fill="#000000" fill-opacity="1"><g transform="translate(2462.883092, 1633.431835)"><g><path d="M 85.515625 -156.546875 L 85.515625 -119.4375 L 107.265625 -119.4375 C 112.285156 -119.4375 115.664062 -120.738281 117.40625 -123.34375 C 119.144531 -125.957031 120.015625 -129.195312 120.015625 -133.0625 L 120.015625 -142.921875 C 120.015625 -146.785156 119.144531 -150.019531 117.40625 -152.625 C 115.664062 -155.238281 112.285156 -156.546875 107.265625 -156.546875 Z M 75.078125 0 L 30.4375 0 C 26.769531 0 24.113281 -0.816406 22.46875 -2.453125 C 20.820312 -4.097656 20 -6.757812 20 -10.4375 L 20 -198.28125 C 20 -201.957031 20.820312 -204.613281 22.46875 -206.25 C 24.113281 -207.894531 26.769531 -208.71875 30.4375 -208.71875 L 126.96875 -208.71875 C 148.613281 -208.71875 163.539062 -204.222656 171.75 -195.234375 C 179.96875 -186.253906 184.078125 -174.613281 184.078125 -160.3125 L 184.078125 -146.96875 C 184.078125 -138.851562 182.867188 -131.945312 180.453125 -126.25 C 178.035156 -120.550781 173.832031 -116.441406 167.84375 -113.921875 C 178.28125 -112.765625 186.734375 -108.515625 193.203125 -101.171875 C 199.679688 -93.828125 202.921875 -84.066406 202.921875 -71.890625 L 202.921875 -10.4375 C 202.921875 -6.757812 202.097656 -4.097656 200.453125 -2.453125 C 198.816406 -0.816406 196.160156 0 192.484375 0 L 147.546875 0 C 143.878906 0 141.222656 -0.816406 139.578125 -2.453125 C 137.941406 -4.097656 137.125 -6.757812 137.125 -10.4375 L 137.125 -54.796875 C 137.125 -59.046875 136.300781 -62.179688 134.65625 -64.203125 C 133.007812 -66.234375 130.160156 -67.25 126.109375 -67.25 L 85.515625 -67.25 L 85.515625 -10.4375 C 85.515625 -6.757812 84.691406 -4.097656 83.046875 -2.453125 C 81.410156 -0.816406 78.753906 0 75.078125 0 Z M 75.078125 0 "/></g></g></g><g fill="#000000" fill-opacity="1"><g transform="translate(2678.265958, 1633.431835)"><g><path d="M 25.796875 0 C 22.128906 0 19.472656 -0.816406 17.828125 -2.453125 C 16.179688 -4.097656 15.359375 -6.757812 15.359375 -10.4375 L 15.359375 -44.9375 C 15.359375 -48.601562 16.179688 -51.257812 17.828125 -52.90625 C 19.472656 -54.550781 22.128906 -55.375 25.796875 -55.375 L 54.5 -55.375 L 54.5 -152.765625 L 25.796875 -152.765625 C 22.128906 -152.765625 19.472656 -153.585938 17.828125 -155.234375 C 16.179688 -156.878906 15.359375 -159.535156 15.359375 -163.203125 L 15.359375 -198.28125 C 15.359375 -201.957031 16.179688 -204.613281 17.828125 -206.25 C 19.472656 -207.894531 22.128906 -208.71875 25.796875 -208.71875 L 149.296875 -208.71875 C 152.960938 -208.71875 155.617188 -207.894531 157.265625 -206.25 C 158.910156 -204.613281 159.734375 -201.957031 159.734375 -198.28125 L 159.734375 -163.203125 C 159.734375 -159.535156 158.910156 -156.878906 157.265625 -155.234375 C 155.617188 -153.585938 152.960938 -152.765625 149.296875 -152.765625 L 121.171875 -152.765625 L 121.171875 -55.375 L 149.296875 -55.375 C 152.960938 -55.375 155.617188 -54.550781 157.265625 -52.90625 C 158.910156 -51.257812 159.734375 -48.601562 159.734375 -44.9375 L 159.734375 -10.4375 C 159.734375 -6.757812 158.910156 -4.097656 157.265625 -2.453125 C 155.617188 -0.816406 152.960938 0 149.296875 0 Z M 25.796875 0 "/></g></g></g><g fill="#000000" fill-opacity="1"><g transform="translate(2853.645009, 1633.431835)"><g><path d="M 118.5625 0 L 71.609375 0 C 67.929688 0 65.269531 -0.816406 63.625 -2.453125 C 61.988281 -4.097656 61.171875 -6.757812 61.171875 -10.4375 L 61.171875 -152.765625 L 18.546875 -152.765625 C 14.878906 -152.765625 12.222656 -153.585938 10.578125 -155.234375 C 8.929688 -156.878906 8.109375 -159.535156 8.109375 -163.203125 L 8.109375 -198.28125 C 8.109375 -201.957031 8.929688 -204.613281 10.578125 -206.25 C 12.222656 -207.894531 14.878906 -208.71875 18.546875 -208.71875 L 171.609375 -208.71875 C 175.285156 -208.71875 177.941406 -207.894531 179.578125 -206.25 C 181.222656 -204.613281 182.046875 -201.957031 182.046875 -198.28125 L 182.046875 -163.203125 C 182.046875 -159.535156 181.222656 -156.878906 179.578125 -155.234375 C 177.941406 -153.585938 175.285156 -152.765625 171.609375 -152.765625 L 129 -152.765625 L 129 -10.4375 C 129 -6.757812 128.175781 -4.097656 126.53125 -2.453125 C 124.894531 -0.816406 122.238281 0 118.5625 0 Z M 118.5625 0 "/></g></g></g><g fill="#000000" fill-opacity="1"><g transform="translate(3043.808056, 1633.431835)"><g><path d="M 125.8125 0 L 78.84375 0 C 75.175781 0 72.519531 -0.816406 70.875 -2.453125 C 69.238281 -4.097656 68.421875 -6.757812 68.421875 -10.4375 L 68.421875 -47.546875 L 24.0625 -106.96875 C 19.613281 -112.957031 16.664062 -118.175781 15.21875 -122.625 C 13.769531 -127.070312 13.046875 -133.738281 13.046875 -142.625 L 13.046875 -198.28125 C 13.046875 -201.957031 13.863281 -204.613281 15.5 -206.25 C 17.144531 -207.894531 19.804688 -208.71875 23.484375 -208.71875 L 68.125 -208.71875 C 71.789062 -208.71875 74.445312 -207.894531 76.09375 -206.25 C 77.738281 -204.613281 78.5625 -201.957031 78.5625 -198.28125 L 78.5625 -150.75 C 78.5625 -148.8125 78.65625 -146.78125 78.84375 -144.65625 C 79.039062 -142.53125 79.816406 -140.5 81.171875 -138.5625 L 94.5 -117.703125 C 95.46875 -115.960938 96.484375 -114.703125 97.546875 -113.921875 C 98.609375 -113.148438 99.914062 -112.765625 101.46875 -112.765625 L 104.359375 -112.765625 C 105.910156 -112.765625 107.21875 -113.148438 108.28125 -113.921875 C 109.34375 -114.703125 110.351562 -115.960938 111.3125 -117.703125 L 124.65625 -138.5625 C 126.007812 -140.5 126.78125 -142.53125 126.96875 -144.65625 C 127.164062 -146.78125 127.265625 -148.8125 127.265625 -150.75 L 127.265625 -198.28125 C 127.265625 -201.957031 128.082031 -204.613281 129.71875 -206.25 C 131.363281 -207.894531 134.023438 -208.71875 137.703125 -208.71875 L 180.890625 -208.71875 C 184.566406 -208.71875 187.222656 -207.894531 188.859375 -206.25 C 190.503906 -204.613281 191.328125 -201.957031 191.328125 -198.28125 L 191.328125 -142.625 C 191.328125 -133.738281 190.550781 -127.070312 189 -122.625 C 187.457031 -118.175781 184.5625 -112.957031 180.3125 -106.96875 L 136.25 -47.25 L 136.25 -10.4375 C 136.25 -6.757812 135.425781 -4.097656 133.78125 -2.453125 C 132.144531 -0.816406 129.488281 0 125.8125 0 Z M 125.8125 0 "/></g></g></g><g fill="#737373" fill-opacity="1"><g transform="translate(3248.178039, 1633.431835)"><g/></g></g><g fill="#ffde59" fill-opacity="1"><g transform="translate(3313.402872, 1633.431835)"><g><path d="M 75.375 0 L 30.4375 0 C 26.769531 0 24.113281 -0.816406 22.46875 -2.453125 C 20.820312 -4.097656 20 -6.757812 20 -10.4375 L 20 -198.28125 C 20 -201.957031 20.820312 -204.613281 22.46875 -206.25 C 24.113281 -207.894531 26.769531 -208.71875 30.4375 -208.71875 L 119.140625 -208.71875 C 145.421875 -208.71875 163.394531 -203.5 173.0625 -193.0625 C 182.726562 -182.625 187.5625 -169 187.5625 -152.1875 L 187.5625 -115.09375 C 187.5625 -98.269531 182.726562 -84.640625 173.0625 -74.203125 C 163.394531 -63.773438 145.421875 -58.5625 119.140625 -58.5625 L 85.8125 -58.5625 L 85.8125 -10.4375 C 85.8125 -6.757812 84.988281 -4.097656 83.34375 -2.453125 C 81.695312 -0.816406 79.039062 0 75.375 0 Z M 85.234375 -154.515625 L 85.234375 -110.734375 L 111.3125 -110.734375 C 116.914062 -110.734375 120.585938 -112.179688 122.328125 -115.078125 C 124.066406 -117.984375 124.9375 -121.269531 124.9375 -124.9375 L 124.9375 -140.3125 C 124.9375 -143.976562 124.066406 -147.257812 122.328125 -150.15625 C 120.585938 -153.0625 116.914062 -154.515625 111.3125 -154.515625 Z M 85.234375 -154.515625 "/></g></g></g><g fill="#ffde59" fill-opacity="1"><g transform="translate(3511.102813, 1633.431835)"><g><path d="M 196.828125 -54.796875 C 196.828125 -45.898438 195.523438 -37.828125 192.921875 -30.578125 C 190.316406 -23.335938 185.675781 -17.15625 179 -12.03125 C 172.332031 -6.90625 163.148438 -2.894531 151.453125 0 C 139.765625 2.894531 124.9375 4.34375 106.96875 4.34375 C 89 4.34375 74.117188 2.894531 62.328125 0 C 50.535156 -2.894531 41.304688 -6.90625 34.640625 -12.03125 C 27.972656 -17.15625 23.332031 -23.335938 20.71875 -30.578125 C 18.113281 -37.828125 16.8125 -45.898438 16.8125 -54.796875 L 16.8125 -153.640625 C 16.8125 -162.535156 18.113281 -170.601562 20.71875 -177.84375 C 23.332031 -185.09375 27.972656 -191.328125 34.640625 -196.546875 C 41.304688 -201.765625 50.535156 -205.820312 62.328125 -208.71875 C 74.117188 -211.613281 89 -213.0625 106.96875 -213.0625 C 124.9375 -213.0625 139.765625 -211.613281 151.453125 -208.71875 C 163.148438 -205.820312 172.332031 -201.765625 179 -196.546875 C 185.675781 -191.328125 190.316406 -185.09375 192.921875 -177.84375 C 195.523438 -170.601562 196.828125 -162.535156 196.828125 -153.640625 Z M 82.625 -65.21875 C 82.625 -61.351562 84.070312 -58.113281 86.96875 -55.5 C 89.863281 -52.894531 96.53125 -51.59375 106.96875 -51.59375 C 117.40625 -51.59375 124.070312 -52.894531 126.96875 -55.5 C 129.875 -58.113281 131.328125 -61.351562 131.328125 -65.21875 L 131.328125 -143.203125 C 131.328125 -146.878906 129.875 -150.019531 126.96875 -152.625 C 124.070312 -155.238281 117.40625 -156.546875 106.96875 -156.546875 C 96.53125 -156.546875 89.863281 -155.238281 86.96875 -152.625 C 84.070312 -150.019531 82.625 -146.878906 82.625 -143.203125 Z M 82.625 -65.21875 "/></g></g></g><g fill="#ffde59" fill-opacity="1"><g transform="translate(3724.746328, 1633.431835)"><g><path d="M 178 0 L 30.4375 0 C 26.769531 0 24.113281 -0.816406 22.46875 -2.453125 C 20.820312 -4.097656 20 -6.757812 20 -10.4375 L 20 -198.28125 C 20 -201.957031 20.820312 -204.613281 22.46875 -206.25 C 24.113281 -207.894531 26.769531 -208.71875 30.4375 -208.71875 L 75.375 -208.71875 C 79.039062 -208.71875 81.695312 -207.894531 83.34375 -206.25 C 84.988281 -204.613281 85.8125 -201.957031 85.8125 -198.28125 L 85.8125 -54.796875 L 125.515625 -54.796875 L 125.515625 -101.75 C 125.515625 -105.425781 126.335938 -108.082031 127.984375 -109.71875 C 129.628906 -111.363281 132.285156 -112.1875 135.953125 -112.1875 L 178 -112.1875 C 181.664062 -112.1875 184.316406 -111.363281 185.953125 -109.71875 C 187.597656 -108.082031 188.421875 -105.425781 188.421875 -101.75 L 188.421875 -10.4375 C 188.421875 -6.757812 187.597656 -4.097656 185.953125 -2.453125 C 184.316406 -0.816406 181.664062 0 178 0 Z M 178 0 "/></g></g></g><g fill="#ffde59" fill-opacity="1"><g transform="translate(3926.21475, 1633.431835)"><g><path d="M 25.796875 0 C 22.128906 0 19.472656 -0.816406 17.828125 -2.453125 C 16.179688 -4.097656 15.359375 -6.757812 15.359375 -10.4375 L 15.359375 -44.9375 C 15.359375 -48.601562 16.179688 -51.257812 17.828125 -52.90625 C 19.472656 -54.550781 22.128906 -55.375 25.796875 -55.375 L 54.5 -55.375 L 54.5 -152.765625 L 25.796875 -152.765625 C 22.128906 -152.765625 19.472656 -153.585938 17.828125 -155.234375 C 16.179688 -156.878906 15.359375 -159.535156 15.359375 -163.203125 L 15.359375 -198.28125 C 15.359375 -201.957031 16.179688 -204.613281 17.828125 -206.25 C 19.472656 -207.894531 22.128906 -208.71875 25.796875 -208.71875 L 149.296875 -208.71875 C 152.960938 -208.71875 155.617188 -207.894531 157.265625 -206.25 C 158.910156 -204.613281 159.734375 -201.957031 159.734375 -198.28125 L 159.734375 -163.203125 C 159.734375 -159.535156 158.910156 -156.878906 157.265625 -155.234375 C 155.617188 -153.585938 152.960938 -152.765625 149.296875 -152.765625 L 121.171875 -152.765625 L 121.171875 -55.375 L 149.296875 -55.375 C 152.960938 -55.375 155.617188 -54.550781 157.265625 -52.90625 C 158.910156 -51.257812 159.734375 -48.601562 159.734375 -44.9375 L 159.734375 -10.4375 C 159.734375 -6.757812 158.910156 -4.097656 157.265625 -2.453125 C 155.617188 -0.816406 152.960938 0 149.296875 0 Z M 25.796875 0 "/></g></g></g><g fill="#ffde59" fill-opacity="1"><g transform="translate(4101.593749, 1633.431835)"><g><path d="M 158.859375 0 L 88.125 0 C 63.96875 0 46.039062 -4.828125 34.34375 -14.484375 C 22.65625 -24.148438 16.8125 -39.035156 16.8125 -59.140625 L 16.8125 -149.296875 C 16.8125 -169.390625 22.65625 -184.316406 34.34375 -194.078125 C 46.039062 -203.835938 63.96875 -208.71875 88.125 -208.71875 L 158.859375 -208.71875 C 162.535156 -208.71875 165.191406 -207.894531 166.828125 -206.25 C 168.472656 -204.613281 169.296875 -201.957031 169.296875 -198.28125 L 169.296875 -163.203125 C 169.296875 -159.535156 168.472656 -156.878906 166.828125 -155.234375 C 165.191406 -153.585938 162.535156 -152.765625 158.859375 -152.765625 L 100.59375 -152.765625 C 94.601562 -152.765625 90.15625 -151.554688 87.25 -149.140625 C 84.351562 -146.734375 82.90625 -143.113281 82.90625 -138.28125 L 82.90625 -69.28125 C 82.90625 -64.445312 84.351562 -60.921875 87.25 -58.703125 C 90.15625 -56.484375 94.601562 -55.375 100.59375 -55.375 L 158.859375 -55.375 C 162.535156 -55.375 165.191406 -54.550781 166.828125 -52.90625 C 168.472656 -51.257812 169.296875 -48.601562 169.296875 -44.9375 L 169.296875 -10.4375 C 169.296875 -6.757812 168.472656 -4.097656 166.828125 -2.453125 C 165.191406 -0.816406 162.535156 0 158.859375 0 Z M 158.859375 0 "/></g></g></g><g fill="#ffde59" fill-opacity="1"><g transform="translate(4283.640022, 1633.431835)"><g><path d="M 125.8125 0 L 78.84375 0 C 75.175781 0 72.519531 -0.816406 70.875 -2.453125 C 69.238281 -4.097656 68.421875 -6.757812 68.421875 -10.4375 L 68.421875 -47.546875 L 24.0625 -106.96875 C 19.613281 -112.957031 16.664062 -118.175781 15.21875 -122.625 C 13.769531 -127.070312 13.046875 -133.738281 13.046875 -142.625 L 13.046875 -198.28125 C 13.046875 -201.957031 13.863281 -204.613281 15.5 -206.25 C 17.144531 -207.894531 19.804688 -208.71875 23.484375 -208.71875 L 68.125 -208.71875 C 71.789062 -208.71875 74.445312 -207.894531 76.09375 -206.25 C 77.738281 -204.613281 78.5625 -201.957031 78.5625 -198.28125 L 78.5625 -150.75 C 78.5625 -148.8125 78.65625 -146.78125 78.84375 -144.65625 C 79.039062 -142.53125 79.816406 -140.5 81.171875 -138.5625 L 94.5 -117.703125 C 95.46875 -115.960938 96.484375 -114.703125 97.546875 -113.921875 C 98.609375 -113.148438 99.914062 -112.765625 101.46875 -112.765625 L 104.359375 -112.765625 C 105.910156 -112.765625 107.21875 -113.148438 108.28125 -113.921875 C 109.34375 -114.703125 110.351562 -115.960938 111.3125 -117.703125 L 124.65625 -138.5625 C 126.007812 -140.5 126.78125 -142.53125 126.96875 -144.65625 C 127.164062 -146.78125 127.265625 -148.8125 127.265625 -150.75 L 127.265625 -198.28125 C 127.265625 -201.957031 128.082031 -204.613281 129.71875 -206.25 C 131.363281 -207.894531 134.023438 -208.71875 137.703125 -208.71875 L 180.890625 -208.71875 C 184.566406 -208.71875 187.222656 -207.894531 188.859375 -206.25 C 190.503906 -204.613281 191.328125 -201.957031 191.328125 -198.28125 L 191.328125 -142.625 C 191.328125 -133.738281 190.550781 -127.070312 189 -122.625 C 187.457031 -118.175781 184.5625 -112.957031 180.3125 -106.96875 L 136.25 -47.25 L 136.25 -10.4375 C 136.25 -6.757812 135.425781 -4.097656 133.78125 -2.453125 C 132.144531 -0.816406 129.488281 0 125.8125 0 Z M 125.8125 0 "/></g></g></g></svg>