<svg xmlns="http://www.w3.org/2000/svg" xmlns:xlink="http://www.w3.org/1999/xlink" width="6912" zoomAndPan="magnify" viewBox="0 0 5184 2592.000001" height="3456" preserveAspectRatio="xMidYMid meet" version="1.0"><defs><g/><clipPath id="0c87c62f7b"><path d="M 271 777.300781 L 803 777.300781 L 803 1525 L 271 1525 Z M 271 777.300781 " clip-rule="nonzero"/></clipPath><clipPath id="e0ecfabbde"><path d="M 615 1066 L 1147 1066 L 1147 1813.398438 L 615 1813.398438 Z M 615 1066 " clip-rule="nonzero"/></clipPath></defs><g clip-path="url(#0c87c62f7b)"><path fill="#ffde59" d="M 337.753906 1237.5 C 353.160156 1139.546875 405.789062 1053.460938 485.949219 995.101562 C 545.539062 951.714844 615.039062 927.53125 687.023438 924.300781 L 638.722656 972.601562 L 682.699219 1016.582031 L 802.386719 896.902344 L 682.710938 777.230469 L 638.730469 821.207031 L 679.894531 862.371094 C 597.347656 866.886719 517.75 895.011719 449.34375 944.820312 C 355.75 1012.957031 294.300781 1113.472656 276.3125 1227.839844 C 260.148438 1330.664062 281.5 1435.894531 336.441406 1524.140625 L 389.242188 1491.269531 C 342.195312 1415.695312 323.910156 1325.574219 337.753906 1237.5 Z M 337.753906 1237.5 " fill-opacity="1" fill-rule="nonzero"/></g><path fill="#ffde59" d="M 428.214844 1543.199219 L 381.902344 1584.714844 C 405.597656 1611.144531 432.46875 1634.601562 461.769531 1654.425781 L 496.625 1602.914062 C 471.535156 1585.9375 448.515625 1565.847656 428.214844 1543.199219 Z M 428.214844 1543.199219 " fill-opacity="1" fill-rule="nonzero"/><g clip-path="url(#e0ecfabbde)"><path fill="#ffde59" d="M 1081.328125 1066.644531 L 1028.527344 1099.515625 C 1075.574219 1175.085938 1093.863281 1265.210938 1080.011719 1353.28125 C 1064.609375 1451.234375 1011.980469 1537.324219 931.820312 1595.683594 C 872.234375 1639.066406 802.730469 1663.246094 730.746094 1666.480469 L 779.046875 1618.183594 L 735.066406 1574.203125 L 615.382812 1693.886719 L 735.058594 1813.554688 L 779.039062 1769.578125 L 737.890625 1728.429688 C 820.425781 1723.90625 900.023438 1695.765625 968.425781 1645.96875 C 1062.019531 1577.828125 1123.46875 1477.3125 1141.457031 1362.945312 C 1157.621094 1260.121094 1136.265625 1154.890625 1081.328125 1066.644531 Z M 1081.328125 1066.644531 " fill-opacity="1" fill-rule="nonzero"/></g><path fill="#ffde59" d="M 989.554688 1047.585938 L 1035.867188 1006.070312 C 1012.171875 979.640625 985.300781 956.1875 956 936.359375 L 921.144531 987.871094 C 946.234375 1004.847656 969.253906 1024.941406 989.554688 1047.585938 Z M 989.554688 1047.585938 " fill-opacity="1" fill-rule="nonzero"/><path fill="#ffde59" d="M 948.265625 1295.984375 C 948.265625 1161.339844 839.121094 1052.195312 704.472656 1052.195312 C 569.828125 1052.195312 460.683594 1161.339844 460.683594 1295.984375 C 460.683594 1430.628906 569.828125 1539.777344 704.472656 1539.777344 C 839.121094 1539.777344 948.265625 1430.628906 948.265625 1295.984375 Z M 583.210938 1391.894531 L 616.28125 1343.945312 C 635.570312 1365.4375 679.667969 1381.425781 709.984375 1381.972656 C 735.339844 1382.523438 759.039062 1369.300781 759.039062 1349.453125 C 759.039062 1330.710938 743.609375 1322.992188 705.023438 1320.792969 C 653.761719 1316.933594 592.578125 1298.195312 592.578125 1236.457031 C 592.578125 1186.652344 633.449219 1162.492188 675.101562 1154.601562 L 675.101562 1116.808594 L 733.847656 1116.808594 L 733.847656 1152.929688 C 763.714844 1156.1875 788.566406 1165.917969 813.058594 1187.40625 L 775.574219 1231.503906 C 756.285156 1213.3125 734.242188 1207.242188 708.328125 1207.242188 C 676.359375 1207.242188 658.722656 1217.167969 658.722656 1234.257812 C 658.722656 1251.894531 674.707031 1261.8125 709.433594 1264.023438 C 760.695312 1267.328125 825.738281 1278.898438 825.738281 1351.105469 C 825.738281 1393.617188 794.960938 1430.902344 733.847656 1438.824219 L 733.847656 1475.167969 L 675.101562 1475.167969 L 675.101562 1438.417969 C 643.554688 1434.273438 612.484375 1422.390625 583.210938 1391.894531 Z M 583.210938 1391.894531 " fill-opacity="1" fill-rule="nonzero"/><g fill="#231f20" fill-opacity="1"><g transform="translate(1876.01994, 1227.838378)"><g><path d="M 118.5625 0 L 71.609375 0 C 67.929688 0 65.269531 -0.816406 63.625 -2.453125 C 61.988281 -4.097656 61.171875 -6.757812 61.171875 -10.4375 L 61.171875 -152.765625 L 18.546875 -152.765625 C 14.878906 -152.765625 12.222656 -153.585938 10.578125 -155.234375 C 8.929688 -156.878906 8.109375 -159.535156 8.109375 -163.203125 L 8.109375 -198.28125 C 8.109375 -201.957031 8.929688 -204.613281 10.578125 -206.25 C 12.222656 -207.894531 14.878906 -208.71875 18.546875 -208.71875 L 171.609375 -208.71875 C 175.285156 -208.71875 177.941406 -207.894531 179.578125 -206.25 C 181.222656 -204.613281 182.046875 -201.957031 182.046875 -198.28125 L 182.046875 -163.203125 C 182.046875 -159.535156 181.222656 -156.878906 179.578125 -155.234375 C 177.941406 -153.585938 175.285156 -152.765625 171.609375 -152.765625 L 129 -152.765625 L 129 -10.4375 C 129 -6.757812 128.175781 -4.097656 126.53125 -2.453125 C 124.894531 -0.816406 122.238281 0 118.5625 0 Z M 118.5625 0 "/></g></g></g><g fill="#231f20" fill-opacity="1"><g transform="translate(2066.182987, 1227.838378)"><g><path d="M 85.515625 -156.546875 L 85.515625 -119.4375 L 107.265625 -119.4375 C 112.285156 -119.4375 115.664062 -120.738281 117.40625 -123.34375 C 119.144531 -125.957031 120.015625 -129.195312 120.015625 -133.0625 L 120.015625 -142.921875 C 120.015625 -146.785156 119.144531 -150.019531 117.40625 -152.625 C 115.664062 -155.238281 112.285156 -156.546875 107.265625 -156.546875 Z M 75.078125 0 L 30.4375 0 C 26.769531 0 24.113281 -0.816406 22.46875 -2.453125 C 20.820312 -4.097656 20 -6.757812 20 -10.4375 L 20 -198.28125 C 20 -201.957031 20.820312 -204.613281 22.46875 -206.25 C 24.113281 -207.894531 26.769531 -208.71875 30.4375 -208.71875 L 126.96875 -208.71875 C 148.613281 -208.71875 163.539062 -204.222656 171.75 -195.234375 C 179.96875 -186.253906 184.078125 -174.613281 184.078125 -160.3125 L 184.078125 -146.96875 C 184.078125 -138.851562 182.867188 -131.945312 180.453125 -126.25 C 178.035156 -120.550781 173.832031 -116.441406 167.84375 -113.921875 C 178.28125 -112.765625 186.734375 -108.515625 193.203125 -101.171875 C 199.679688 -93.828125 202.921875 -84.066406 202.921875 -71.890625 L 202.921875 -10.4375 C 202.921875 -6.757812 202.097656 -4.097656 200.453125 -2.453125 C 198.816406 -0.816406 196.160156 0 192.484375 0 L 147.546875 0 C 143.878906 0 141.222656 -0.816406 139.578125 -2.453125 C 137.941406 -4.097656 137.125 -6.757812 137.125 -10.4375 L 137.125 -54.796875 C 137.125 -59.046875 136.300781 -62.179688 134.65625 -64.203125 C 133.007812 -66.234375 130.160156 -67.25 126.109375 -67.25 L 85.515625 -67.25 L 85.515625 -10.4375 C 85.515625 -6.757812 84.691406 -4.097656 83.046875 -2.453125 C 81.410156 -0.816406 78.753906 0 75.078125 0 Z M 75.078125 0 "/></g></g></g><g fill="#231f20" fill-opacity="1"><g transform="translate(2281.565853, 1227.838378)"><g><path d="M 95.65625 -147.84375 L 82.03125 -103.78125 L 127.546875 -103.78125 L 113.921875 -147.84375 C 113.148438 -149.582031 112.328125 -150.835938 111.453125 -151.609375 C 110.585938 -152.378906 109.578125 -152.765625 108.421875 -152.765625 L 101.171875 -152.765625 C 100.015625 -152.765625 99 -152.378906 98.125 -151.609375 C 97.257812 -150.835938 96.4375 -149.582031 95.65625 -147.84375 Z M 79.140625 -10.4375 C 79.140625 -6.757812 78.316406 -4.097656 76.671875 -2.453125 C 75.035156 -0.816406 72.378906 0 68.703125 0 L 26.09375 0 C 22.414062 0 19.753906 -0.816406 18.109375 -2.453125 C 16.472656 -4.097656 15.65625 -6.757812 15.65625 -10.4375 L 15.65625 -86.96875 C 15.65625 -92.757812 16.570312 -99.425781 18.40625 -106.96875 C 20.238281 -114.507812 23.085938 -123.300781 26.953125 -133.34375 L 52.1875 -199.15625 C 53.34375 -202.4375 55.128906 -204.847656 57.546875 -206.390625 C 59.960938 -207.941406 63.101562 -208.71875 66.96875 -208.71875 L 144.9375 -208.71875 C 148.613281 -208.71875 151.660156 -207.941406 154.078125 -206.390625 C 156.492188 -204.847656 158.28125 -202.4375 159.4375 -199.15625 L 184.65625 -133.34375 C 188.519531 -123.300781 191.367188 -114.507812 193.203125 -106.96875 C 195.046875 -99.425781 195.96875 -92.757812 195.96875 -86.96875 L 195.96875 -10.4375 C 195.96875 -6.757812 195.144531 -4.097656 193.5 -2.453125 C 191.851562 -0.816406 189.195312 0 185.53125 0 L 141.75 0 C 137.882812 0 135.035156 -0.816406 133.203125 -2.453125 C 131.367188 -4.097656 130.453125 -6.757812 130.453125 -10.4375 L 130.453125 -51.015625 L 79.140625 -51.015625 Z M 79.140625 -10.4375 "/></g></g></g><g fill="#231f20" fill-opacity="1"><g transform="translate(2493.180215, 1227.838378)"><g><path d="M 73.921875 0 L 30.4375 0 C 26.769531 0 24.113281 -0.816406 22.46875 -2.453125 C 20.820312 -4.097656 20 -6.757812 20 -10.4375 L 20 -198.28125 C 20 -201.957031 20.820312 -204.613281 22.46875 -206.25 C 24.113281 -207.894531 26.769531 -208.71875 30.4375 -208.71875 L 60.59375 -208.71875 C 64.257812 -208.71875 67.394531 -208.140625 70 -206.984375 C 72.613281 -205.828125 75.175781 -203.796875 77.6875 -200.890625 L 133.921875 -136.53125 L 133.921875 -198.28125 C 133.921875 -201.957031 134.742188 -204.613281 136.390625 -206.25 C 138.035156 -207.894531 140.691406 -208.71875 144.359375 -208.71875 L 187.84375 -208.71875 C 191.519531 -208.71875 194.175781 -207.894531 195.8125 -206.25 C 197.457031 -204.613281 198.28125 -201.957031 198.28125 -198.28125 L 198.28125 -10.4375 C 198.28125 -6.757812 197.457031 -4.097656 195.8125 -2.453125 C 194.175781 -0.816406 191.519531 0 187.84375 0 L 144.359375 0 C 140.691406 0 138.035156 -0.816406 136.390625 -2.453125 C 134.742188 -4.097656 133.921875 -6.757812 133.921875 -10.4375 L 133.921875 -46.09375 L 84.359375 -106.09375 L 84.359375 -10.4375 C 84.359375 -6.757812 83.535156 -4.097656 81.890625 -2.453125 C 80.253906 -0.816406 77.597656 0 73.921875 0 Z M 73.921875 0 "/></g></g></g><g fill="#231f20" fill-opacity="1"><g transform="translate(2711.461897, 1227.838378)"><g><path d="M 116.828125 0 L 25.21875 0 C 21.550781 0 18.894531 -0.816406 17.25 -2.453125 C 15.601562 -4.097656 14.78125 -6.757812 14.78125 -10.4375 L 14.78125 -44.359375 C 14.78125 -48.023438 15.601562 -50.679688 17.25 -52.328125 C 18.894531 -53.972656 21.550781 -54.796875 25.21875 -54.796875 L 103.203125 -54.796875 C 105.710938 -54.796875 107.59375 -55.613281 108.84375 -57.25 C 110.101562 -58.894531 110.734375 -60.878906 110.734375 -63.203125 C 110.734375 -66.484375 110.101562 -68.894531 108.84375 -70.4375 C 107.59375 -71.988281 105.710938 -72.859375 103.203125 -73.046875 L 59.71875 -79.140625 C 46.1875 -81.066406 35.3125 -85.507812 27.09375 -92.46875 C 18.882812 -99.425781 14.78125 -111.023438 14.78125 -127.265625 L 14.78125 -157.703125 C 14.78125 -174.128906 20.09375 -186.738281 30.71875 -195.53125 C 41.351562 -204.320312 56.046875 -208.71875 74.796875 -208.71875 L 155.96875 -208.71875 C 159.632812 -208.71875 162.285156 -207.894531 163.921875 -206.25 C 165.566406 -204.613281 166.390625 -201.957031 166.390625 -198.28125 L 166.390625 -163.78125 C 166.390625 -160.113281 165.566406 -157.457031 163.921875 -155.8125 C 162.285156 -154.175781 159.632812 -153.359375 155.96875 -153.359375 L 88.421875 -153.359375 C 85.898438 -153.359375 83.960938 -152.535156 82.609375 -150.890625 C 81.265625 -149.242188 80.59375 -147.164062 80.59375 -144.65625 C 80.59375 -142.144531 81.265625 -140.019531 82.609375 -138.28125 C 83.960938 -136.539062 85.898438 -135.570312 88.421875 -135.375 L 131.609375 -129.578125 C 145.140625 -127.648438 156.054688 -123.207031 164.359375 -116.25 C 172.671875 -109.289062 176.828125 -97.691406 176.828125 -81.453125 L 176.828125 -51.015625 C 176.828125 -34.585938 171.460938 -21.976562 160.734375 -13.1875 C 150.015625 -4.394531 135.378906 0 116.828125 0 Z M 116.828125 0 "/></g></g></g><g fill="#231f20" fill-opacity="1"><g transform="translate(2899.885653, 1227.838378)"><g><path d="M 95.65625 -147.84375 L 82.03125 -103.78125 L 127.546875 -103.78125 L 113.921875 -147.84375 C 113.148438 -149.582031 112.328125 -150.835938 111.453125 -151.609375 C 110.585938 -152.378906 109.578125 -152.765625 108.421875 -152.765625 L 101.171875 -152.765625 C 100.015625 -152.765625 99 -152.378906 98.125 -151.609375 C 97.257812 -150.835938 96.4375 -149.582031 95.65625 -147.84375 Z M 79.140625 -10.4375 C 79.140625 -6.757812 78.316406 -4.097656 76.671875 -2.453125 C 75.035156 -0.816406 72.378906 0 68.703125 0 L 26.09375 0 C 22.414062 0 19.753906 -0.816406 18.109375 -2.453125 C 16.472656 -4.097656 15.65625 -6.757812 15.65625 -10.4375 L 15.65625 -86.96875 C 15.65625 -92.757812 16.570312 -99.425781 18.40625 -106.96875 C 20.238281 -114.507812 23.085938 -123.300781 26.953125 -133.34375 L 52.1875 -199.15625 C 53.34375 -202.4375 55.128906 -204.847656 57.546875 -206.390625 C 59.960938 -207.941406 63.101562 -208.71875 66.96875 -208.71875 L 144.9375 -208.71875 C 148.613281 -208.71875 151.660156 -207.941406 154.078125 -206.390625 C 156.492188 -204.847656 158.28125 -202.4375 159.4375 -199.15625 L 184.65625 -133.34375 C 188.519531 -123.300781 191.367188 -114.507812 193.203125 -106.96875 C 195.046875 -99.425781 195.96875 -92.757812 195.96875 -86.96875 L 195.96875 -10.4375 C 195.96875 -6.757812 195.144531 -4.097656 193.5 -2.453125 C 191.851562 -0.816406 189.195312 0 185.53125 0 L 141.75 0 C 137.882812 0 135.035156 -0.816406 133.203125 -2.453125 C 131.367188 -4.097656 130.453125 -6.757812 130.453125 -10.4375 L 130.453125 -51.015625 L 79.140625 -51.015625 Z M 79.140625 -10.4375 "/></g></g></g><g fill="#231f20" fill-opacity="1"><g transform="translate(3111.500015, 1227.838378)"><g><path d="M 158.859375 0 L 88.125 0 C 63.96875 0 46.039062 -4.828125 34.34375 -14.484375 C 22.65625 -24.148438 16.8125 -39.035156 16.8125 -59.140625 L 16.8125 -149.296875 C 16.8125 -169.390625 22.65625 -184.316406 34.34375 -194.078125 C 46.039062 -203.835938 63.96875 -208.71875 88.125 -208.71875 L 158.859375 -208.71875 C 162.535156 -208.71875 165.191406 -207.894531 166.828125 -206.25 C 168.472656 -204.613281 169.296875 -201.957031 169.296875 -198.28125 L 169.296875 -163.203125 C 169.296875 -159.535156 168.472656 -156.878906 166.828125 -155.234375 C 165.191406 -153.585938 162.535156 -152.765625 158.859375 -152.765625 L 100.59375 -152.765625 C 94.601562 -152.765625 90.15625 -151.554688 87.25 -149.140625 C 84.351562 -146.734375 82.90625 -143.113281 82.90625 -138.28125 L 82.90625 -69.28125 C 82.90625 -64.445312 84.351562 -60.921875 87.25 -58.703125 C 90.15625 -56.484375 94.601562 -55.375 100.59375 -55.375 L 158.859375 -55.375 C 162.535156 -55.375 165.191406 -54.550781 166.828125 -52.90625 C 168.472656 -51.257812 169.296875 -48.601562 169.296875 -44.9375 L 169.296875 -10.4375 C 169.296875 -6.757812 168.472656 -4.097656 166.828125 -2.453125 C 165.191406 -0.816406 162.535156 0 158.859375 0 Z M 158.859375 0 "/></g></g></g><g fill="#231f20" fill-opacity="1"><g transform="translate(3293.546289, 1227.838378)"><g><path d="M 118.5625 0 L 71.609375 0 C 67.929688 0 65.269531 -0.816406 63.625 -2.453125 C 61.988281 -4.097656 61.171875 -6.757812 61.171875 -10.4375 L 61.171875 -152.765625 L 18.546875 -152.765625 C 14.878906 -152.765625 12.222656 -153.585938 10.578125 -155.234375 C 8.929688 -156.878906 8.109375 -159.535156 8.109375 -163.203125 L 8.109375 -198.28125 C 8.109375 -201.957031 8.929688 -204.613281 10.578125 -206.25 C 12.222656 -207.894531 14.878906 -208.71875 18.546875 -208.71875 L 171.609375 -208.71875 C 175.285156 -208.71875 177.941406 -207.894531 179.578125 -206.25 C 181.222656 -204.613281 182.046875 -201.957031 182.046875 -198.28125 L 182.046875 -163.203125 C 182.046875 -159.535156 181.222656 -156.878906 179.578125 -155.234375 C 177.941406 -153.585938 175.285156 -152.765625 171.609375 -152.765625 L 129 -152.765625 L 129 -10.4375 C 129 -6.757812 128.175781 -4.097656 126.53125 -2.453125 C 124.894531 -0.816406 122.238281 0 118.5625 0 Z M 118.5625 0 "/></g></g></g><g fill="#231f20" fill-opacity="1"><g transform="translate(3483.709425, 1227.838378)"><g><path d="M 25.796875 0 C 22.128906 0 19.472656 -0.816406 17.828125 -2.453125 C 16.179688 -4.097656 15.359375 -6.757812 15.359375 -10.4375 L 15.359375 -44.9375 C 15.359375 -48.601562 16.179688 -51.257812 17.828125 -52.90625 C 19.472656 -54.550781 22.128906 -55.375 25.796875 -55.375 L 54.5 -55.375 L 54.5 -152.765625 L 25.796875 -152.765625 C 22.128906 -152.765625 19.472656 -153.585938 17.828125 -155.234375 C 16.179688 -156.878906 15.359375 -159.535156 15.359375 -163.203125 L 15.359375 -198.28125 C 15.359375 -201.957031 16.179688 -204.613281 17.828125 -206.25 C 19.472656 -207.894531 22.128906 -208.71875 25.796875 -208.71875 L 149.296875 -208.71875 C 152.960938 -208.71875 155.617188 -207.894531 157.265625 -206.25 C 158.910156 -204.613281 159.734375 -201.957031 159.734375 -198.28125 L 159.734375 -163.203125 C 159.734375 -159.535156 158.910156 -156.878906 157.265625 -155.234375 C 155.617188 -153.585938 152.960938 -152.765625 149.296875 -152.765625 L 121.171875 -152.765625 L 121.171875 -55.375 L 149.296875 -55.375 C 152.960938 -55.375 155.617188 -54.550781 157.265625 -52.90625 C 158.910156 -51.257812 159.734375 -48.601562 159.734375 -44.9375 L 159.734375 -10.4375 C 159.734375 -6.757812 158.910156 -4.097656 157.265625 -2.453125 C 155.617188 -0.816406 152.960938 0 149.296875 0 Z M 25.796875 0 "/></g></g></g><g fill="#231f20" fill-opacity="1"><g transform="translate(3659.088477, 1227.838378)"><g><path d="M 196.828125 -54.796875 C 196.828125 -45.898438 195.523438 -37.828125 192.921875 -30.578125 C 190.316406 -23.335938 185.675781 -17.15625 179 -12.03125 C 172.332031 -6.90625 163.148438 -2.894531 151.453125 0 C 139.765625 2.894531 124.9375 4.34375 106.96875 4.34375 C 89 4.34375 74.117188 2.894531 62.328125 0 C 50.535156 -2.894531 41.304688 -6.90625 34.640625 -12.03125 C 27.972656 -17.15625 23.332031 -23.335938 20.71875 -30.578125 C 18.113281 -37.828125 16.8125 -45.898438 16.8125 -54.796875 L 16.8125 -153.640625 C 16.8125 -162.535156 18.113281 -170.601562 20.71875 -177.84375 C 23.332031 -185.09375 27.972656 -191.328125 34.640625 -196.546875 C 41.304688 -201.765625 50.535156 -205.820312 62.328125 -208.71875 C 74.117188 -211.613281 89 -213.0625 106.96875 -213.0625 C 124.9375 -213.0625 139.765625 -211.613281 151.453125 -208.71875 C 163.148438 -205.820312 172.332031 -201.765625 179 -196.546875 C 185.675781 -191.328125 190.316406 -185.09375 192.921875 -177.84375 C 195.523438 -170.601562 196.828125 -162.535156 196.828125 -153.640625 Z M 82.625 -65.21875 C 82.625 -61.351562 84.070312 -58.113281 86.96875 -55.5 C 89.863281 -52.894531 96.53125 -51.59375 106.96875 -51.59375 C 117.40625 -51.59375 124.070312 -52.894531 126.96875 -55.5 C 129.875 -58.113281 131.328125 -61.351562 131.328125 -65.21875 L 131.328125 -143.203125 C 131.328125 -146.878906 129.875 -150.019531 126.96875 -152.625 C 124.070312 -155.238281 117.40625 -156.546875 106.96875 -156.546875 C 96.53125 -156.546875 89.863281 -155.238281 86.96875 -152.625 C 84.070312 -150.019531 82.625 -146.878906 82.625 -143.203125 Z M 82.625 -65.21875 "/></g></g></g><g fill="#231f20" fill-opacity="1"><g transform="translate(3872.732059, 1227.838378)"><g><path d="M 73.921875 0 L 30.4375 0 C 26.769531 0 24.113281 -0.816406 22.46875 -2.453125 C 20.820312 -4.097656 20 -6.757812 20 -10.4375 L 20 -198.28125 C 20 -201.957031 20.820312 -204.613281 22.46875 -206.25 C 24.113281 -207.894531 26.769531 -208.71875 30.4375 -208.71875 L 60.59375 -208.71875 C 64.257812 -208.71875 67.394531 -208.140625 70 -206.984375 C 72.613281 -205.828125 75.175781 -203.796875 77.6875 -200.890625 L 133.921875 -136.53125 L 133.921875 -198.28125 C 133.921875 -201.957031 134.742188 -204.613281 136.390625 -206.25 C 138.035156 -207.894531 140.691406 -208.71875 144.359375 -208.71875 L 187.84375 -208.71875 C 191.519531 -208.71875 194.175781 -207.894531 195.8125 -206.25 C 197.457031 -204.613281 198.28125 -201.957031 198.28125 -198.28125 L 198.28125 -10.4375 C 198.28125 -6.757812 197.457031 -4.097656 195.8125 -2.453125 C 194.175781 -0.816406 191.519531 0 187.84375 0 L 144.359375 0 C 140.691406 0 138.035156 -0.816406 136.390625 -2.453125 C 134.742188 -4.097656 133.921875 -6.757812 133.921875 -10.4375 L 133.921875 -46.09375 L 84.359375 -106.09375 L 84.359375 -10.4375 C 84.359375 -6.757812 83.535156 -4.097656 81.890625 -2.453125 C 80.253906 -0.816406 77.597656 0 73.921875 0 Z M 73.921875 0 "/></g></g></g><g fill="#231f20" fill-opacity="1"><g transform="translate(4091.013741, 1227.838378)"><g/></g></g><g fill="#231f20" fill-opacity="1"><g transform="translate(4156.237293, 1227.838378)"><g><path d="M 85.8125 -54.203125 L 126.96875 -54.203125 C 131.21875 -54.203125 134.113281 -55.164062 135.65625 -57.09375 C 137.207031 -59.03125 137.984375 -61.9375 137.984375 -65.8125 L 137.984375 -105.8125 C 137.984375 -109.476562 138.804688 -112.132812 140.453125 -113.78125 C 142.097656 -115.425781 144.753906 -116.25 148.421875 -116.25 L 204.65625 -116.25 C 208.332031 -116.25 210.988281 -115.425781 212.625 -113.78125 C 214.269531 -112.132812 215.09375 -109.476562 215.09375 -105.8125 L 215.09375 -74.5 C 215.09375 -70.832031 214.269531 -68.175781 212.625 -66.53125 C 210.988281 -64.882812 208.332031 -64.0625 204.65625 -64.0625 L 198 -64.0625 L 198 -51.015625 C 198 -35.554688 193.550781 -23.1875 184.65625 -13.90625 C 175.769531 -4.632812 162.921875 0 146.109375 0 L 65.515625 0 C 47.734375 0 34.15625 -4.632812 24.78125 -13.90625 C 15.40625 -23.1875 10.71875 -35.554688 10.71875 -51.015625 L 10.71875 -74.21875 C 10.71875 -87.738281 14.195312 -98.363281 21.15625 -106.09375 C 28.113281 -113.832031 36.8125 -118.179688 47.25 -119.140625 C 40.875 -121.847656 36.429688 -125.90625 33.921875 -131.3125 C 31.410156 -136.726562 30.15625 -143.109375 30.15625 -150.453125 L 30.15625 -164.375 C 30.15625 -177.125 34.550781 -187.703125 43.34375 -196.109375 C 52.132812 -204.515625 66.289062 -208.71875 85.8125 -208.71875 L 146.96875 -208.71875 C 150.644531 -208.71875 153.300781 -207.894531 154.9375 -206.25 C 156.582031 -204.613281 157.40625 -201.957031 157.40625 -198.28125 L 157.40625 -164.953125 C 157.40625 -161.273438 156.582031 -158.613281 154.9375 -156.96875 C 153.300781 -155.332031 150.644531 -154.515625 146.96875 -154.515625 L 104.65625 -154.515625 C 100.007812 -154.515625 97.007812 -153.644531 95.65625 -151.90625 C 94.3125 -150.164062 93.640625 -148.132812 93.640625 -145.8125 L 93.640625 -139.734375 C 93.640625 -137.410156 94.3125 -135.378906 95.65625 -133.640625 C 97.007812 -131.898438 100.007812 -131.03125 104.65625 -131.03125 L 109 -131.03125 C 112.664062 -131.03125 115.320312 -130.207031 116.96875 -128.5625 C 118.613281 -126.925781 119.4375 -124.269531 119.4375 -120.59375 L 119.4375 -90.734375 C 119.4375 -87.066406 118.613281 -84.410156 116.96875 -82.765625 C 115.320312 -81.117188 112.664062 -80.296875 109 -80.296875 L 85.8125 -80.296875 C 81.164062 -80.296875 78.164062 -79.472656 76.8125 -77.828125 C 75.46875 -76.191406 74.796875 -74.210938 74.796875 -71.890625 L 74.796875 -62.90625 C 74.796875 -60.582031 75.46875 -58.550781 76.8125 -56.8125 C 78.164062 -55.070312 81.164062 -54.203125 85.8125 -54.203125 Z M 85.8125 -54.203125 "/></g></g></g><g fill="#231f20" fill-opacity="1"><g transform="translate(1778.334979, 1633.431882)"><g><path d="M 75.375 0 L 30.4375 0 C 26.769531 0 24.113281 -0.816406 22.46875 -2.453125 C 20.820312 -4.097656 20 -6.757812 20 -10.4375 L 20 -198.28125 C 20 -201.957031 20.820312 -204.613281 22.46875 -206.25 C 24.113281 -207.894531 26.769531 -208.71875 30.4375 -208.71875 L 119.140625 -208.71875 C 145.421875 -208.71875 163.394531 -203.5 173.0625 -193.0625 C 182.726562 -182.625 187.5625 -169 187.5625 -152.1875 L 187.5625 -115.09375 C 187.5625 -98.269531 182.726562 -84.640625 173.0625 -74.203125 C 163.394531 -63.773438 145.421875 -58.5625 119.140625 -58.5625 L 85.8125 -58.5625 L 85.8125 -10.4375 C 85.8125 -6.757812 84.988281 -4.097656 83.34375 -2.453125 C 81.695312 -0.816406 79.039062 0 75.375 0 Z M 85.234375 -154.515625 L 85.234375 -110.734375 L 111.3125 -110.734375 C 116.914062 -110.734375 120.585938 -112.179688 122.328125 -115.078125 C 124.066406 -117.984375 124.9375 -121.269531 124.9375 -124.9375 L 124.9375 -140.3125 C 124.9375 -143.976562 124.066406 -147.257812 122.328125 -150.15625 C 120.585938 -153.0625 116.914062 -154.515625 111.3125 -154.515625 Z M 85.234375 -154.515625 "/></g></g></g><g fill="#231f20" fill-opacity="1"><g transform="translate(1976.03492, 1633.431882)"><g><path d="M 95.65625 -147.84375 L 82.03125 -103.78125 L 127.546875 -103.78125 L 113.921875 -147.84375 C 113.148438 -149.582031 112.328125 -150.835938 111.453125 -151.609375 C 110.585938 -152.378906 109.578125 -152.765625 108.421875 -152.765625 L 101.171875 -152.765625 C 100.015625 -152.765625 99 -152.378906 98.125 -151.609375 C 97.257812 -150.835938 96.4375 -149.582031 95.65625 -147.84375 Z M 79.140625 -10.4375 C 79.140625 -6.757812 78.316406 -4.097656 76.671875 -2.453125 C 75.035156 -0.816406 72.378906 0 68.703125 0 L 26.09375 0 C 22.414062 0 19.753906 -0.816406 18.109375 -2.453125 C 16.472656 -4.097656 15.65625 -6.757812 15.65625 -10.4375 L 15.65625 -86.96875 C 15.65625 -92.757812 16.570312 -99.425781 18.40625 -106.96875 C 20.238281 -114.507812 23.085938 -123.300781 26.953125 -133.34375 L 52.1875 -199.15625 C 53.34375 -202.4375 55.128906 -204.847656 57.546875 -206.390625 C 59.960938 -207.941406 63.101562 -208.71875 66.96875 -208.71875 L 144.9375 -208.71875 C 148.613281 -208.71875 151.660156 -207.941406 154.078125 -206.390625 C 156.492188 -204.847656 158.28125 -202.4375 159.4375 -199.15625 L 184.65625 -133.34375 C 188.519531 -123.300781 191.367188 -114.507812 193.203125 -106.96875 C 195.046875 -99.425781 195.96875 -92.757812 195.96875 -86.96875 L 195.96875 -10.4375 C 195.96875 -6.757812 195.144531 -4.097656 193.5 -2.453125 C 191.851562 -0.816406 189.195312 0 185.53125 0 L 141.75 0 C 137.882812 0 135.035156 -0.816406 133.203125 -2.453125 C 131.367188 -4.097656 130.453125 -6.757812 130.453125 -10.4375 L 130.453125 -51.015625 L 79.140625 -51.015625 Z M 79.140625 -10.4375 "/></g></g></g><g fill="#231f20" fill-opacity="1"><g transform="translate(2187.649305, 1633.431882)"><g><path d="M 125.8125 0 L 78.84375 0 C 75.175781 0 72.519531 -0.816406 70.875 -2.453125 C 69.238281 -4.097656 68.421875 -6.757812 68.421875 -10.4375 L 68.421875 -47.546875 L 24.0625 -106.96875 C 19.613281 -112.957031 16.664062 -118.175781 15.21875 -122.625 C 13.769531 -127.070312 13.046875 -133.738281 13.046875 -142.625 L 13.046875 -198.28125 C 13.046875 -201.957031 13.863281 -204.613281 15.5 -206.25 C 17.144531 -207.894531 19.804688 -208.71875 23.484375 -208.71875 L 68.125 -208.71875 C 71.789062 -208.71875 74.445312 -207.894531 76.09375 -206.25 C 77.738281 -204.613281 78.5625 -201.957031 78.5625 -198.28125 L 78.5625 -150.75 C 78.5625 -148.8125 78.65625 -146.78125 78.84375 -144.65625 C 79.039062 -142.53125 79.816406 -140.5 81.171875 -138.5625 L 94.5 -117.703125 C 95.46875 -115.960938 96.484375 -114.703125 97.546875 -113.921875 C 98.609375 -113.148438 99.914062 -112.765625 101.46875 -112.765625 L 104.359375 -112.765625 C 105.910156 -112.765625 107.21875 -113.148438 108.28125 -113.921875 C 109.34375 -114.703125 110.351562 -115.960938 111.3125 -117.703125 L 124.65625 -138.5625 C 126.007812 -140.5 126.78125 -142.53125 126.96875 -144.65625 C 127.164062 -146.78125 127.265625 -148.8125 127.265625 -150.75 L 127.265625 -198.28125 C 127.265625 -201.957031 128.082031 -204.613281 129.71875 -206.25 C 131.363281 -207.894531 134.023438 -208.71875 137.703125 -208.71875 L 180.890625 -208.71875 C 184.566406 -208.71875 187.222656 -207.894531 188.859375 -206.25 C 190.503906 -204.613281 191.328125 -201.957031 191.328125 -198.28125 L 191.328125 -142.625 C 191.328125 -133.738281 190.550781 -127.070312 189 -122.625 C 187.457031 -118.175781 184.5625 -112.957031 180.3125 -106.96875 L 136.25 -47.25 L 136.25 -10.4375 C 136.25 -6.757812 135.425781 -4.097656 133.78125 -2.453125 C 132.144531 -0.816406 129.488281 0 125.8125 0 Z M 125.8125 0 "/></g></g></g><g fill="#231f20" fill-opacity="1"><g transform="translate(2392.016588, 1633.431882)"><g><path d="M 73.625 0 L 30.4375 0 C 26.769531 0 24.113281 -0.816406 22.46875 -2.453125 C 20.820312 -4.097656 20 -6.757812 20 -10.4375 L 20 -198.28125 C 20 -201.957031 20.820312 -204.613281 22.46875 -206.25 C 24.113281 -207.894531 26.769531 -208.71875 30.4375 -208.71875 L 77.109375 -208.71875 C 80.203125 -208.71875 82.765625 -208.039062 84.796875 -206.6875 C 86.828125 -205.332031 88.710938 -203.113281 90.453125 -200.03125 L 116.53125 -152.765625 C 117.5 -151.023438 118.320312 -149.769531 119 -149 C 119.675781 -148.226562 120.59375 -147.84375 121.75 -147.84375 L 124.359375 -147.84375 C 125.523438 -147.84375 126.441406 -148.226562 127.109375 -149 C 127.785156 -149.769531 128.609375 -151.023438 129.578125 -152.765625 L 155.375 -200.03125 C 157.113281 -203.113281 159 -205.332031 161.03125 -206.6875 C 163.0625 -208.039062 165.625 -208.71875 168.71875 -208.71875 L 215.671875 -208.71875 C 219.347656 -208.71875 222.003906 -207.894531 223.640625 -206.25 C 225.285156 -204.613281 226.109375 -201.957031 226.109375 -198.28125 L 226.109375 -10.4375 C 226.109375 -6.757812 225.285156 -4.097656 223.640625 -2.453125 C 222.003906 -0.816406 219.347656 0 215.671875 0 L 171.03125 0 C 167.363281 0 164.707031 -0.816406 163.0625 -2.453125 C 161.414062 -4.097656 160.59375 -6.757812 160.59375 -10.4375 L 160.59375 -112.484375 L 143.5 -80.875 C 141.757812 -77.59375 139.679688 -75.226562 137.265625 -73.78125 C 134.847656 -72.332031 131.800781 -71.609375 128.125 -71.609375 L 116.53125 -71.609375 C 112.863281 -71.609375 109.820312 -72.332031 107.40625 -73.78125 C 104.988281 -75.226562 102.910156 -77.59375 101.171875 -80.875 L 84.0625 -112.484375 L 84.0625 -10.4375 C 84.0625 -6.757812 83.238281 -4.097656 81.59375 -2.453125 C 79.957031 -0.816406 77.300781 0 73.625 0 Z M 73.625 0 "/></g></g></g><g fill="#231f20" fill-opacity="1"><g transform="translate(2638.126978, 1633.431882)"><g><path d="M 164.953125 0 L 30.4375 0 C 26.769531 0 24.113281 -0.816406 22.46875 -2.453125 C 20.820312 -4.097656 20 -6.757812 20 -10.4375 L 20 -198.28125 C 20 -201.957031 20.820312 -204.613281 22.46875 -206.25 C 24.113281 -207.894531 26.769531 -208.71875 30.4375 -208.71875 L 164.953125 -208.71875 C 168.617188 -208.71875 171.273438 -207.894531 172.921875 -206.25 C 174.566406 -204.613281 175.390625 -201.957031 175.390625 -198.28125 L 175.390625 -164.375 C 175.390625 -160.695312 174.566406 -158.035156 172.921875 -156.390625 C 171.273438 -154.753906 168.617188 -153.9375 164.953125 -153.9375 L 84.9375 -153.9375 L 84.9375 -131.609375 L 141.46875 -131.609375 C 145.132812 -131.609375 147.789062 -130.785156 149.4375 -129.140625 C 151.082031 -127.503906 151.90625 -124.847656 151.90625 -121.171875 L 151.90625 -90.15625 C 151.90625 -86.476562 151.082031 -83.816406 149.4375 -82.171875 C 147.789062 -80.535156 145.132812 -79.71875 141.46875 -79.71875 L 84.9375 -79.71875 L 84.9375 -54.796875 L 164.953125 -54.796875 C 168.617188 -54.796875 171.273438 -53.972656 172.921875 -52.328125 C 174.566406 -50.679688 175.390625 -48.023438 175.390625 -44.359375 L 175.390625 -10.4375 C 175.390625 -6.757812 174.566406 -4.097656 172.921875 -2.453125 C 171.273438 -0.816406 168.617188 0 164.953125 0 Z M 164.953125 0 "/></g></g></g><g fill="#231f20" fill-opacity="1"><g transform="translate(2827.710259, 1633.431882)"><g><path d="M 73.921875 0 L 30.4375 0 C 26.769531 0 24.113281 -0.816406 22.46875 -2.453125 C 20.820312 -4.097656 20 -6.757812 20 -10.4375 L 20 -198.28125 C 20 -201.957031 20.820312 -204.613281 22.46875 -206.25 C 24.113281 -207.894531 26.769531 -208.71875 30.4375 -208.71875 L 60.59375 -208.71875 C 64.257812 -208.71875 67.394531 -208.140625 70 -206.984375 C 72.613281 -205.828125 75.175781 -203.796875 77.6875 -200.890625 L 133.921875 -136.53125 L 133.921875 -198.28125 C 133.921875 -201.957031 134.742188 -204.613281 136.390625 -206.25 C 138.035156 -207.894531 140.691406 -208.71875 144.359375 -208.71875 L 187.84375 -208.71875 C 191.519531 -208.71875 194.175781 -207.894531 195.8125 -206.25 C 197.457031 -204.613281 198.28125 -201.957031 198.28125 -198.28125 L 198.28125 -10.4375 C 198.28125 -6.757812 197.457031 -4.097656 195.8125 -2.453125 C 194.175781 -0.816406 191.519531 0 187.84375 0 L 144.359375 0 C 140.691406 0 138.035156 -0.816406 136.390625 -2.453125 C 134.742188 -4.097656 133.921875 -6.757812 133.921875 -10.4375 L 133.921875 -46.09375 L 84.359375 -106.09375 L 84.359375 -10.4375 C 84.359375 -6.757812 83.535156 -4.097656 81.890625 -2.453125 C 80.253906 -0.816406 77.597656 0 73.921875 0 Z M 73.921875 0 "/></g></g></g><g fill="#231f20" fill-opacity="1"><g transform="translate(3045.991941, 1633.431882)"><g><path d="M 118.5625 0 L 71.609375 0 C 67.929688 0 65.269531 -0.816406 63.625 -2.453125 C 61.988281 -4.097656 61.171875 -6.757812 61.171875 -10.4375 L 61.171875 -152.765625 L 18.546875 -152.765625 C 14.878906 -152.765625 12.222656 -153.585938 10.578125 -155.234375 C 8.929688 -156.878906 8.109375 -159.535156 8.109375 -163.203125 L 8.109375 -198.28125 C 8.109375 -201.957031 8.929688 -204.613281 10.578125 -206.25 C 12.222656 -207.894531 14.878906 -208.71875 18.546875 -208.71875 L 171.609375 -208.71875 C 175.285156 -208.71875 177.941406 -207.894531 179.578125 -206.25 C 181.222656 -204.613281 182.046875 -201.957031 182.046875 -198.28125 L 182.046875 -163.203125 C 182.046875 -159.535156 181.222656 -156.878906 179.578125 -155.234375 C 177.941406 -153.585938 175.285156 -152.765625 171.609375 -152.765625 L 129 -152.765625 L 129 -10.4375 C 129 -6.757812 128.175781 -4.097656 126.53125 -2.453125 C 124.894531 -0.816406 122.238281 0 118.5625 0 Z M 118.5625 0 "/></g></g></g><g fill="#231f20" fill-opacity="1"><g transform="translate(3236.154988, 1633.431882)"><g/></g></g><g fill="#ffde59" fill-opacity="1"><g transform="translate(3301.384035, 1633.431882)"><g><path d="M 75.375 0 L 30.4375 0 C 26.769531 0 24.113281 -0.816406 22.46875 -2.453125 C 20.820312 -4.097656 20 -6.757812 20 -10.4375 L 20 -198.28125 C 20 -201.957031 20.820312 -204.613281 22.46875 -206.25 C 24.113281 -207.894531 26.769531 -208.71875 30.4375 -208.71875 L 119.140625 -208.71875 C 145.421875 -208.71875 163.394531 -203.5 173.0625 -193.0625 C 182.726562 -182.625 187.5625 -169 187.5625 -152.1875 L 187.5625 -115.09375 C 187.5625 -98.269531 182.726562 -84.640625 173.0625 -74.203125 C 163.394531 -63.773438 145.421875 -58.5625 119.140625 -58.5625 L 85.8125 -58.5625 L 85.8125 -10.4375 C 85.8125 -6.757812 84.988281 -4.097656 83.34375 -2.453125 C 81.695312 -0.816406 79.039062 0 75.375 0 Z M 85.234375 -154.515625 L 85.234375 -110.734375 L 111.3125 -110.734375 C 116.914062 -110.734375 120.585938 -112.179688 122.328125 -115.078125 C 124.066406 -117.984375 124.9375 -121.269531 124.9375 -124.9375 L 124.9375 -140.3125 C 124.9375 -143.976562 124.066406 -147.257812 122.328125 -150.15625 C 120.585938 -153.0625 116.914062 -154.515625 111.3125 -154.515625 Z M 85.234375 -154.515625 "/></g></g></g><g fill="#ffde59" fill-opacity="1"><g transform="translate(3499.083976, 1633.431882)"><g><path d="M 196.828125 -54.796875 C 196.828125 -45.898438 195.523438 -37.828125 192.921875 -30.578125 C 190.316406 -23.335938 185.675781 -17.15625 179 -12.03125 C 172.332031 -6.90625 163.148438 -2.894531 151.453125 0 C 139.765625 2.894531 124.9375 4.34375 106.96875 4.34375 C 89 4.34375 74.117188 2.894531 62.328125 0 C 50.535156 -2.894531 41.304688 -6.90625 34.640625 -12.03125 C 27.972656 -17.15625 23.332031 -23.335938 20.71875 -30.578125 C 18.113281 -37.828125 16.8125 -45.898438 16.8125 -54.796875 L 16.8125 -153.640625 C 16.8125 -162.535156 18.113281 -170.601562 20.71875 -177.84375 C 23.332031 -185.09375 27.972656 -191.328125 34.640625 -196.546875 C 41.304688 -201.765625 50.535156 -205.820312 62.328125 -208.71875 C 74.117188 -211.613281 89 -213.0625 106.96875 -213.0625 C 124.9375 -213.0625 139.765625 -211.613281 151.453125 -208.71875 C 163.148438 -205.820312 172.332031 -201.765625 179 -196.546875 C 185.675781 -191.328125 190.316406 -185.09375 192.921875 -177.84375 C 195.523438 -170.601562 196.828125 -162.535156 196.828125 -153.640625 Z M 82.625 -65.21875 C 82.625 -61.351562 84.070312 -58.113281 86.96875 -55.5 C 89.863281 -52.894531 96.53125 -51.59375 106.96875 -51.59375 C 117.40625 -51.59375 124.070312 -52.894531 126.96875 -55.5 C 129.875 -58.113281 131.328125 -61.351562 131.328125 -65.21875 L 131.328125 -143.203125 C 131.328125 -146.878906 129.875 -150.019531 126.96875 -152.625 C 124.070312 -155.238281 117.40625 -156.546875 106.96875 -156.546875 C 96.53125 -156.546875 89.863281 -155.238281 86.96875 -152.625 C 84.070312 -150.019531 82.625 -146.878906 82.625 -143.203125 Z M 82.625 -65.21875 "/></g></g></g><g fill="#ffde59" fill-opacity="1"><g transform="translate(3712.72749, 1633.431882)"><g><path d="M 178 0 L 30.4375 0 C 26.769531 0 24.113281 -0.816406 22.46875 -2.453125 C 20.820312 -4.097656 20 -6.757812 20 -10.4375 L 20 -198.28125 C 20 -201.957031 20.820312 -204.613281 22.46875 -206.25 C 24.113281 -207.894531 26.769531 -208.71875 30.4375 -208.71875 L 75.375 -208.71875 C 79.039062 -208.71875 81.695312 -207.894531 83.34375 -206.25 C 84.988281 -204.613281 85.8125 -201.957031 85.8125 -198.28125 L 85.8125 -54.796875 L 125.515625 -54.796875 L 125.515625 -101.75 C 125.515625 -105.425781 126.335938 -108.082031 127.984375 -109.71875 C 129.628906 -111.363281 132.285156 -112.1875 135.953125 -112.1875 L 178 -112.1875 C 181.664062 -112.1875 184.316406 -111.363281 185.953125 -109.71875 C 187.597656 -108.082031 188.421875 -105.425781 188.421875 -101.75 L 188.421875 -10.4375 C 188.421875 -6.757812 187.597656 -4.097656 185.953125 -2.453125 C 184.316406 -0.816406 181.664062 0 178 0 Z M 178 0 "/></g></g></g><g fill="#ffde59" fill-opacity="1"><g transform="translate(3914.195912, 1633.431882)"><g><path d="M 25.796875 0 C 22.128906 0 19.472656 -0.816406 17.828125 -2.453125 C 16.179688 -4.097656 15.359375 -6.757812 15.359375 -10.4375 L 15.359375 -44.9375 C 15.359375 -48.601562 16.179688 -51.257812 17.828125 -52.90625 C 19.472656 -54.550781 22.128906 -55.375 25.796875 -55.375 L 54.5 -55.375 L 54.5 -152.765625 L 25.796875 -152.765625 C 22.128906 -152.765625 19.472656 -153.585938 17.828125 -155.234375 C 16.179688 -156.878906 15.359375 -159.535156 15.359375 -163.203125 L 15.359375 -198.28125 C 15.359375 -201.957031 16.179688 -204.613281 17.828125 -206.25 C 19.472656 -207.894531 22.128906 -208.71875 25.796875 -208.71875 L 149.296875 -208.71875 C 152.960938 -208.71875 155.617188 -207.894531 157.265625 -206.25 C 158.910156 -204.613281 159.734375 -201.957031 159.734375 -198.28125 L 159.734375 -163.203125 C 159.734375 -159.535156 158.910156 -156.878906 157.265625 -155.234375 C 155.617188 -153.585938 152.960938 -152.765625 149.296875 -152.765625 L 121.171875 -152.765625 L 121.171875 -55.375 L 149.296875 -55.375 C 152.960938 -55.375 155.617188 -54.550781 157.265625 -52.90625 C 158.910156 -51.257812 159.734375 -48.601562 159.734375 -44.9375 L 159.734375 -10.4375 C 159.734375 -6.757812 158.910156 -4.097656 157.265625 -2.453125 C 155.617188 -0.816406 152.960938 0 149.296875 0 Z M 25.796875 0 "/></g></g></g><g fill="#ffde59" fill-opacity="1"><g transform="translate(4089.574911, 1633.431882)"><g><path d="M 158.859375 0 L 88.125 0 C 63.96875 0 46.039062 -4.828125 34.34375 -14.484375 C 22.65625 -24.148438 16.8125 -39.035156 16.8125 -59.140625 L 16.8125 -149.296875 C 16.8125 -169.390625 22.65625 -184.316406 34.34375 -194.078125 C 46.039062 -203.835938 63.96875 -208.71875 88.125 -208.71875 L 158.859375 -208.71875 C 162.535156 -208.71875 165.191406 -207.894531 166.828125 -206.25 C 168.472656 -204.613281 169.296875 -201.957031 169.296875 -198.28125 L 169.296875 -163.203125 C 169.296875 -159.535156 168.472656 -156.878906 166.828125 -155.234375 C 165.191406 -153.585938 162.535156 -152.765625 158.859375 -152.765625 L 100.59375 -152.765625 C 94.601562 -152.765625 90.15625 -151.554688 87.25 -149.140625 C 84.351562 -146.734375 82.90625 -143.113281 82.90625 -138.28125 L 82.90625 -69.28125 C 82.90625 -64.445312 84.351562 -60.921875 87.25 -58.703125 C 90.15625 -56.484375 94.601562 -55.375 100.59375 -55.375 L 158.859375 -55.375 C 162.535156 -55.375 165.191406 -54.550781 166.828125 -52.90625 C 168.472656 -51.257812 169.296875 -48.601562 169.296875 -44.9375 L 169.296875 -10.4375 C 169.296875 -6.757812 168.472656 -4.097656 166.828125 -2.453125 C 165.191406 -0.816406 162.535156 0 158.859375 0 Z M 158.859375 0 "/></g></g></g><g fill="#ffde59" fill-opacity="1"><g transform="translate(4271.621185, 1633.431882)"><g><path d="M 125.8125 0 L 78.84375 0 C 75.175781 0 72.519531 -0.816406 70.875 -2.453125 C 69.238281 -4.097656 68.421875 -6.757812 68.421875 -10.4375 L 68.421875 -47.546875 L 24.0625 -106.96875 C 19.613281 -112.957031 16.664062 -118.175781 15.21875 -122.625 C 13.769531 -127.070312 13.046875 -133.738281 13.046875 -142.625 L 13.046875 -198.28125 C 13.046875 -201.957031 13.863281 -204.613281 15.5 -206.25 C 17.144531 -207.894531 19.804688 -208.71875 23.484375 -208.71875 L 68.125 -208.71875 C 71.789062 -208.71875 74.445312 -207.894531 76.09375 -206.25 C 77.738281 -204.613281 78.5625 -201.957031 78.5625 -198.28125 L 78.5625 -150.75 C 78.5625 -148.8125 78.65625 -146.78125 78.84375 -144.65625 C 79.039062 -142.53125 79.816406 -140.5 81.171875 -138.5625 L 94.5 -117.703125 C 95.46875 -115.960938 96.484375 -114.703125 97.546875 -113.921875 C 98.609375 -113.148438 99.914062 -112.765625 101.46875 -112.765625 L 104.359375 -112.765625 C 105.910156 -112.765625 107.21875 -113.148438 108.28125 -113.921875 C 109.34375 -114.703125 110.351562 -115.960938 111.3125 -117.703125 L 124.65625 -138.5625 C 126.007812 -140.5 126.78125 -142.53125 126.96875 -144.65625 C 127.164062 -146.78125 127.265625 -148.8125 127.265625 -150.75 L 127.265625 -198.28125 C 127.265625 -201.957031 128.082031 -204.613281 129.71875 -206.25 C 131.363281 -207.894531 134.023438 -208.71875 137.703125 -208.71875 L 180.890625 -208.71875 C 184.566406 -208.71875 187.222656 -207.894531 188.859375 -206.25 C 190.503906 -204.613281 191.328125 -201.957031 191.328125 -198.28125 L 191.328125 -142.625 C 191.328125 -133.738281 190.550781 -127.070312 189 -122.625 C 187.457031 -118.175781 184.5625 -112.957031 180.3125 -106.96875 L 136.25 -47.25 L 136.25 -10.4375 C 136.25 -6.757812 135.425781 -4.097656 133.78125 -2.453125 C 132.144531 -0.816406 129.488281 0 125.8125 0 Z M 125.8125 0 "/></g></g></g></svg>