<svg xmlns="http://www.w3.org/2000/svg" xmlns:xlink="http://www.w3.org/1999/xlink" width="6912" zoomAndPan="magnify" viewBox="0 0 5184 2592.000001" height="3456" preserveAspectRatio="xMidYMid meet" version="1.0"><defs><g/><clipPath id="86e786f660"><path d="M 1155 1346 L 1545.53125 1346 L 1545.53125 1733 L 1155 1733 Z M 1155 1346 " clip-rule="nonzero"/></clipPath><clipPath id="c86b4f0f4f"><path d="M 1231 1608 L 1437 1608 L 1437 1813.402344 L 1231 1813.402344 Z M 1231 1608 " clip-rule="nonzero"/></clipPath><clipPath id="aec4c89046"><path d="M 630.460938 1608 L 836 1608 L 836 1813.402344 L 630.460938 1813.402344 Z M 630.460938 1608 " clip-rule="nonzero"/></clipPath><clipPath id="726dd201ee"><path d="M 260.101562 878 L 895 878 L 895 1573 L 260.101562 1573 Z M 260.101562 878 " clip-rule="nonzero"/></clipPath></defs><path stroke-linecap="round" transform="matrix(0.276371, 0, 0, -0.276371, 260.122396, 1813.776202)" fill="none" stroke-linejoin="round" d="M 2008.119488 371.297506 L 3315.463084 371.297506 L 3315.463084 2218.024927 L 1125.744538 2218.024927 L 1125.744538 371.297506 L 1416.482059 371.297506 " stroke="#222222" stroke-width="150.977997" stroke-opacity="1" stroke-miterlimit="10"/><g clip-path="url(#86e786f660)"><path stroke-linecap="round" transform="matrix(0.276371, 0, 0, -0.276371, 260.122396, 1813.776082)" fill="none" stroke-linejoin="round" d="M 4182.658059 371.297072 L 4575.514131 371.297072 L 4567.344647 993.760875 L 4103.083326 1616.224679 L 3315.463084 1616.224679 L 3315.463084 371.297072 L 3591.02063 371.297072 " stroke="#222222" stroke-width="150.977997" stroke-opacity="1" stroke-miterlimit="10"/></g><path stroke-linecap="round" transform="matrix(0.276371, 0, 0, -0.276371, 260.122396, 1813.776202)" fill="none" stroke-linejoin="round" d="M 3838.67755 1427.592008 L 3838.67755 993.761309 L 4345.355171 993.761309 " stroke="#222222" stroke-width="150.977997" stroke-opacity="1" stroke-miterlimit="10"/><g clip-path="url(#c86b4f0f4f)"><path stroke-linecap="round" transform="matrix(0.276371, 0, 0, -0.276371, 260.122396, 1813.776082)" fill="none" stroke-linejoin="round" d="M 3886.832277 667.122853 C 4050.080618 667.122853 4182.658059 534.616083 4182.658059 371.297072 C 4182.658059 208.062865 4050.080618 75.513692 3886.832277 75.513692 C 3723.555668 75.513692 3591.02063 208.062865 3591.02063 371.297072 C 3591.02063 534.616083 3723.555668 667.122853 3886.832277 667.122853 Z M 3886.832277 667.122853 " stroke="#222222" stroke-width="150.977997" stroke-opacity="1" stroke-miterlimit="10"/></g><g clip-path="url(#aec4c89046)"><path stroke-linecap="round" transform="matrix(0.276371, 0, 0, -0.276371, 260.122396, 1813.776082)" fill="none" stroke-linejoin="round" d="M 1712.307841 667.122853 C 1875.626852 667.122853 2008.119488 534.616083 2008.119488 371.297072 C 2008.119488 208.062865 1875.626852 75.513692 1712.307841 75.513692 C 1549.0595 75.513692 1416.482059 208.062865 1416.482059 371.297072 C 1416.482059 534.616083 1549.0595 667.122853 1712.307841 667.122853 Z M 1712.307841 667.122853 " stroke="#222222" stroke-width="150.977997" stroke-opacity="1" stroke-miterlimit="10"/></g><path fill="#ff3131" d="M 1334.332031 1678.773438 C 1352.199219 1678.773438 1366.710938 1693.28125 1366.710938 1711.160156 C 1366.710938 1729.027344 1352.199219 1743.523438 1334.332031 1743.523438 C 1316.457031 1743.523438 1301.945312 1729.027344 1301.945312 1711.160156 C 1301.945312 1693.28125 1316.457031 1678.773438 1334.332031 1678.773438 " fill-opacity="1" fill-rule="nonzero"/><path fill="#ff3131" d="M 733.355469 1678.621094 C 751.320312 1678.621094 765.894531 1693.195312 765.894531 1711.160156 C 765.894531 1729.101562 751.320312 1743.6875 733.355469 1743.6875 C 715.410156 1743.6875 700.835938 1729.101562 700.835938 1711.160156 C 700.835938 1693.195312 715.410156 1678.621094 733.355469 1678.621094 " fill-opacity="1" fill-rule="nonzero"/><path stroke-linecap="round" transform="matrix(0.276371, 0, 0, -0.276371, 260.122396, 1813.776202)" fill="none" stroke-linejoin="round" d="M 3274.643932 3051.920067 L 2265.232091 2433.060448 L 2265.232091 3670.793821 Z M 3274.643932 3051.920067 " stroke="#222222" stroke-width="150.977997" stroke-opacity="1" stroke-miterlimit="10"/><g clip-path="url(#726dd201ee)"><path stroke-linecap="round" transform="matrix(0.276371, 0, 0, -0.276371, 260.122396, 1813.776202)" fill="none" stroke-linejoin="round" d="M 2220.625012 3309.852446 L 75.513545 3309.852446 L 75.513545 949.705458 L 885.197048 949.705458 " stroke="#222222" stroke-width="150.977997" stroke-opacity="1" stroke-miterlimit="10"/></g><path stroke-linecap="round" transform="matrix(0.276371, 0, 0, -0.276371, 260.122396, 1813.776202)" fill="none" stroke-linejoin="round" d="M 2265.232091 2772.899678 L 624.847746 2772.899678 L 624.847746 1584.621365 L 858.639157 1584.621365 " stroke="#222222" stroke-width="150.977997" stroke-opacity="1" stroke-miterlimit="10"/><g fill="#ff3131" fill-opacity="1"><g transform="translate(1982.408578, 1227.838378)"><g><path d="M 116.828125 0 L 25.21875 0 C 21.550781 0 18.894531 -0.816406 17.25 -2.453125 C 15.601562 -4.097656 14.78125 -6.757812 14.78125 -10.4375 L 14.78125 -44.359375 C 14.78125 -48.023438 15.601562 -50.679688 17.25 -52.328125 C 18.894531 -53.972656 21.550781 -54.796875 25.21875 -54.796875 L 103.203125 -54.796875 C 105.710938 -54.796875 107.59375 -55.613281 108.84375 -57.25 C 110.101562 -58.894531 110.734375 -60.878906 110.734375 -63.203125 C 110.734375 -66.484375 110.101562 -68.894531 108.84375 -70.4375 C 107.59375 -71.988281 105.710938 -72.859375 103.203125 -73.046875 L 59.71875 -79.140625 C 46.1875 -81.066406 35.3125 -85.507812 27.09375 -92.46875 C 18.882812 -99.425781 14.78125 -111.023438 14.78125 -127.265625 L 14.78125 -157.703125 C 14.78125 -174.128906 20.09375 -186.738281 30.71875 -195.53125 C 41.351562 -204.320312 56.046875 -208.71875 74.796875 -208.71875 L 155.96875 -208.71875 C 159.632812 -208.71875 162.285156 -207.894531 163.921875 -206.25 C 165.566406 -204.613281 166.390625 -201.957031 166.390625 -198.28125 L 166.390625 -163.78125 C 166.390625 -160.113281 165.566406 -157.457031 163.921875 -155.8125 C 162.285156 -154.175781 159.632812 -153.359375 155.96875 -153.359375 L 88.421875 -153.359375 C 85.898438 -153.359375 83.960938 -152.535156 82.609375 -150.890625 C 81.265625 -149.242188 80.59375 -147.164062 80.59375 -144.65625 C 80.59375 -142.144531 81.265625 -140.019531 82.609375 -138.28125 C 83.960938 -136.539062 85.898438 -135.570312 88.421875 -135.375 L 131.609375 -129.578125 C 145.140625 -127.648438 156.054688 -123.207031 164.359375 -116.25 C 172.671875 -109.289062 176.828125 -97.691406 176.828125 -81.453125 L 176.828125 -51.015625 C 176.828125 -34.585938 171.460938 -21.976562 160.734375 -13.1875 C 150.015625 -4.394531 135.378906 0 116.828125 0 Z M 116.828125 0 "/></g></g></g><g fill="#ff3131" fill-opacity="1"><g transform="translate(2170.832311, 1227.838378)"><g><path d="M 75.375 0 L 30.4375 0 C 26.769531 0 24.113281 -0.816406 22.46875 -2.453125 C 20.820312 -4.097656 20 -6.757812 20 -10.4375 L 20 -198.28125 C 20 -201.957031 20.820312 -204.613281 22.46875 -206.25 C 24.113281 -207.894531 26.769531 -208.71875 30.4375 -208.71875 L 75.375 -208.71875 C 79.039062 -208.71875 81.695312 -207.894531 83.34375 -206.25 C 84.988281 -204.613281 85.8125 -201.957031 85.8125 -198.28125 L 85.8125 -135.375 L 134.21875 -135.375 L 134.21875 -198.28125 C 134.21875 -201.957031 135.035156 -204.613281 136.671875 -206.25 C 138.316406 -207.894531 140.976562 -208.71875 144.65625 -208.71875 L 189.59375 -208.71875 C 193.257812 -208.71875 195.914062 -207.894531 197.5625 -206.25 C 199.207031 -204.613281 200.03125 -201.957031 200.03125 -198.28125 L 200.03125 -10.4375 C 200.03125 -6.757812 199.207031 -4.097656 197.5625 -2.453125 C 195.914062 -0.816406 193.257812 0 189.59375 0 L 144.65625 0 C 140.976562 0 138.316406 -0.816406 136.671875 -2.453125 C 135.035156 -4.097656 134.21875 -6.757812 134.21875 -10.4375 L 134.21875 -74.796875 L 85.8125 -74.796875 L 85.8125 -10.4375 C 85.8125 -6.757812 84.988281 -4.097656 83.34375 -2.453125 C 81.695312 -0.816406 79.039062 0 75.375 0 Z M 75.375 0 "/></g></g></g><g fill="#ff3131" fill-opacity="1"><g transform="translate(2390.853217, 1227.838378)"><g><path d="M 25.796875 0 C 22.128906 0 19.472656 -0.816406 17.828125 -2.453125 C 16.179688 -4.097656 15.359375 -6.757812 15.359375 -10.4375 L 15.359375 -44.9375 C 15.359375 -48.601562 16.179688 -51.257812 17.828125 -52.90625 C 19.472656 -54.550781 22.128906 -55.375 25.796875 -55.375 L 54.5 -55.375 L 54.5 -152.765625 L 25.796875 -152.765625 C 22.128906 -152.765625 19.472656 -153.585938 17.828125 -155.234375 C 16.179688 -156.878906 15.359375 -159.535156 15.359375 -163.203125 L 15.359375 -198.28125 C 15.359375 -201.957031 16.179688 -204.613281 17.828125 -206.25 C 19.472656 -207.894531 22.128906 -208.71875 25.796875 -208.71875 L 149.296875 -208.71875 C 152.960938 -208.71875 155.617188 -207.894531 157.265625 -206.25 C 158.910156 -204.613281 159.734375 -201.957031 159.734375 -198.28125 L 159.734375 -163.203125 C 159.734375 -159.535156 158.910156 -156.878906 157.265625 -155.234375 C 155.617188 -153.585938 152.960938 -152.765625 149.296875 -152.765625 L 121.171875 -152.765625 L 121.171875 -55.375 L 149.296875 -55.375 C 152.960938 -55.375 155.617188 -54.550781 157.265625 -52.90625 C 158.910156 -51.257812 159.734375 -48.601562 159.734375 -44.9375 L 159.734375 -10.4375 C 159.734375 -6.757812 158.910156 -4.097656 157.265625 -2.453125 C 155.617188 -0.816406 152.960938 0 149.296875 0 Z M 25.796875 0 "/></g></g></g><g fill="#ff3131" fill-opacity="1"><g transform="translate(2566.232268, 1227.838378)"><g><path d="M 75.375 0 L 30.4375 0 C 26.769531 0 24.113281 -0.816406 22.46875 -2.453125 C 20.820312 -4.097656 20 -6.757812 20 -10.4375 L 20 -198.28125 C 20 -201.957031 20.820312 -204.613281 22.46875 -206.25 C 24.113281 -207.894531 26.769531 -208.71875 30.4375 -208.71875 L 119.140625 -208.71875 C 145.421875 -208.71875 163.394531 -203.5 173.0625 -193.0625 C 182.726562 -182.625 187.5625 -169 187.5625 -152.1875 L 187.5625 -115.09375 C 187.5625 -98.269531 182.726562 -84.640625 173.0625 -74.203125 C 163.394531 -63.773438 145.421875 -58.5625 119.140625 -58.5625 L 85.8125 -58.5625 L 85.8125 -10.4375 C 85.8125 -6.757812 84.988281 -4.097656 83.34375 -2.453125 C 81.695312 -0.816406 79.039062 0 75.375 0 Z M 85.234375 -154.515625 L 85.234375 -110.734375 L 111.3125 -110.734375 C 116.914062 -110.734375 120.585938 -112.179688 122.328125 -115.078125 C 124.066406 -117.984375 124.9375 -121.269531 124.9375 -124.9375 L 124.9375 -140.3125 C 124.9375 -143.976562 124.066406 -147.257812 122.328125 -150.15625 C 120.585938 -153.0625 116.914062 -154.515625 111.3125 -154.515625 Z M 85.234375 -154.515625 "/></g></g></g><g fill="#ff3131" fill-opacity="1"><g transform="translate(2763.932232, 1227.838378)"><g><path d="M 75.375 0 L 30.4375 0 C 26.769531 0 24.113281 -0.816406 22.46875 -2.453125 C 20.820312 -4.097656 20 -6.757812 20 -10.4375 L 20 -198.28125 C 20 -201.957031 20.820312 -204.613281 22.46875 -206.25 C 24.113281 -207.894531 26.769531 -208.71875 30.4375 -208.71875 L 119.140625 -208.71875 C 145.421875 -208.71875 163.394531 -203.5 173.0625 -193.0625 C 182.726562 -182.625 187.5625 -169 187.5625 -152.1875 L 187.5625 -115.09375 C 187.5625 -98.269531 182.726562 -84.640625 173.0625 -74.203125 C 163.394531 -63.773438 145.421875 -58.5625 119.140625 -58.5625 L 85.8125 -58.5625 L 85.8125 -10.4375 C 85.8125 -6.757812 84.988281 -4.097656 83.34375 -2.453125 C 81.695312 -0.816406 79.039062 0 75.375 0 Z M 85.234375 -154.515625 L 85.234375 -110.734375 L 111.3125 -110.734375 C 116.914062 -110.734375 120.585938 -112.179688 122.328125 -115.078125 C 124.066406 -117.984375 124.9375 -121.269531 124.9375 -124.9375 L 124.9375 -140.3125 C 124.9375 -143.976562 124.066406 -147.257812 122.328125 -150.15625 C 120.585938 -153.0625 116.914062 -154.515625 111.3125 -154.515625 Z M 85.234375 -154.515625 "/></g></g></g><g fill="#ff3131" fill-opacity="1"><g transform="translate(2961.632196, 1227.838378)"><g><path d="M 25.796875 0 C 22.128906 0 19.472656 -0.816406 17.828125 -2.453125 C 16.179688 -4.097656 15.359375 -6.757812 15.359375 -10.4375 L 15.359375 -44.9375 C 15.359375 -48.601562 16.179688 -51.257812 17.828125 -52.90625 C 19.472656 -54.550781 22.128906 -55.375 25.796875 -55.375 L 54.5 -55.375 L 54.5 -152.765625 L 25.796875 -152.765625 C 22.128906 -152.765625 19.472656 -153.585938 17.828125 -155.234375 C 16.179688 -156.878906 15.359375 -159.535156 15.359375 -163.203125 L 15.359375 -198.28125 C 15.359375 -201.957031 16.179688 -204.613281 17.828125 -206.25 C 19.472656 -207.894531 22.128906 -208.71875 25.796875 -208.71875 L 149.296875 -208.71875 C 152.960938 -208.71875 155.617188 -207.894531 157.265625 -206.25 C 158.910156 -204.613281 159.734375 -201.957031 159.734375 -198.28125 L 159.734375 -163.203125 C 159.734375 -159.535156 158.910156 -156.878906 157.265625 -155.234375 C 155.617188 -153.585938 152.960938 -152.765625 149.296875 -152.765625 L 121.171875 -152.765625 L 121.171875 -55.375 L 149.296875 -55.375 C 152.960938 -55.375 155.617188 -54.550781 157.265625 -52.90625 C 158.910156 -51.257812 159.734375 -48.601562 159.734375 -44.9375 L 159.734375 -10.4375 C 159.734375 -6.757812 158.910156 -4.097656 157.265625 -2.453125 C 155.617188 -0.816406 152.960938 0 149.296875 0 Z M 25.796875 0 "/></g></g></g><g fill="#ff3131" fill-opacity="1"><g transform="translate(3137.011247, 1227.838378)"><g><path d="M 73.921875 0 L 30.4375 0 C 26.769531 0 24.113281 -0.816406 22.46875 -2.453125 C 20.820312 -4.097656 20 -6.757812 20 -10.4375 L 20 -198.28125 C 20 -201.957031 20.820312 -204.613281 22.46875 -206.25 C 24.113281 -207.894531 26.769531 -208.71875 30.4375 -208.71875 L 60.59375 -208.71875 C 64.257812 -208.71875 67.394531 -208.140625 70 -206.984375 C 72.613281 -205.828125 75.175781 -203.796875 77.6875 -200.890625 L 133.921875 -136.53125 L 133.921875 -198.28125 C 133.921875 -201.957031 134.742188 -204.613281 136.390625 -206.25 C 138.035156 -207.894531 140.691406 -208.71875 144.359375 -208.71875 L 187.84375 -208.71875 C 191.519531 -208.71875 194.175781 -207.894531 195.8125 -206.25 C 197.457031 -204.613281 198.28125 -201.957031 198.28125 -198.28125 L 198.28125 -10.4375 C 198.28125 -6.757812 197.457031 -4.097656 195.8125 -2.453125 C 194.175781 -0.816406 191.519531 0 187.84375 0 L 144.359375 0 C 140.691406 0 138.035156 -0.816406 136.390625 -2.453125 C 134.742188 -4.097656 133.921875 -6.757812 133.921875 -10.4375 L 133.921875 -46.09375 L 84.359375 -106.09375 L 84.359375 -10.4375 C 84.359375 -6.757812 83.535156 -4.097656 81.890625 -2.453125 C 80.253906 -0.816406 77.597656 0 73.921875 0 Z M 73.921875 0 "/></g></g></g><g fill="#ff3131" fill-opacity="1"><g transform="translate(3355.292929, 1227.838378)"><g><path d="M 179.4375 0 L 88.125 0 C 63.96875 0 46.039062 -4.828125 34.34375 -14.484375 C 22.65625 -24.148438 16.8125 -39.035156 16.8125 -59.140625 L 16.8125 -149.578125 C 16.8125 -169.679688 22.65625 -184.5625 34.34375 -194.21875 C 46.039062 -203.882812 63.96875 -208.71875 88.125 -208.71875 L 160.59375 -208.71875 C 164.269531 -208.71875 166.925781 -207.894531 168.5625 -206.25 C 170.207031 -204.613281 171.03125 -201.957031 171.03125 -198.28125 L 171.03125 -163.203125 C 171.03125 -159.535156 170.207031 -156.878906 168.5625 -155.234375 C 166.925781 -153.585938 164.269531 -152.765625 160.59375 -152.765625 L 100.296875 -152.765625 C 94.304688 -152.765625 89.863281 -151.554688 86.96875 -149.140625 C 84.070312 -146.734375 82.625 -143.113281 82.625 -138.28125 L 82.625 -69 C 82.625 -64.164062 83.734375 -60.585938 85.953125 -58.265625 C 88.171875 -55.953125 91.503906 -54.796875 95.953125 -54.796875 L 124.078125 -54.796875 L 124.078125 -100.015625 C 124.078125 -103.679688 124.894531 -106.335938 126.53125 -107.984375 C 128.175781 -109.628906 130.835938 -110.453125 134.515625 -110.453125 L 179.4375 -110.453125 C 183.113281 -110.453125 185.769531 -109.628906 187.40625 -107.984375 C 189.050781 -106.335938 189.875 -103.679688 189.875 -100.015625 L 189.875 -10.4375 C 189.875 -6.757812 189.050781 -4.097656 187.40625 -2.453125 C 185.769531 -0.816406 183.113281 0 179.4375 0 Z M 179.4375 0 "/></g></g></g><g fill="#231f20" fill-opacity="1"><g transform="translate(3560.537967, 1227.838378)"><g/></g></g><g fill="#231f20" fill-opacity="1"><g transform="translate(3625.761576, 1227.838378)"><g><path d="M 95.65625 -147.84375 L 82.03125 -103.78125 L 127.546875 -103.78125 L 113.921875 -147.84375 C 113.148438 -149.582031 112.328125 -150.835938 111.453125 -151.609375 C 110.585938 -152.378906 109.578125 -152.765625 108.421875 -152.765625 L 101.171875 -152.765625 C 100.015625 -152.765625 99 -152.378906 98.125 -151.609375 C 97.257812 -150.835938 96.4375 -149.582031 95.65625 -147.84375 Z M 79.140625 -10.4375 C 79.140625 -6.757812 78.316406 -4.097656 76.671875 -2.453125 C 75.035156 -0.816406 72.378906 0 68.703125 0 L 26.09375 0 C 22.414062 0 19.753906 -0.816406 18.109375 -2.453125 C 16.472656 -4.097656 15.65625 -6.757812 15.65625 -10.4375 L 15.65625 -86.96875 C 15.65625 -92.757812 16.570312 -99.425781 18.40625 -106.96875 C 20.238281 -114.507812 23.085938 -123.300781 26.953125 -133.34375 L 52.1875 -199.15625 C 53.34375 -202.4375 55.128906 -204.847656 57.546875 -206.390625 C 59.960938 -207.941406 63.101562 -208.71875 66.96875 -208.71875 L 144.9375 -208.71875 C 148.613281 -208.71875 151.660156 -207.941406 154.078125 -206.390625 C 156.492188 -204.847656 158.28125 -202.4375 159.4375 -199.15625 L 184.65625 -133.34375 C 188.519531 -123.300781 191.367188 -114.507812 193.203125 -106.96875 C 195.046875 -99.425781 195.96875 -92.757812 195.96875 -86.96875 L 195.96875 -10.4375 C 195.96875 -6.757812 195.144531 -4.097656 193.5 -2.453125 C 191.851562 -0.816406 189.195312 0 185.53125 0 L 141.75 0 C 137.882812 0 135.035156 -0.816406 133.203125 -2.453125 C 131.367188 -4.097656 130.453125 -6.757812 130.453125 -10.4375 L 130.453125 -51.015625 L 79.140625 -51.015625 Z M 79.140625 -10.4375 "/></g></g></g><g fill="#231f20" fill-opacity="1"><g transform="translate(3837.375938, 1227.838378)"><g><path d="M 73.921875 0 L 30.4375 0 C 26.769531 0 24.113281 -0.816406 22.46875 -2.453125 C 20.820312 -4.097656 20 -6.757812 20 -10.4375 L 20 -198.28125 C 20 -201.957031 20.820312 -204.613281 22.46875 -206.25 C 24.113281 -207.894531 26.769531 -208.71875 30.4375 -208.71875 L 60.59375 -208.71875 C 64.257812 -208.71875 67.394531 -208.140625 70 -206.984375 C 72.613281 -205.828125 75.175781 -203.796875 77.6875 -200.890625 L 133.921875 -136.53125 L 133.921875 -198.28125 C 133.921875 -201.957031 134.742188 -204.613281 136.390625 -206.25 C 138.035156 -207.894531 140.691406 -208.71875 144.359375 -208.71875 L 187.84375 -208.71875 C 191.519531 -208.71875 194.175781 -207.894531 195.8125 -206.25 C 197.457031 -204.613281 198.28125 -201.957031 198.28125 -198.28125 L 198.28125 -10.4375 C 198.28125 -6.757812 197.457031 -4.097656 195.8125 -2.453125 C 194.175781 -0.816406 191.519531 0 187.84375 0 L 144.359375 0 C 140.691406 0 138.035156 -0.816406 136.390625 -2.453125 C 134.742188 -4.097656 133.921875 -6.757812 133.921875 -10.4375 L 133.921875 -46.09375 L 84.359375 -106.09375 L 84.359375 -10.4375 C 84.359375 -6.757812 83.535156 -4.097656 81.890625 -2.453125 C 80.253906 -0.816406 77.597656 0 73.921875 0 Z M 73.921875 0 "/></g></g></g><g fill="#231f20" fill-opacity="1"><g transform="translate(4055.657621, 1227.838378)"><g><path d="M 128.125 0 L 30.4375 0 C 26.769531 0 24.113281 -0.816406 22.46875 -2.453125 C 20.820312 -4.097656 20 -6.757812 20 -10.4375 L 20 -198.28125 C 20 -201.957031 20.820312 -204.613281 22.46875 -206.25 C 24.113281 -207.894531 26.769531 -208.71875 30.4375 -208.71875 L 128.125 -208.71875 C 152.289062 -208.71875 170.21875 -203.882812 181.90625 -194.21875 C 193.59375 -184.5625 199.4375 -169.679688 199.4375 -149.578125 L 199.4375 -59.140625 C 199.4375 -39.035156 193.59375 -24.148438 181.90625 -14.484375 C 170.21875 -4.828125 152.289062 0 128.125 0 Z M 85.8125 -153.359375 L 85.8125 -54.796875 L 120.296875 -54.796875 C 124.941406 -54.796875 128.375 -55.953125 130.59375 -58.265625 C 132.8125 -60.585938 133.921875 -64.164062 133.921875 -69 L 133.921875 -139.4375 C 133.921875 -144.269531 132.8125 -147.796875 130.59375 -150.015625 C 128.375 -152.242188 124.941406 -153.359375 120.296875 -153.359375 Z M 85.8125 -153.359375 "/></g></g></g><g fill="#231f20" fill-opacity="1"><g transform="translate(1705.425606, 1633.431882)"><g><path d="M 128.125 0 L 30.4375 0 C 26.769531 0 24.113281 -0.816406 22.46875 -2.453125 C 20.820312 -4.097656 20 -6.757812 20 -10.4375 L 20 -198.28125 C 20 -201.957031 20.820312 -204.613281 22.46875 -206.25 C 24.113281 -207.894531 26.769531 -208.71875 30.4375 -208.71875 L 128.125 -208.71875 C 152.289062 -208.71875 170.21875 -203.882812 181.90625 -194.21875 C 193.59375 -184.5625 199.4375 -169.679688 199.4375 -149.578125 L 199.4375 -59.140625 C 199.4375 -39.035156 193.59375 -24.148438 181.90625 -14.484375 C 170.21875 -4.828125 152.289062 0 128.125 0 Z M 85.8125 -153.359375 L 85.8125 -54.796875 L 120.296875 -54.796875 C 124.941406 -54.796875 128.375 -55.953125 130.59375 -58.265625 C 132.8125 -60.585938 133.921875 -64.164062 133.921875 -69 L 133.921875 -139.4375 C 133.921875 -144.269531 132.8125 -147.796875 130.59375 -150.015625 C 128.375 -152.242188 124.941406 -153.359375 120.296875 -153.359375 Z M 85.8125 -153.359375 "/></g></g></g><g fill="#231f20" fill-opacity="1"><g transform="translate(1921.678024, 1633.431882)"><g><path d="M 164.953125 0 L 30.4375 0 C 26.769531 0 24.113281 -0.816406 22.46875 -2.453125 C 20.820312 -4.097656 20 -6.757812 20 -10.4375 L 20 -198.28125 C 20 -201.957031 20.820312 -204.613281 22.46875 -206.25 C 24.113281 -207.894531 26.769531 -208.71875 30.4375 -208.71875 L 164.953125 -208.71875 C 168.617188 -208.71875 171.273438 -207.894531 172.921875 -206.25 C 174.566406 -204.613281 175.390625 -201.957031 175.390625 -198.28125 L 175.390625 -164.375 C 175.390625 -160.695312 174.566406 -158.035156 172.921875 -156.390625 C 171.273438 -154.753906 168.617188 -153.9375 164.953125 -153.9375 L 84.9375 -153.9375 L 84.9375 -131.609375 L 141.46875 -131.609375 C 145.132812 -131.609375 147.789062 -130.785156 149.4375 -129.140625 C 151.082031 -127.503906 151.90625 -124.847656 151.90625 -121.171875 L 151.90625 -90.15625 C 151.90625 -86.476562 151.082031 -83.816406 149.4375 -82.171875 C 147.789062 -80.535156 145.132812 -79.71875 141.46875 -79.71875 L 84.9375 -79.71875 L 84.9375 -54.796875 L 164.953125 -54.796875 C 168.617188 -54.796875 171.273438 -53.972656 172.921875 -52.328125 C 174.566406 -50.679688 175.390625 -48.023438 175.390625 -44.359375 L 175.390625 -10.4375 C 175.390625 -6.757812 174.566406 -4.097656 172.921875 -2.453125 C 171.273438 -0.816406 168.617188 0 164.953125 0 Z M 164.953125 0 "/></g></g></g><g fill="#231f20" fill-opacity="1"><g transform="translate(2111.26126, 1633.431882)"><g><path d="M 178 0 L 30.4375 0 C 26.769531 0 24.113281 -0.816406 22.46875 -2.453125 C 20.820312 -4.097656 20 -6.757812 20 -10.4375 L 20 -198.28125 C 20 -201.957031 20.820312 -204.613281 22.46875 -206.25 C 24.113281 -207.894531 26.769531 -208.71875 30.4375 -208.71875 L 75.375 -208.71875 C 79.039062 -208.71875 81.695312 -207.894531 83.34375 -206.25 C 84.988281 -204.613281 85.8125 -201.957031 85.8125 -198.28125 L 85.8125 -54.796875 L 125.515625 -54.796875 L 125.515625 -101.75 C 125.515625 -105.425781 126.335938 -108.082031 127.984375 -109.71875 C 129.628906 -111.363281 132.285156 -112.1875 135.953125 -112.1875 L 178 -112.1875 C 181.664062 -112.1875 184.316406 -111.363281 185.953125 -109.71875 C 187.597656 -108.082031 188.421875 -105.425781 188.421875 -101.75 L 188.421875 -10.4375 C 188.421875 -6.757812 187.597656 -4.097656 185.953125 -2.453125 C 184.316406 -0.816406 181.664062 0 178 0 Z M 178 0 "/></g></g></g><g fill="#231f20" fill-opacity="1"><g transform="translate(2312.729682, 1633.431882)"><g><path d="M 25.796875 0 C 22.128906 0 19.472656 -0.816406 17.828125 -2.453125 C 16.179688 -4.097656 15.359375 -6.757812 15.359375 -10.4375 L 15.359375 -44.9375 C 15.359375 -48.601562 16.179688 -51.257812 17.828125 -52.90625 C 19.472656 -54.550781 22.128906 -55.375 25.796875 -55.375 L 54.5 -55.375 L 54.5 -152.765625 L 25.796875 -152.765625 C 22.128906 -152.765625 19.472656 -153.585938 17.828125 -155.234375 C 16.179688 -156.878906 15.359375 -159.535156 15.359375 -163.203125 L 15.359375 -198.28125 C 15.359375 -201.957031 16.179688 -204.613281 17.828125 -206.25 C 19.472656 -207.894531 22.128906 -208.71875 25.796875 -208.71875 L 149.296875 -208.71875 C 152.960938 -208.71875 155.617188 -207.894531 157.265625 -206.25 C 158.910156 -204.613281 159.734375 -201.957031 159.734375 -198.28125 L 159.734375 -163.203125 C 159.734375 -159.535156 158.910156 -156.878906 157.265625 -155.234375 C 155.617188 -153.585938 152.960938 -152.765625 149.296875 -152.765625 L 121.171875 -152.765625 L 121.171875 -55.375 L 149.296875 -55.375 C 152.960938 -55.375 155.617188 -54.550781 157.265625 -52.90625 C 158.910156 -51.257812 159.734375 -48.601562 159.734375 -44.9375 L 159.734375 -10.4375 C 159.734375 -6.757812 158.910156 -4.097656 157.265625 -2.453125 C 155.617188 -0.816406 152.960938 0 149.296875 0 Z M 25.796875 0 "/></g></g></g><g fill="#231f20" fill-opacity="1"><g transform="translate(2488.108681, 1633.431882)"><g><path d="M 143.5 0 L 68.125 0 C 64.445312 0 61.398438 -0.675781 58.984375 -2.03125 C 56.578125 -3.382812 54.695312 -5.894531 53.34375 -9.5625 L 24.9375 -80.59375 C 23.195312 -84.84375 21.742188 -88.5625 20.578125 -91.75 C 19.421875 -94.9375 18.457031 -97.976562 17.6875 -100.875 C 16.914062 -103.78125 16.382812 -106.828125 16.09375 -110.015625 C 15.800781 -113.203125 15.65625 -117.113281 15.65625 -121.75 L 15.65625 -198.28125 C 15.65625 -201.957031 16.472656 -204.613281 18.109375 -206.25 C 19.753906 -207.894531 22.414062 -208.71875 26.09375 -208.71875 L 72.1875 -208.71875 C 75.851562 -208.71875 78.648438 -207.894531 80.578125 -206.25 C 82.515625 -204.613281 83.484375 -201.957031 83.484375 -198.28125 L 83.484375 -118.28125 C 83.484375 -116.34375 83.675781 -114.40625 84.0625 -112.46875 C 84.445312 -110.539062 85.03125 -108.515625 85.8125 -106.390625 L 99.4375 -65.8125 C 100.007812 -63.875 100.679688 -62.566406 101.453125 -61.890625 C 102.234375 -61.210938 103.394531 -60.875 104.9375 -60.875 L 108.125 -60.875 C 109.675781 -60.875 110.835938 -61.210938 111.609375 -61.890625 C 112.378906 -62.566406 113.054688 -63.875 113.640625 -65.8125 L 127.265625 -106.6875 C 128.035156 -108.8125 128.613281 -110.835938 129 -112.765625 C 129.382812 -114.703125 129.578125 -116.632812 129.578125 -118.5625 L 129.578125 -198.28125 C 129.578125 -201.957031 130.398438 -204.613281 132.046875 -206.25 C 133.691406 -207.894531 136.347656 -208.71875 140.015625 -208.71875 L 185.53125 -208.71875 C 189.195312 -208.71875 191.851562 -207.894531 193.5 -206.25 C 195.144531 -204.613281 195.96875 -201.957031 195.96875 -198.28125 L 195.96875 -121.75 C 195.96875 -117.113281 195.820312 -113.203125 195.53125 -110.015625 C 195.238281 -106.828125 194.707031 -103.78125 193.9375 -100.875 C 193.164062 -97.976562 192.195312 -94.9375 191.03125 -91.75 C 189.875 -88.5625 188.425781 -84.84375 186.6875 -80.59375 L 158.28125 -9.5625 C 156.925781 -5.894531 155.039062 -3.382812 152.625 -2.03125 C 150.207031 -0.675781 147.164062 0 143.5 0 Z M 143.5 0 "/></g></g></g><g fill="#231f20" fill-opacity="1"><g transform="translate(2699.723043, 1633.431882)"><g><path d="M 164.953125 0 L 30.4375 0 C 26.769531 0 24.113281 -0.816406 22.46875 -2.453125 C 20.820312 -4.097656 20 -6.757812 20 -10.4375 L 20 -198.28125 C 20 -201.957031 20.820312 -204.613281 22.46875 -206.25 C 24.113281 -207.894531 26.769531 -208.71875 30.4375 -208.71875 L 164.953125 -208.71875 C 168.617188 -208.71875 171.273438 -207.894531 172.921875 -206.25 C 174.566406 -204.613281 175.390625 -201.957031 175.390625 -198.28125 L 175.390625 -164.375 C 175.390625 -160.695312 174.566406 -158.035156 172.921875 -156.390625 C 171.273438 -154.753906 168.617188 -153.9375 164.953125 -153.9375 L 84.9375 -153.9375 L 84.9375 -131.609375 L 141.46875 -131.609375 C 145.132812 -131.609375 147.789062 -130.785156 149.4375 -129.140625 C 151.082031 -127.503906 151.90625 -124.847656 151.90625 -121.171875 L 151.90625 -90.15625 C 151.90625 -86.476562 151.082031 -83.816406 149.4375 -82.171875 C 147.789062 -80.535156 145.132812 -79.71875 141.46875 -79.71875 L 84.9375 -79.71875 L 84.9375 -54.796875 L 164.953125 -54.796875 C 168.617188 -54.796875 171.273438 -53.972656 172.921875 -52.328125 C 174.566406 -50.679688 175.390625 -48.023438 175.390625 -44.359375 L 175.390625 -10.4375 C 175.390625 -6.757812 174.566406 -4.097656 172.921875 -2.453125 C 171.273438 -0.816406 168.617188 0 164.953125 0 Z M 164.953125 0 "/></g></g></g><g fill="#231f20" fill-opacity="1"><g transform="translate(2889.306323, 1633.431882)"><g><path d="M 85.515625 -156.546875 L 85.515625 -119.4375 L 107.265625 -119.4375 C 112.285156 -119.4375 115.664062 -120.738281 117.40625 -123.34375 C 119.144531 -125.957031 120.015625 -129.195312 120.015625 -133.0625 L 120.015625 -142.921875 C 120.015625 -146.785156 119.144531 -150.019531 117.40625 -152.625 C 115.664062 -155.238281 112.285156 -156.546875 107.265625 -156.546875 Z M 75.078125 0 L 30.4375 0 C 26.769531 0 24.113281 -0.816406 22.46875 -2.453125 C 20.820312 -4.097656 20 -6.757812 20 -10.4375 L 20 -198.28125 C 20 -201.957031 20.820312 -204.613281 22.46875 -206.25 C 24.113281 -207.894531 26.769531 -208.71875 30.4375 -208.71875 L 126.96875 -208.71875 C 148.613281 -208.71875 163.539062 -204.222656 171.75 -195.234375 C 179.96875 -186.253906 184.078125 -174.613281 184.078125 -160.3125 L 184.078125 -146.96875 C 184.078125 -138.851562 182.867188 -131.945312 180.453125 -126.25 C 178.035156 -120.550781 173.832031 -116.441406 167.84375 -113.921875 C 178.28125 -112.765625 186.734375 -108.515625 193.203125 -101.171875 C 199.679688 -93.828125 202.921875 -84.066406 202.921875 -71.890625 L 202.921875 -10.4375 C 202.921875 -6.757812 202.097656 -4.097656 200.453125 -2.453125 C 198.816406 -0.816406 196.160156 0 192.484375 0 L 147.546875 0 C 143.878906 0 141.222656 -0.816406 139.578125 -2.453125 C 137.941406 -4.097656 137.125 -6.757812 137.125 -10.4375 L 137.125 -54.796875 C 137.125 -59.046875 136.300781 -62.179688 134.65625 -64.203125 C 133.007812 -66.234375 130.160156 -67.25 126.109375 -67.25 L 85.515625 -67.25 L 85.515625 -10.4375 C 85.515625 -6.757812 84.691406 -4.097656 83.046875 -2.453125 C 81.410156 -0.816406 78.753906 0 75.078125 0 Z M 75.078125 0 "/></g></g></g><g fill="#231f20" fill-opacity="1"><g transform="translate(3104.689189, 1633.431882)"><g><path d="M 125.8125 0 L 78.84375 0 C 75.175781 0 72.519531 -0.816406 70.875 -2.453125 C 69.238281 -4.097656 68.421875 -6.757812 68.421875 -10.4375 L 68.421875 -47.546875 L 24.0625 -106.96875 C 19.613281 -112.957031 16.664062 -118.175781 15.21875 -122.625 C 13.769531 -127.070312 13.046875 -133.738281 13.046875 -142.625 L 13.046875 -198.28125 C 13.046875 -201.957031 13.863281 -204.613281 15.5 -206.25 C 17.144531 -207.894531 19.804688 -208.71875 23.484375 -208.71875 L 68.125 -208.71875 C 71.789062 -208.71875 74.445312 -207.894531 76.09375 -206.25 C 77.738281 -204.613281 78.5625 -201.957031 78.5625 -198.28125 L 78.5625 -150.75 C 78.5625 -148.8125 78.65625 -146.78125 78.84375 -144.65625 C 79.039062 -142.53125 79.816406 -140.5 81.171875 -138.5625 L 94.5 -117.703125 C 95.46875 -115.960938 96.484375 -114.703125 97.546875 -113.921875 C 98.609375 -113.148438 99.914062 -112.765625 101.46875 -112.765625 L 104.359375 -112.765625 C 105.910156 -112.765625 107.21875 -113.148438 108.28125 -113.921875 C 109.34375 -114.703125 110.351562 -115.960938 111.3125 -117.703125 L 124.65625 -138.5625 C 126.007812 -140.5 126.78125 -142.53125 126.96875 -144.65625 C 127.164062 -146.78125 127.265625 -148.8125 127.265625 -150.75 L 127.265625 -198.28125 C 127.265625 -201.957031 128.082031 -204.613281 129.71875 -206.25 C 131.363281 -207.894531 134.023438 -208.71875 137.703125 -208.71875 L 180.890625 -208.71875 C 184.566406 -208.71875 187.222656 -207.894531 188.859375 -206.25 C 190.503906 -204.613281 191.328125 -201.957031 191.328125 -198.28125 L 191.328125 -142.625 C 191.328125 -133.738281 190.550781 -127.070312 189 -122.625 C 187.457031 -118.175781 184.5625 -112.957031 180.3125 -106.96875 L 136.25 -47.25 L 136.25 -10.4375 C 136.25 -6.757812 135.425781 -4.097656 133.78125 -2.453125 C 132.144531 -0.816406 129.488281 0 125.8125 0 Z M 125.8125 0 "/></g></g></g><g fill="#231f20" fill-opacity="1"><g transform="translate(3309.056473, 1633.431882)"><g/></g></g><g fill="#ffde59" fill-opacity="1"><g transform="translate(3374.281707, 1633.431882)"><g><path d="M 75.375 0 L 30.4375 0 C 26.769531 0 24.113281 -0.816406 22.46875 -2.453125 C 20.820312 -4.097656 20 -6.757812 20 -10.4375 L 20 -198.28125 C 20 -201.957031 20.820312 -204.613281 22.46875 -206.25 C 24.113281 -207.894531 26.769531 -208.71875 30.4375 -208.71875 L 119.140625 -208.71875 C 145.421875 -208.71875 163.394531 -203.5 173.0625 -193.0625 C 182.726562 -182.625 187.5625 -169 187.5625 -152.1875 L 187.5625 -115.09375 C 187.5625 -98.269531 182.726562 -84.640625 173.0625 -74.203125 C 163.394531 -63.773438 145.421875 -58.5625 119.140625 -58.5625 L 85.8125 -58.5625 L 85.8125 -10.4375 C 85.8125 -6.757812 84.988281 -4.097656 83.34375 -2.453125 C 81.695312 -0.816406 79.039062 0 75.375 0 Z M 85.234375 -154.515625 L 85.234375 -110.734375 L 111.3125 -110.734375 C 116.914062 -110.734375 120.585938 -112.179688 122.328125 -115.078125 C 124.066406 -117.984375 124.9375 -121.269531 124.9375 -124.9375 L 124.9375 -140.3125 C 124.9375 -143.976562 124.066406 -147.257812 122.328125 -150.15625 C 120.585938 -153.0625 116.914062 -154.515625 111.3125 -154.515625 Z M 85.234375 -154.515625 "/></g></g></g><g fill="#ffde59" fill-opacity="1"><g transform="translate(3571.981649, 1633.431882)"><g><path d="M 196.828125 -54.796875 C 196.828125 -45.898438 195.523438 -37.828125 192.921875 -30.578125 C 190.316406 -23.335938 185.675781 -17.15625 179 -12.03125 C 172.332031 -6.90625 163.148438 -2.894531 151.453125 0 C 139.765625 2.894531 124.9375 4.34375 106.96875 4.34375 C 89 4.34375 74.117188 2.894531 62.328125 0 C 50.535156 -2.894531 41.304688 -6.90625 34.640625 -12.03125 C 27.972656 -17.15625 23.332031 -23.335938 20.71875 -30.578125 C 18.113281 -37.828125 16.8125 -45.898438 16.8125 -54.796875 L 16.8125 -153.640625 C 16.8125 -162.535156 18.113281 -170.601562 20.71875 -177.84375 C 23.332031 -185.09375 27.972656 -191.328125 34.640625 -196.546875 C 41.304688 -201.765625 50.535156 -205.820312 62.328125 -208.71875 C 74.117188 -211.613281 89 -213.0625 106.96875 -213.0625 C 124.9375 -213.0625 139.765625 -211.613281 151.453125 -208.71875 C 163.148438 -205.820312 172.332031 -201.765625 179 -196.546875 C 185.675781 -191.328125 190.316406 -185.09375 192.921875 -177.84375 C 195.523438 -170.601562 196.828125 -162.535156 196.828125 -153.640625 Z M 82.625 -65.21875 C 82.625 -61.351562 84.070312 -58.113281 86.96875 -55.5 C 89.863281 -52.894531 96.53125 -51.59375 106.96875 -51.59375 C 117.40625 -51.59375 124.070312 -52.894531 126.96875 -55.5 C 129.875 -58.113281 131.328125 -61.351562 131.328125 -65.21875 L 131.328125 -143.203125 C 131.328125 -146.878906 129.875 -150.019531 126.96875 -152.625 C 124.070312 -155.238281 117.40625 -156.546875 106.96875 -156.546875 C 96.53125 -156.546875 89.863281 -155.238281 86.96875 -152.625 C 84.070312 -150.019531 82.625 -146.878906 82.625 -143.203125 Z M 82.625 -65.21875 "/></g></g></g><g fill="#ffde59" fill-opacity="1"><g transform="translate(3785.625163, 1633.431882)"><g><path d="M 178 0 L 30.4375 0 C 26.769531 0 24.113281 -0.816406 22.46875 -2.453125 C 20.820312 -4.097656 20 -6.757812 20 -10.4375 L 20 -198.28125 C 20 -201.957031 20.820312 -204.613281 22.46875 -206.25 C 24.113281 -207.894531 26.769531 -208.71875 30.4375 -208.71875 L 75.375 -208.71875 C 79.039062 -208.71875 81.695312 -207.894531 83.34375 -206.25 C 84.988281 -204.613281 85.8125 -201.957031 85.8125 -198.28125 L 85.8125 -54.796875 L 125.515625 -54.796875 L 125.515625 -101.75 C 125.515625 -105.425781 126.335938 -108.082031 127.984375 -109.71875 C 129.628906 -111.363281 132.285156 -112.1875 135.953125 -112.1875 L 178 -112.1875 C 181.664062 -112.1875 184.316406 -111.363281 185.953125 -109.71875 C 187.597656 -108.082031 188.421875 -105.425781 188.421875 -101.75 L 188.421875 -10.4375 C 188.421875 -6.757812 187.597656 -4.097656 185.953125 -2.453125 C 184.316406 -0.816406 181.664062 0 178 0 Z M 178 0 "/></g></g></g><g fill="#ffde59" fill-opacity="1"><g transform="translate(3987.093585, 1633.431882)"><g><path d="M 25.796875 0 C 22.128906 0 19.472656 -0.816406 17.828125 -2.453125 C 16.179688 -4.097656 15.359375 -6.757812 15.359375 -10.4375 L 15.359375 -44.9375 C 15.359375 -48.601562 16.179688 -51.257812 17.828125 -52.90625 C 19.472656 -54.550781 22.128906 -55.375 25.796875 -55.375 L 54.5 -55.375 L 54.5 -152.765625 L 25.796875 -152.765625 C 22.128906 -152.765625 19.472656 -153.585938 17.828125 -155.234375 C 16.179688 -156.878906 15.359375 -159.535156 15.359375 -163.203125 L 15.359375 -198.28125 C 15.359375 -201.957031 16.179688 -204.613281 17.828125 -206.25 C 19.472656 -207.894531 22.128906 -208.71875 25.796875 -208.71875 L 149.296875 -208.71875 C 152.960938 -208.71875 155.617188 -207.894531 157.265625 -206.25 C 158.910156 -204.613281 159.734375 -201.957031 159.734375 -198.28125 L 159.734375 -163.203125 C 159.734375 -159.535156 158.910156 -156.878906 157.265625 -155.234375 C 155.617188 -153.585938 152.960938 -152.765625 149.296875 -152.765625 L 121.171875 -152.765625 L 121.171875 -55.375 L 149.296875 -55.375 C 152.960938 -55.375 155.617188 -54.550781 157.265625 -52.90625 C 158.910156 -51.257812 159.734375 -48.601562 159.734375 -44.9375 L 159.734375 -10.4375 C 159.734375 -6.757812 158.910156 -4.097656 157.265625 -2.453125 C 155.617188 -0.816406 152.960938 0 149.296875 0 Z M 25.796875 0 "/></g></g></g><g fill="#ffde59" fill-opacity="1"><g transform="translate(4162.472584, 1633.431882)"><g><path d="M 158.859375 0 L 88.125 0 C 63.96875 0 46.039062 -4.828125 34.34375 -14.484375 C 22.65625 -24.148438 16.8125 -39.035156 16.8125 -59.140625 L 16.8125 -149.296875 C 16.8125 -169.390625 22.65625 -184.316406 34.34375 -194.078125 C 46.039062 -203.835938 63.96875 -208.71875 88.125 -208.71875 L 158.859375 -208.71875 C 162.535156 -208.71875 165.191406 -207.894531 166.828125 -206.25 C 168.472656 -204.613281 169.296875 -201.957031 169.296875 -198.28125 L 169.296875 -163.203125 C 169.296875 -159.535156 168.472656 -156.878906 166.828125 -155.234375 C 165.191406 -153.585938 162.535156 -152.765625 158.859375 -152.765625 L 100.59375 -152.765625 C 94.601562 -152.765625 90.15625 -151.554688 87.25 -149.140625 C 84.351562 -146.734375 82.90625 -143.113281 82.90625 -138.28125 L 82.90625 -69.28125 C 82.90625 -64.445312 84.351562 -60.921875 87.25 -58.703125 C 90.15625 -56.484375 94.601562 -55.375 100.59375 -55.375 L 158.859375 -55.375 C 162.535156 -55.375 165.191406 -54.550781 166.828125 -52.90625 C 168.472656 -51.257812 169.296875 -48.601562 169.296875 -44.9375 L 169.296875 -10.4375 C 169.296875 -6.757812 168.472656 -4.097656 166.828125 -2.453125 C 165.191406 -0.816406 162.535156 0 158.859375 0 Z M 158.859375 0 "/></g></g></g><g fill="#ffde59" fill-opacity="1"><g transform="translate(4344.518858, 1633.431882)"><g><path d="M 125.8125 0 L 78.84375 0 C 75.175781 0 72.519531 -0.816406 70.875 -2.453125 C 69.238281 -4.097656 68.421875 -6.757812 68.421875 -10.4375 L 68.421875 -47.546875 L 24.0625 -106.96875 C 19.613281 -112.957031 16.664062 -118.175781 15.21875 -122.625 C 13.769531 -127.070312 13.046875 -133.738281 13.046875 -142.625 L 13.046875 -198.28125 C 13.046875 -201.957031 13.863281 -204.613281 15.5 -206.25 C 17.144531 -207.894531 19.804688 -208.71875 23.484375 -208.71875 L 68.125 -208.71875 C 71.789062 -208.71875 74.445312 -207.894531 76.09375 -206.25 C 77.738281 -204.613281 78.5625 -201.957031 78.5625 -198.28125 L 78.5625 -150.75 C 78.5625 -148.8125 78.65625 -146.78125 78.84375 -144.65625 C 79.039062 -142.53125 79.816406 -140.5 81.171875 -138.5625 L 94.5 -117.703125 C 95.46875 -115.960938 96.484375 -114.703125 97.546875 -113.921875 C 98.609375 -113.148438 99.914062 -112.765625 101.46875 -112.765625 L 104.359375 -112.765625 C 105.910156 -112.765625 107.21875 -113.148438 108.28125 -113.921875 C 109.34375 -114.703125 110.351562 -115.960938 111.3125 -117.703125 L 124.65625 -138.5625 C 126.007812 -140.5 126.78125 -142.53125 126.96875 -144.65625 C 127.164062 -146.78125 127.265625 -148.8125 127.265625 -150.75 L 127.265625 -198.28125 C 127.265625 -201.957031 128.082031 -204.613281 129.71875 -206.25 C 131.363281 -207.894531 134.023438 -208.71875 137.703125 -208.71875 L 180.890625 -208.71875 C 184.566406 -208.71875 187.222656 -207.894531 188.859375 -206.25 C 190.503906 -204.613281 191.328125 -201.957031 191.328125 -198.28125 L 191.328125 -142.625 C 191.328125 -133.738281 190.550781 -127.070312 189 -122.625 C 187.457031 -118.175781 184.5625 -112.957031 180.3125 -106.96875 L 136.25 -47.25 L 136.25 -10.4375 C 136.25 -6.757812 135.425781 -4.097656 133.78125 -2.453125 C 132.144531 -0.816406 129.488281 0 125.8125 0 Z M 125.8125 0 "/></g></g></g></svg>