<svg xmlns="http://www.w3.org/2000/svg" xmlns:xlink="http://www.w3.org/1999/xlink" width="6912" zoomAndPan="magnify" viewBox="0 0 5184 2592.000001" height="3456" preserveAspectRatio="xMidYMid meet" version="1.0"><defs><g/><clipPath id="5758caf362"><path d="M 265 627.761719 L 1315.691406 627.761719 L 1315.691406 2025.972656 L 265 2025.972656 Z M 265 627.761719 " clip-rule="nonzero"/></clipPath></defs><g clip-path="url(#5758caf362)"><path fill="#000000" d="M 766.320312 627.761719 C 571.3125 627.761719 413.257812 785.855469 413.257812 980.84375 C 413.257812 1059.046875 439.09375 1131.054688 482.148438 1189.554688 L 281.800781 1387.371094 C 260.542969 1408.34375 260.449219 1442.792969 281.421875 1464.019531 L 330.070312 1513.179688 C 348.179688 1531.515625 376.238281 1533.992188 397.210938 1520.804688 L 454.3125 1577.910156 C 457.269531 1613.085938 468.007812 1647.726562 486.40625 1679.375 L 476.777344 1690.308594 L 450.402344 1718.492188 L 450.339844 1718.492188 C 439.1875 1730.472656 433.085938 1746.425781 433.53125 1763.109375 C 433.976562 1779.917969 441.378906 1795.523438 453.390625 1806.675781 C 453.421875 1806.707031 453.453125 1806.769531 453.519531 1806.804688 C 459.90625 1812.585938 467.246094 1816.398438 475 1819.292969 C 473.09375 1825.425781 470.996094 1831.527344 471.28125 1838.421875 C 471.726562 1855.167969 478.96875 1870.738281 490.949219 1881.863281 C 502.898438 1892.984375 518.117188 1898.609375 533.59375 1898.609375 C 538.488281 1898.609375 543.125 1897.113281 547.796875 1895.9375 C 551.039062 1904.964844 555.773438 1913.511719 562.828125 1920.21875 L 562.890625 1920.28125 C 574.839844 1931.402344 590.027344 1936.964844 605.40625 1936.964844 C 613.511719 1936.964844 621.199219 1934.867188 628.570312 1931.878906 C 631.84375 1938.902344 635.976562 1945.511719 641.917969 1950.820312 C 653.832031 1961.84375 668.894531 1967.503906 684.304688 1967.503906 C 700.894531 1967.503906 717.863281 1961.242188 730 1947.832031 L 730.859375 1946.972656 L 760.949219 1978.6875 L 783.542969 2002.394531 C 797.460938 2017.011719 816.335938 2025.433594 836.542969 2025.910156 C 837.085938 2025.910156 837.71875 2025.972656 838.484375 2025.972656 C 857.960938 2025.972656 876.519531 2018.601562 890.691406 2005.125 C 904.195312 1992.289062 911.1875 1974.90625 912.839844 1956.953125 C 929.332031 1955.492188 945.535156 1949.546875 958.40625 1937.28125 C 972.671875 1923.679688 979.347656 1905.378906 980.488281 1886.753906 C 982.238281 1886.882812 983.890625 1887.199219 985.636719 1887.199219 C 1004.386719 1887.199219 1023.195312 1880.242188 1037.84375 1866.355469 C 1052.589844 1852.339844 1061.011719 1833.210938 1061.359375 1812.839844 L 1061.359375 1812.777344 C 1061.359375 1812.585938 1061.296875 1812.332031 1061.296875 1812.140625 C 1061.964844 1812.140625 1062.664062 1812.332031 1063.328125 1812.332031 C 1081.886719 1812.332031 1100.410156 1805.308594 1114.902344 1791.550781 C 1129.675781 1777.472656 1138.066406 1758.277344 1138.226562 1737.878906 C 1138.382812 1717.476562 1130.34375 1698.21875 1115.824219 1683.953125 L 1108.261719 1676.386719 C 1127.992188 1632.917969 1135.429688 1588.9375 1129.105469 1545.117188 L 1184.203125 1489.949219 C 1204.953125 1503.105469 1232.789062 1500.914062 1251.0625 1482.863281 L 1300.347656 1434.210938 C 1310.992188 1423.726562 1316.328125 1409.773438 1316.425781 1395.984375 C 1316.488281 1382.128906 1311.214844 1368.179688 1300.726562 1357.566406 L 1082.269531 1136.363281 C 1105.527344 1089.363281 1119.445312 1036.898438 1119.445312 980.875 C 1119.382812 786.523438 962.441406 628.714844 768.097656 627.761719 C 767.65625 627.761719 766.734375 627.761719 766.320312 627.761719 Z M 765.492188 672.378906 L 767.113281 672.378906 C 785.894531 672.886719 816.527344 693.066406 843.25 749.660156 C 855.324219 775.210938 865.046875 807.050781 872.609375 841.65625 C 872.863281 842.738281 872.164062 843.785156 871.117188 844.039062 C 870.957031 844.070312 870.800781 844.070312 870.671875 844.070312 L 661.839844 844.070312 C 660.730469 844.101562 659.839844 843.246094 659.808594 842.132812 C 659.808594 841.972656 659.808594 841.816406 659.839844 841.65625 C 667.402344 807.050781 677.253906 775.210938 689.328125 749.660156 C 716.113281 693.097656 746.714844 672.886719 765.492188 672.378906 Z M 670.421875 687.664062 C 670.453125 687.664062 670.484375 687.664062 670.546875 687.664062 C 671.628906 687.757812 672.421875 688.742188 672.328125 689.824219 C 672.296875 690.171875 672.167969 690.492188 671.976562 690.746094 C 646.269531 728.59375 626.0625 781.246094 613.765625 842.484375 C 613.574219 843.402344 612.714844 844.070312 611.761719 844.039062 L 492.921875 844.039062 C 491.808594 844.039062 490.917969 843.183594 490.917969 842.070312 C 490.917969 841.75 490.980469 841.464844 491.109375 841.179688 C 528 768.441406 592.21875 713.371094 669.65625 687.820312 C 669.910156 687.726562 670.167969 687.664062 670.421875 687.664062 Z M 862.0625 687.851562 C 862.316406 687.820312 862.632812 687.851562 862.855469 687.917969 C 940.324219 713.433594 1004.480469 768.503906 1041.402344 841.210938 C 1041.914062 842.195312 1041.46875 843.371094 1040.484375 843.847656 C 1040.226562 843.976562 1039.941406 844.039062 1039.6875 844.039062 L 920.847656 844.039062 C 919.894531 844.039062 919.035156 843.371094 918.84375 842.417969 C 906.546875 781.183594 886.335938 728.625 860.632812 690.808594 C 860.058594 689.855469 860.375 688.648438 861.296875 688.109375 C 861.585938 687.980469 861.839844 687.886719 862.0625 687.851562 Z M 473.25 888.558594 C 473.28125 888.558594 473.316406 888.558594 473.378906 888.558594 L 604.074219 888.558594 C 605.183594 888.558594 606.042969 889.480469 606.042969 890.5625 C 606.042969 890.65625 606.042969 890.753906 606.011719 890.847656 C 602.355469 920.242188 600.417969 950.429688 600.417969 980.84375 C 600.417969 1011.253906 602.355469 1041.503906 606.011719 1070.898438 C 606.136719 1071.980469 605.375 1072.964844 604.292969 1073.125 C 604.230469 1073.125 604.167969 1073.125 604.105469 1073.125 L 473.410156 1073.125 C 472.519531 1073.15625 471.695312 1072.617188 471.40625 1071.757812 C 462.320312 1042.300781 457.871094 1011.632812 457.871094 980.84375 C 457.871094 950.050781 462.320312 919.414062 471.40625 889.988281 C 471.628906 889.164062 472.394531 888.589844 473.25 888.558594 Z M 653.167969 888.558594 C 653.292969 888.558594 653.421875 888.558594 653.546875 888.558594 L 879.027344 888.558594 C 880.015625 888.589844 880.839844 889.324219 880.96875 890.308594 C 885.003906 919.703125 887.800781 949.984375 887.800781 980.875 C 887.800781 1011.792969 885.003906 1042.046875 880.96875 1071.503906 C 880.808594 1072.457031 880.015625 1073.15625 879.027344 1073.1875 L 653.546875 1073.1875 C 652.59375 1073.1875 651.769531 1072.457031 651.609375 1071.503906 C 647.574219 1042.078125 644.777344 1011.792969 644.777344 980.875 C 644.777344 949.984375 647.574219 919.734375 651.609375 890.308594 C 651.703125 889.449219 652.339844 888.75 653.167969 888.558594 Z M 928.472656 888.558594 L 1059.230469 888.558594 C 1060.152344 888.527344 1060.976562 889.132812 1061.230469 889.988281 C 1070.289062 919.449219 1074.832031 950.050781 1074.832031 980.84375 C 1074.832031 1011.632812 1070.289062 1042.332031 1061.230469 1071.757812 C 1060.945312 1072.617188 1060.152344 1073.15625 1059.230469 1073.125 L 928.535156 1073.125 C 927.425781 1073.09375 926.535156 1072.203125 926.597656 1071.089844 C 926.597656 1071.027344 926.597656 1070.960938 926.597656 1070.898438 C 930.253906 1041.503906 932.191406 1011.253906 932.191406 980.84375 C 932.191406 950.429688 930.253906 920.242188 926.597656 890.847656 C 926.40625 889.765625 927.167969 888.75 928.25 888.589844 C 928.34375 888.589844 928.410156 888.558594 928.472656 888.558594 Z M 492.855469 1117.707031 C 492.855469 1117.707031 492.886719 1117.707031 492.886719 1117.707031 L 611.761719 1117.707031 C 612.714844 1117.707031 613.574219 1118.375 613.765625 1119.328125 C 617.226562 1136.613281 621.484375 1153.011719 626.1875 1168.804688 L 603.46875 1145.765625 C 592.949219 1135.152344 579.03125 1129.78125 565.242188 1129.6875 C 551.386719 1129.59375 537.503906 1134.898438 526.890625 1145.386719 L 514.242188 1157.9375 C 505.757812 1146.085938 497.84375 1133.785156 491.140625 1120.632812 C 490.632812 1119.679688 490.980469 1118.46875 491.96875 1117.960938 C 492.222656 1117.769531 492.539062 1117.707031 492.855469 1117.707031 Z M 661.617188 1117.707031 C 661.683594 1117.707031 661.777344 1117.707031 661.871094 1117.707031 L 870.703125 1117.707031 C 871.816406 1117.707031 872.707031 1118.597656 872.707031 1119.710938 C 872.707031 1119.835938 872.675781 1119.996094 872.640625 1120.121094 C 865.078125 1154.726562 855.355469 1186.570312 843.28125 1212.117188 C 829.839844 1240.527344 815.414062 1259.785156 802.003906 1271.957031 C 801.527344 1272.082031 801.113281 1272.113281 800.636719 1272.273438 C 787.769531 1275.894531 776.328125 1279.835938 765.9375 1284.125 C 765.78125 1284.191406 765.652344 1284.285156 765.492188 1284.378906 L 757.804688 1288.226562 C 738.992188 1283.171875 712.714844 1261.53125 689.359375 1212.117188 C 677.285156 1186.570312 667.433594 1154.726562 659.871094 1120.121094 C 659.617188 1119.042969 660.285156 1117.992188 661.363281 1117.738281 C 661.429688 1117.738281 661.523438 1117.707031 661.617188 1117.707031 Z M 920.464844 1117.707031 L 920.527344 1117.707031 C 920.65625 1117.707031 920.71875 1117.707031 920.847656 1117.707031 L 976.453125 1117.707031 L 932.890625 1160.765625 C 913.824219 1179.578125 911.980469 1209.101562 926.914062 1230.296875 L 915.507812 1240.65625 C 898.953125 1255.652344 883.988281 1260.007812 865.683594 1262.453125 C 888.878906 1225.339844 907.40625 1176.367188 918.875 1119.328125 C 918.972656 1118.503906 919.671875 1117.835938 920.464844 1117.707031 Z M 1020.273438 1140.429688 C 1023.070312 1140.429688 1025.355469 1141.285156 1027.421875 1143.351562 L 1269.460938 1388.386719 L 1269.460938 1388.453125 C 1271.589844 1390.613281 1272.445312 1393.28125 1272.445312 1395.730469 C 1272.445312 1398.398438 1271.523438 1400.910156 1269.460938 1402.941406 L 1243.46875 1428.585938 L 1243.402344 1428.652344 L 1220.300781 1451.433594 C 1215.980469 1455.691406 1210.007812 1455.660156 1205.84375 1451.5 L 1205.78125 1451.5 L 1205.78125 1451.433594 L 1204.796875 1450.386719 L 963.808594 1206.398438 C 961.933594 1204.492188 961.011719 1202.332031 960.757812 1200.136719 C 960.820312 1199.851562 960.535156 1199.472656 960.757812 1199.21875 C 962.21875 1197.597656 961.105469 1197.34375 961.265625 1196.546875 L 961.136719 1196.578125 C 961.613281 1194.957031 962.378906 1193.339844 963.742188 1191.972656 L 963.808594 1191.972656 L 1012.964844 1143.382812 C 1015.125 1141.253906 1017.539062 1140.398438 1020.273438 1140.429688 Z M 564.988281 1173.636719 C 567.65625 1173.636719 570.167969 1174.589844 572.199219 1176.625 L 620.851562 1225.910156 C 620.851562 1225.910156 620.882812 1225.941406 620.914062 1225.972656 C 622.089844 1227.148438 622.820312 1228.453125 623.328125 1229.820312 C 623.902344 1231.34375 623.964844 1232.902344 623.710938 1234.457031 C 623.644531 1234.808594 623.613281 1235.125 623.519531 1235.441406 C 623.011719 1237.128906 622.183594 1238.78125 620.722656 1240.210938 L 375.636719 1482.195312 C 372.394531 1485.4375 368.296875 1486.230469 364.703125 1484.675781 L 364.640625 1484.675781 C 363.433594 1484.132812 362.320312 1483.371094 361.304688 1482.324219 L 361.304688 1482.195312 L 350.054688 1470.914062 L 312.6875 1433.132812 C 308.398438 1428.777344 308.398438 1422.835938 312.625 1418.671875 C 312.625 1418.671875 312.65625 1418.671875 312.6875 1418.671875 L 557.710938 1176.625 C 559.96875 1174.398438 562.542969 1173.605469 564.988281 1173.636719 Z M 662.792969 1255.175781 C 665.875 1260.421875 668.738281 1266.109375 671.976562 1270.875 C 672.582031 1271.796875 672.296875 1273.003906 671.375 1273.609375 C 670.867188 1273.925781 670.292969 1274.019531 669.722656 1273.832031 C 668.800781 1273.511719 667.910156 1273.097656 666.988281 1272.78125 L 661.332031 1267.699219 L 657.742188 1264.042969 C 659.742188 1261.246094 661.394531 1258.257812 662.792969 1255.175781 Z M 959.199219 1264.234375 L 1151.414062 1458.871094 L 1089.164062 1521.058594 C 1088.242188 1521.980469 1087.320312 1523.09375 1086.429688 1524.523438 C 1086.367188 1524.585938 1086.367188 1524.648438 1086.304688 1524.714844 C 1085.191406 1526.589844 1085.730469 1525.792969 1085.667969 1525.890625 C 1085.414062 1526.238281 1085.160156 1526.558594 1085 1526.9375 C 1084.300781 1528.367188 1084.492188 1528.210938 1084.363281 1528.621094 C 1084.300781 1528.875 1084.269531 1529.066406 1084.238281 1529.289062 C 1084.109375 1529.609375 1083.984375 1529.894531 1083.792969 1530.402344 C 1083.984375 1529.832031 1084.207031 1529.132812 1083.476562 1531.039062 C 1083.316406 1531.484375 1083.15625 1531.832031 1083.09375 1532.277344 L 1083.09375 1532.402344 C 1083.09375 1532.5 1082.902344 1532.5 1082.902344 1532.59375 C 1082.839844 1532.847656 1082.933594 1533.007812 1082.902344 1533.230469 C 1082.933594 1533.167969 1083.0625 1532.976562 1083.15625 1532.722656 C 1083.222656 1532.5 1083.347656 1532.214844 1083.347656 1532.214844 L 1083.601562 1531.640625 L 1083.984375 1531.195312 C 1083.667969 1531.671875 1083.378906 1532.148438 1083.1875 1532.691406 C 1083.0625 1533.007812 1083 1533.324219 1082.933594 1533.613281 L 1082.933594 1533.675781 C 1082.933594 1533.738281 1082.871094 1533.800781 1082.871094 1533.867188 L 1082.808594 1533.992188 C 1082.746094 1534.4375 1082.679688 1534.851562 1082.679688 1535.296875 C 1082.679688 1535.675781 1082.617188 1535.742188 1082.679688 1535.421875 L 1082.554688 1536.851562 C 1082.554688 1537.773438 1082.679688 1538.726562 1082.808594 1539.648438 L 1082.808594 1539.777344 C 1082.808594 1539.808594 1082.808594 1539.839844 1082.808594 1539.902344 C 1082.808594 1540.378906 1082.933594 1540.792969 1083 1541.269531 C 1089.578125 1573.9375 1086.429688 1606.382812 1074.863281 1639.207031 C 1043.121094 1601.773438 1011.789062 1563.671875 978.171875 1526.683594 C 971.148438 1518.992188 963.871094 1511.589844 956.6875 1504.089844 L 980.140625 1510.414062 C 980.332031 1510.476562 980.519531 1510.507812 980.710938 1510.542969 C 995.105469 1513.335938 1010.261719 1515.246094 1026.40625 1515.246094 C 1031.234375 1515.246094 1036.097656 1515.023438 1040.925781 1514.734375 C 1053.828125 1513.941406 1063.871094 1502.660156 1063.074219 1489.726562 C 1062.34375 1477.015625 1051.222656 1466.75 1038.066406 1467.640625 L 1038.003906 1467.640625 C 972.355469 1471.644531 920.847656 1440.949219 878.011719 1415.367188 C 857.167969 1402.878906 836.480469 1390.421875 815.828125 1385.019531 C 795.140625 1379.617188 773.4375 1382.351562 755.675781 1400.113281 L 705.785156 1450.003906 C 701.527344 1454.261719 695.96875 1456.582031 689.773438 1456.582031 C 683.574219 1456.582031 677.953125 1454.296875 673.691406 1450.003906 C 669.402344 1445.714844 667.050781 1440.089844 667.050781 1433.925781 C 667.050781 1427.792969 669.402344 1422.199219 673.691406 1417.910156 L 673.691406 1417.847656 L 692.917969 1398.621094 C 697.238281 1394.300781 701.339844 1390.105469 705.34375 1386.035156 C 735.910156 1354.800781 755.898438 1333.792969 813.378906 1317.589844 C 826.34375 1313.933594 839.53125 1312.628906 852.78125 1311.328125 C 881.824219 1308.46875 914.523438 1305.035156 947.0625 1275.578125 L 953.703125 1269.605469 C 953.765625 1269.539062 953.828125 1269.476562 953.894531 1269.414062 Z M 1082.96875 1533.675781 C 1083.03125 1533.515625 1082.96875 1533.355469 1082.96875 1533.355469 C 1082.96875 1533.421875 1082.839844 1533.546875 1082.839844 1533.546875 L 1082.839844 1533.675781 Z M 620.53125 1302.113281 C 625.363281 1304.304688 630.289062 1306.273438 635.246094 1308.246094 L 639.851562 1312.789062 L 640.042969 1312.980469 C 640.136719 1313.074219 640.234375 1313.203125 640.359375 1313.296875 L 647 1319.273438 C 659.171875 1330.300781 671.308594 1336.8125 683.320312 1341.800781 C 679.476562 1345.519531 675.664062 1349.113281 671.785156 1353.082031 C 667.847656 1357.085938 663.84375 1361.15625 659.679688 1365.316406 L 640.457031 1384.542969 C 627.332031 1397.667969 620.023438 1415.367188 620.023438 1434.019531 C 620.023438 1452.675781 627.300781 1470.3125 640.457031 1483.433594 C 653.578125 1496.589844 671.277344 1503.867188 689.929688 1503.867188 C 708.550781 1503.867188 726.25 1496.65625 739.40625 1483.5 L 789.230469 1433.609375 C 792.789062 1430.046875 795.457031 1429.253906 802.066406 1430.492188 C 808.550781 1431.734375 818.273438 1436.023438 830.855469 1442.917969 C 869.65625 1477.554688 911.027344 1517.914062 945.789062 1556.171875 C 987.734375 1602.347656 1027.265625 1651.632812 1069.304688 1699.808594 C 1070.667969 1701.398438 1072.164062 1703.207031 1073.785156 1705.082031 C 1073.847656 1705.179688 1073.910156 1705.273438 1073.972656 1705.335938 C 1074.164062 1705.527344 1074.578125 1705.847656 1074.832031 1706.066406 L 1074.894531 1706.132812 L 1084.652344 1715.761719 C 1090.59375 1721.605469 1093.769531 1729.296875 1093.707031 1737.65625 C 1093.578125 1746.042969 1090.308594 1753.640625 1084.269531 1759.390625 C 1072.097656 1770.925781 1053.796875 1770.671875 1041.945312 1758.882812 L 999.871094 1717.222656 L 1000.0625 1717.476562 C 1000.0625 1717.476562 999.394531 1716.9375 998.761719 1716.425781 C 997.996094 1715.792969 997.140625 1715.1875 997.140625 1715.1875 C 993.074219 1711.628906 988.117188 1709.214844 982.617188 1709.214844 C 970.320312 1709.214844 960.214844 1719.320312 960.214844 1731.617188 C 960.214844 1738.101562 963.042969 1744.203125 967.90625 1748.492188 L 967.96875 1748.554688 C 968.035156 1748.585938 968.035156 1748.683594 968.097656 1748.746094 L 968.160156 1748.746094 L 1007.945312 1789.644531 C 1013.917969 1795.710938 1017 1803.5625 1016.871094 1812.046875 C 1016.746094 1820.53125 1013.347656 1828.316406 1007.179688 1834.132812 C 994.628906 1846.046875 974.898438 1845.636719 962.917969 1833.082031 L 935.621094 1804.292969 C 935.558594 1804.230469 935.496094 1804.195312 935.429688 1804.164062 L 912.964844 1781.890625 L 912.902344 1781.824219 L 912.839844 1781.761719 C 908.613281 1776.835938 902.417969 1774.007812 895.902344 1774.007812 C 883.667969 1774.007812 873.628906 1784.113281 873.628906 1796.347656 C 873.628906 1803.054688 876.644531 1809.375 881.824219 1813.601562 L 904.164062 1835.816406 L 930.726562 1863.683594 C 931.238281 1864.226562 931.746094 1864.734375 932.285156 1865.242188 C 940.546875 1877.699219 938.671875 1894.667969 927.742188 1905.089844 C 915.253906 1916.945312 895.519531 1916.5 883.542969 1903.914062 L 860.28125 1879.445312 C 860.21875 1879.382812 860.21875 1879.382812 860.152344 1879.320312 L 845.824219 1865.113281 C 841.597656 1860.761719 835.8125 1858.28125 829.746094 1858.28125 C 817.480469 1858.28125 807.40625 1868.355469 807.40625 1880.621094 C 807.40625 1887.328125 810.457031 1893.585938 815.605469 1897.8125 L 828.378906 1910.523438 L 828.441406 1910.589844 L 828.632812 1910.777344 C 828.757812 1910.90625 828.824219 1911.03125 828.824219 1911.03125 L 851.351562 1934.675781 C 856.5625 1940.140625 862.757812 1943.988281 869.050781 1947.578125 C 869.78125 1956.886719 866.953125 1966.292969 860.058594 1972.839844 C 853.863281 1978.6875 846.109375 1981.769531 837.847656 1981.421875 C 837.785156 1981.421875 837.71875 1981.421875 837.65625 1981.421875 C 829.234375 1981.230469 821.640625 1977.828125 815.859375 1971.726562 L 793.328125 1948.085938 C 793.296875 1948.023438 793.265625 1948.023438 793.203125 1947.957031 C 793.074219 1947.800781 792.882812 1947.578125 792.695312 1947.386719 L 792.503906 1947.132812 C 792.503906 1947.132812 792.40625 1947.070312 792.375 1947.070312 L 759.804688 1912.75 L 769.5625 1897.304688 C 770.164062 1896.605469 770.640625 1895.746094 770.925781 1894.890625 C 778.648438 1872.167969 772.929688 1846.367188 754.59375 1828.855469 C 754.59375 1828.855469 754.5625 1828.792969 754.5625 1828.792969 C 743.855469 1818.847656 729.839844 1813.761719 715.128906 1812.902344 C 713.414062 1798.953125 707.949219 1785.480469 696.761719 1775.28125 L 696.699219 1775.214844 C 689.867188 1768.734375 681.859375 1764.699219 673.597656 1761.933594 C 677.917969 1741.277344 672.136719 1719.097656 655.484375 1703.96875 C 643.886719 1693.453125 629.207031 1688.8125 614.527344 1688.464844 C 612.523438 1674.511719 606.390625 1661.578125 596.351562 1652.207031 C 583.894531 1640.414062 567.753906 1634.792969 551.800781 1635.332031 C 540.328125 1635.710938 529.527344 1640.289062 519.769531 1646.929688 C 506.042969 1619.855469 498.097656 1590.746094 497.558594 1561.226562 C 497.558594 1560.972656 497.558594 1560.78125 497.558594 1560.558594 C 497.558594 1560.496094 497.496094 1560.496094 497.496094 1560.433594 C 497.496094 1560.242188 497.496094 1559.828125 497.496094 1559.765625 C 497.496094 1559.699219 497.496094 1559.636719 497.496094 1559.574219 C 497.464844 1557.636719 496.636719 1555.09375 494.507812 1553.378906 L 495.015625 1553.757812 L 430.828125 1489.566406 Z M 554.4375 1681.566406 C 558.347656 1681.566406 562.191406 1682.933594 565.558594 1686.046875 C 568.675781 1688.910156 570.453125 1693.070312 570.707031 1697.394531 C 570.929688 1701.140625 569.214844 1706.101562 566.289062 1709.246094 L 507.757812 1771.816406 C 504.835938 1774.992188 501.117188 1776.644531 496.414062 1776.964844 C 492.0625 1776.898438 487.898438 1775.40625 484.816406 1772.546875 C 481.796875 1769.75 479.925781 1765.363281 479.667969 1761.011719 C 479.449219 1756.722656 481.035156 1752.558594 484.085938 1749.285156 L 484.085938 1749.222656 L 542.617188 1686.652344 C 545.699219 1683.316406 550.308594 1681.566406 554.4375 1681.566406 Z M 612.90625 1733.714844 C 617.164062 1733.585938 621.390625 1735.050781 624.757812 1738.195312 C 631.464844 1744.390625 631.71875 1754.527344 625.394531 1761.359375 L 609.125 1778.996094 L 586.722656 1802.703125 C 586.722656 1802.703125 586.691406 1802.703125 586.691406 1802.703125 L 545.03125 1847.128906 C 539.25 1853.386719 528.796875 1853.992188 522.058594 1847.765625 C 518.945312 1844.902344 517.164062 1840.675781 516.910156 1836.355469 C 516.6875 1832.066406 518.277344 1827.902344 521.328125 1824.628906 L 521.328125 1824.503906 L 601.433594 1738.800781 L 601.433594 1738.734375 C 604.453125 1735.429688 608.585938 1733.839844 612.90625 1733.714844 Z M 654.085938 1804.769531 C 658.21875 1804.640625 662.507812 1806.199219 665.941406 1809.375 C 672.675781 1815.636719 673.058594 1825.773438 666.734375 1832.574219 L 660.472656 1839.214844 L 638.738281 1862.382812 L 617.257812 1885.355469 C 611 1891.871094 600.703125 1892.410156 594 1886.152344 C 590.949219 1883.324219 589.042969 1878.9375 588.789062 1874.617188 C 588.566406 1870.328125 590.1875 1866.101562 593.203125 1862.828125 L 593.269531 1862.761719 L 620.4375 1833.847656 L 642.710938 1810.011719 L 642.710938 1809.949219 C 645.890625 1806.546875 649.925781 1804.894531 654.085938 1804.769531 Z M 711.953125 1858.503906 C 716.273438 1858.25 720.53125 1859.871094 723.804688 1862.921875 C 730.539062 1869.148438 730.792969 1879.320312 724.472656 1886.121094 L 696.605469 1915.957031 C 696.605469 1915.957031 696.570312 1915.957031 696.570312 1915.957031 C 690.34375 1922.664062 679.984375 1922.980469 673.214844 1916.6875 C 666.574219 1910.523438 666.320312 1900.132812 672.582031 1893.363281 L 672.582031 1893.300781 L 700.511719 1863.492188 C 700.511719 1863.492188 700.542969 1863.492188 700.574219 1863.492188 C 703.5625 1860.316406 706.996094 1858.789062 711.953125 1858.503906 Z M 711.953125 1858.503906 " fill-opacity="1" fill-rule="nonzero"/></g><g fill="#5271ff" fill-opacity="1"><g transform="translate(2170.257973, 1227.837898)"><g><path d="M 75.375 0 L 30.4375 0 C 26.769531 0 24.113281 -0.816406 22.46875 -2.453125 C 20.820312 -4.097656 20 -6.757812 20 -10.4375 L 20 -198.28125 C 20 -201.957031 20.820312 -204.613281 22.46875 -206.25 C 24.113281 -207.894531 26.769531 -208.71875 30.4375 -208.71875 L 119.140625 -208.71875 C 145.421875 -208.71875 163.394531 -203.5 173.0625 -193.0625 C 182.726562 -182.625 187.5625 -169 187.5625 -152.1875 L 187.5625 -115.09375 C 187.5625 -98.269531 182.726562 -84.640625 173.0625 -74.203125 C 163.394531 -63.773438 145.421875 -58.5625 119.140625 -58.5625 L 85.8125 -58.5625 L 85.8125 -10.4375 C 85.8125 -6.757812 84.988281 -4.097656 83.34375 -2.453125 C 81.695312 -0.816406 79.039062 0 75.375 0 Z M 85.234375 -154.515625 L 85.234375 -110.734375 L 111.3125 -110.734375 C 116.914062 -110.734375 120.585938 -112.179688 122.328125 -115.078125 C 124.066406 -117.984375 124.9375 -121.269531 124.9375 -124.9375 L 124.9375 -140.3125 C 124.9375 -143.976562 124.066406 -147.257812 122.328125 -150.15625 C 120.585938 -153.0625 116.914062 -154.515625 111.3125 -154.515625 Z M 85.234375 -154.515625 "/></g></g></g><g fill="#5271ff" fill-opacity="1"><g transform="translate(2367.957914, 1227.837898)"><g><path d="M 95.65625 -147.84375 L 82.03125 -103.78125 L 127.546875 -103.78125 L 113.921875 -147.84375 C 113.148438 -149.582031 112.328125 -150.835938 111.453125 -151.609375 C 110.585938 -152.378906 109.578125 -152.765625 108.421875 -152.765625 L 101.171875 -152.765625 C 100.015625 -152.765625 99 -152.378906 98.125 -151.609375 C 97.257812 -150.835938 96.4375 -149.582031 95.65625 -147.84375 Z M 79.140625 -10.4375 C 79.140625 -6.757812 78.316406 -4.097656 76.671875 -2.453125 C 75.035156 -0.816406 72.378906 0 68.703125 0 L 26.09375 0 C 22.414062 0 19.753906 -0.816406 18.109375 -2.453125 C 16.472656 -4.097656 15.65625 -6.757812 15.65625 -10.4375 L 15.65625 -86.96875 C 15.65625 -92.757812 16.570312 -99.425781 18.40625 -106.96875 C 20.238281 -114.507812 23.085938 -123.300781 26.953125 -133.34375 L 52.1875 -199.15625 C 53.34375 -202.4375 55.128906 -204.847656 57.546875 -206.390625 C 59.960938 -207.941406 63.101562 -208.71875 66.96875 -208.71875 L 144.9375 -208.71875 C 148.613281 -208.71875 151.660156 -207.941406 154.078125 -206.390625 C 156.492188 -204.847656 158.28125 -202.4375 159.4375 -199.15625 L 184.65625 -133.34375 C 188.519531 -123.300781 191.367188 -114.507812 193.203125 -106.96875 C 195.046875 -99.425781 195.96875 -92.757812 195.96875 -86.96875 L 195.96875 -10.4375 C 195.96875 -6.757812 195.144531 -4.097656 193.5 -2.453125 C 191.851562 -0.816406 189.195312 0 185.53125 0 L 141.75 0 C 137.882812 0 135.035156 -0.816406 133.203125 -2.453125 C 131.367188 -4.097656 130.453125 -6.757812 130.453125 -10.4375 L 130.453125 -51.015625 L 79.140625 -51.015625 Z M 79.140625 -10.4375 "/></g></g></g><g fill="#5271ff" fill-opacity="1"><g transform="translate(2579.572299, 1227.837898)"><g><path d="M 85.515625 -156.546875 L 85.515625 -119.4375 L 107.265625 -119.4375 C 112.285156 -119.4375 115.664062 -120.738281 117.40625 -123.34375 C 119.144531 -125.957031 120.015625 -129.195312 120.015625 -133.0625 L 120.015625 -142.921875 C 120.015625 -146.785156 119.144531 -150.019531 117.40625 -152.625 C 115.664062 -155.238281 112.285156 -156.546875 107.265625 -156.546875 Z M 75.078125 0 L 30.4375 0 C 26.769531 0 24.113281 -0.816406 22.46875 -2.453125 C 20.820312 -4.097656 20 -6.757812 20 -10.4375 L 20 -198.28125 C 20 -201.957031 20.820312 -204.613281 22.46875 -206.25 C 24.113281 -207.894531 26.769531 -208.71875 30.4375 -208.71875 L 126.96875 -208.71875 C 148.613281 -208.71875 163.539062 -204.222656 171.75 -195.234375 C 179.96875 -186.253906 184.078125 -174.613281 184.078125 -160.3125 L 184.078125 -146.96875 C 184.078125 -138.851562 182.867188 -131.945312 180.453125 -126.25 C 178.035156 -120.550781 173.832031 -116.441406 167.84375 -113.921875 C 178.28125 -112.765625 186.734375 -108.515625 193.203125 -101.171875 C 199.679688 -93.828125 202.921875 -84.066406 202.921875 -71.890625 L 202.921875 -10.4375 C 202.921875 -6.757812 202.097656 -4.097656 200.453125 -2.453125 C 198.816406 -0.816406 196.160156 0 192.484375 0 L 147.546875 0 C 143.878906 0 141.222656 -0.816406 139.578125 -2.453125 C 137.941406 -4.097656 137.125 -6.757812 137.125 -10.4375 L 137.125 -54.796875 C 137.125 -59.046875 136.300781 -62.179688 134.65625 -64.203125 C 133.007812 -66.234375 130.160156 -67.25 126.109375 -67.25 L 85.515625 -67.25 L 85.515625 -10.4375 C 85.515625 -6.757812 84.691406 -4.097656 83.046875 -2.453125 C 81.410156 -0.816406 78.753906 0 75.078125 0 Z M 75.078125 0 "/></g></g></g><g fill="#5271ff" fill-opacity="1"><g transform="translate(2794.955165, 1227.837898)"><g><path d="M 118.5625 0 L 71.609375 0 C 67.929688 0 65.269531 -0.816406 63.625 -2.453125 C 61.988281 -4.097656 61.171875 -6.757812 61.171875 -10.4375 L 61.171875 -152.765625 L 18.546875 -152.765625 C 14.878906 -152.765625 12.222656 -153.585938 10.578125 -155.234375 C 8.929688 -156.878906 8.109375 -159.535156 8.109375 -163.203125 L 8.109375 -198.28125 C 8.109375 -201.957031 8.929688 -204.613281 10.578125 -206.25 C 12.222656 -207.894531 14.878906 -208.71875 18.546875 -208.71875 L 171.609375 -208.71875 C 175.285156 -208.71875 177.941406 -207.894531 179.578125 -206.25 C 181.222656 -204.613281 182.046875 -201.957031 182.046875 -198.28125 L 182.046875 -163.203125 C 182.046875 -159.535156 181.222656 -156.878906 179.578125 -155.234375 C 177.941406 -153.585938 175.285156 -152.765625 171.609375 -152.765625 L 129 -152.765625 L 129 -10.4375 C 129 -6.757812 128.175781 -4.097656 126.53125 -2.453125 C 124.894531 -0.816406 122.238281 0 118.5625 0 Z M 118.5625 0 "/></g></g></g><g fill="#5271ff" fill-opacity="1"><g transform="translate(2985.118211, 1227.837898)"><g><path d="M 73.921875 0 L 30.4375 0 C 26.769531 0 24.113281 -0.816406 22.46875 -2.453125 C 20.820312 -4.097656 20 -6.757812 20 -10.4375 L 20 -198.28125 C 20 -201.957031 20.820312 -204.613281 22.46875 -206.25 C 24.113281 -207.894531 26.769531 -208.71875 30.4375 -208.71875 L 60.59375 -208.71875 C 64.257812 -208.71875 67.394531 -208.140625 70 -206.984375 C 72.613281 -205.828125 75.175781 -203.796875 77.6875 -200.890625 L 133.921875 -136.53125 L 133.921875 -198.28125 C 133.921875 -201.957031 134.742188 -204.613281 136.390625 -206.25 C 138.035156 -207.894531 140.691406 -208.71875 144.359375 -208.71875 L 187.84375 -208.71875 C 191.519531 -208.71875 194.175781 -207.894531 195.8125 -206.25 C 197.457031 -204.613281 198.28125 -201.957031 198.28125 -198.28125 L 198.28125 -10.4375 C 198.28125 -6.757812 197.457031 -4.097656 195.8125 -2.453125 C 194.175781 -0.816406 191.519531 0 187.84375 0 L 144.359375 0 C 140.691406 0 138.035156 -0.816406 136.390625 -2.453125 C 134.742188 -4.097656 133.921875 -6.757812 133.921875 -10.4375 L 133.921875 -46.09375 L 84.359375 -106.09375 L 84.359375 -10.4375 C 84.359375 -6.757812 83.535156 -4.097656 81.890625 -2.453125 C 80.253906 -0.816406 77.597656 0 73.921875 0 Z M 73.921875 0 "/></g></g></g><g fill="#5271ff" fill-opacity="1"><g transform="translate(3203.399894, 1227.837898)"><g><path d="M 164.953125 0 L 30.4375 0 C 26.769531 0 24.113281 -0.816406 22.46875 -2.453125 C 20.820312 -4.097656 20 -6.757812 20 -10.4375 L 20 -198.28125 C 20 -201.957031 20.820312 -204.613281 22.46875 -206.25 C 24.113281 -207.894531 26.769531 -208.71875 30.4375 -208.71875 L 164.953125 -208.71875 C 168.617188 -208.71875 171.273438 -207.894531 172.921875 -206.25 C 174.566406 -204.613281 175.390625 -201.957031 175.390625 -198.28125 L 175.390625 -164.375 C 175.390625 -160.695312 174.566406 -158.035156 172.921875 -156.390625 C 171.273438 -154.753906 168.617188 -153.9375 164.953125 -153.9375 L 84.9375 -153.9375 L 84.9375 -131.609375 L 141.46875 -131.609375 C 145.132812 -131.609375 147.789062 -130.785156 149.4375 -129.140625 C 151.082031 -127.503906 151.90625 -124.847656 151.90625 -121.171875 L 151.90625 -90.15625 C 151.90625 -86.476562 151.082031 -83.816406 149.4375 -82.171875 C 147.789062 -80.535156 145.132812 -79.71875 141.46875 -79.71875 L 84.9375 -79.71875 L 84.9375 -54.796875 L 164.953125 -54.796875 C 168.617188 -54.796875 171.273438 -53.972656 172.921875 -52.328125 C 174.566406 -50.679688 175.390625 -48.023438 175.390625 -44.359375 L 175.390625 -10.4375 C 175.390625 -6.757812 174.566406 -4.097656 172.921875 -2.453125 C 171.273438 -0.816406 168.617188 0 164.953125 0 Z M 164.953125 0 "/></g></g></g><g fill="#5271ff" fill-opacity="1"><g transform="translate(3392.983174, 1227.837898)"><g><path d="M 85.515625 -156.546875 L 85.515625 -119.4375 L 107.265625 -119.4375 C 112.285156 -119.4375 115.664062 -120.738281 117.40625 -123.34375 C 119.144531 -125.957031 120.015625 -129.195312 120.015625 -133.0625 L 120.015625 -142.921875 C 120.015625 -146.785156 119.144531 -150.019531 117.40625 -152.625 C 115.664062 -155.238281 112.285156 -156.546875 107.265625 -156.546875 Z M 75.078125 0 L 30.4375 0 C 26.769531 0 24.113281 -0.816406 22.46875 -2.453125 C 20.820312 -4.097656 20 -6.757812 20 -10.4375 L 20 -198.28125 C 20 -201.957031 20.820312 -204.613281 22.46875 -206.25 C 24.113281 -207.894531 26.769531 -208.71875 30.4375 -208.71875 L 126.96875 -208.71875 C 148.613281 -208.71875 163.539062 -204.222656 171.75 -195.234375 C 179.96875 -186.253906 184.078125 -174.613281 184.078125 -160.3125 L 184.078125 -146.96875 C 184.078125 -138.851562 182.867188 -131.945312 180.453125 -126.25 C 178.035156 -120.550781 173.832031 -116.441406 167.84375 -113.921875 C 178.28125 -112.765625 186.734375 -108.515625 193.203125 -101.171875 C 199.679688 -93.828125 202.921875 -84.066406 202.921875 -71.890625 L 202.921875 -10.4375 C 202.921875 -6.757812 202.097656 -4.097656 200.453125 -2.453125 C 198.816406 -0.816406 196.160156 0 192.484375 0 L 147.546875 0 C 143.878906 0 141.222656 -0.816406 139.578125 -2.453125 C 137.941406 -4.097656 137.125 -6.757812 137.125 -10.4375 L 137.125 -54.796875 C 137.125 -59.046875 136.300781 -62.179688 134.65625 -64.203125 C 133.007812 -66.234375 130.160156 -67.25 126.109375 -67.25 L 85.515625 -67.25 L 85.515625 -10.4375 C 85.515625 -6.757812 84.691406 -4.097656 83.046875 -2.453125 C 81.410156 -0.816406 78.753906 0 75.078125 0 Z M 75.078125 0 "/></g></g></g><g fill="#5271ff" fill-opacity="1"><g transform="translate(3608.36604, 1227.837898)"><g><path d="M 116.828125 0 L 25.21875 0 C 21.550781 0 18.894531 -0.816406 17.25 -2.453125 C 15.601562 -4.097656 14.78125 -6.757812 14.78125 -10.4375 L 14.78125 -44.359375 C 14.78125 -48.023438 15.601562 -50.679688 17.25 -52.328125 C 18.894531 -53.972656 21.550781 -54.796875 25.21875 -54.796875 L 103.203125 -54.796875 C 105.710938 -54.796875 107.59375 -55.613281 108.84375 -57.25 C 110.101562 -58.894531 110.734375 -60.878906 110.734375 -63.203125 C 110.734375 -66.484375 110.101562 -68.894531 108.84375 -70.4375 C 107.59375 -71.988281 105.710938 -72.859375 103.203125 -73.046875 L 59.71875 -79.140625 C 46.1875 -81.066406 35.3125 -85.507812 27.09375 -92.46875 C 18.882812 -99.425781 14.78125 -111.023438 14.78125 -127.265625 L 14.78125 -157.703125 C 14.78125 -174.128906 20.09375 -186.738281 30.71875 -195.53125 C 41.351562 -204.320312 56.046875 -208.71875 74.796875 -208.71875 L 155.96875 -208.71875 C 159.632812 -208.71875 162.285156 -207.894531 163.921875 -206.25 C 165.566406 -204.613281 166.390625 -201.957031 166.390625 -198.28125 L 166.390625 -163.78125 C 166.390625 -160.113281 165.566406 -157.457031 163.921875 -155.8125 C 162.285156 -154.175781 159.632812 -153.359375 155.96875 -153.359375 L 88.421875 -153.359375 C 85.898438 -153.359375 83.960938 -152.535156 82.609375 -150.890625 C 81.265625 -149.242188 80.59375 -147.164062 80.59375 -144.65625 C 80.59375 -142.144531 81.265625 -140.019531 82.609375 -138.28125 C 83.960938 -136.539062 85.898438 -135.570312 88.421875 -135.375 L 131.609375 -129.578125 C 145.140625 -127.648438 156.054688 -123.207031 164.359375 -116.25 C 172.671875 -109.289062 176.828125 -97.691406 176.828125 -81.453125 L 176.828125 -51.015625 C 176.828125 -34.585938 171.460938 -21.976562 160.734375 -13.1875 C 150.015625 -4.394531 135.378906 0 116.828125 0 Z M 116.828125 0 "/></g></g></g><g fill="#000000" fill-opacity="1"><g transform="translate(3796.79056, 1227.837898)"><g/></g></g><g fill="#000000" fill-opacity="1"><g transform="translate(3862.014169, 1227.837898)"><g><path d="M 85.8125 -54.203125 L 126.96875 -54.203125 C 131.21875 -54.203125 134.113281 -55.164062 135.65625 -57.09375 C 137.207031 -59.03125 137.984375 -61.9375 137.984375 -65.8125 L 137.984375 -105.8125 C 137.984375 -109.476562 138.804688 -112.132812 140.453125 -113.78125 C 142.097656 -115.425781 144.753906 -116.25 148.421875 -116.25 L 204.65625 -116.25 C 208.332031 -116.25 210.988281 -115.425781 212.625 -113.78125 C 214.269531 -112.132812 215.09375 -109.476562 215.09375 -105.8125 L 215.09375 -74.5 C 215.09375 -70.832031 214.269531 -68.175781 212.625 -66.53125 C 210.988281 -64.882812 208.332031 -64.0625 204.65625 -64.0625 L 198 -64.0625 L 198 -51.015625 C 198 -35.554688 193.550781 -23.1875 184.65625 -13.90625 C 175.769531 -4.632812 162.921875 0 146.109375 0 L 65.515625 0 C 47.734375 0 34.15625 -4.632812 24.78125 -13.90625 C 15.40625 -23.1875 10.71875 -35.554688 10.71875 -51.015625 L 10.71875 -74.21875 C 10.71875 -87.738281 14.195312 -98.363281 21.15625 -106.09375 C 28.113281 -113.832031 36.8125 -118.179688 47.25 -119.140625 C 40.875 -121.847656 36.429688 -125.90625 33.921875 -131.3125 C 31.410156 -136.726562 30.15625 -143.109375 30.15625 -150.453125 L 30.15625 -164.375 C 30.15625 -177.125 34.550781 -187.703125 43.34375 -196.109375 C 52.132812 -204.515625 66.289062 -208.71875 85.8125 -208.71875 L 146.96875 -208.71875 C 150.644531 -208.71875 153.300781 -207.894531 154.9375 -206.25 C 156.582031 -204.613281 157.40625 -201.957031 157.40625 -198.28125 L 157.40625 -164.953125 C 157.40625 -161.273438 156.582031 -158.613281 154.9375 -156.96875 C 153.300781 -155.332031 150.644531 -154.515625 146.96875 -154.515625 L 104.65625 -154.515625 C 100.007812 -154.515625 97.007812 -153.644531 95.65625 -151.90625 C 94.3125 -150.164062 93.640625 -148.132812 93.640625 -145.8125 L 93.640625 -139.734375 C 93.640625 -137.410156 94.3125 -135.378906 95.65625 -133.640625 C 97.007812 -131.898438 100.007812 -131.03125 104.65625 -131.03125 L 109 -131.03125 C 112.664062 -131.03125 115.320312 -130.207031 116.96875 -128.5625 C 118.613281 -126.925781 119.4375 -124.269531 119.4375 -120.59375 L 119.4375 -90.734375 C 119.4375 -87.066406 118.613281 -84.410156 116.96875 -82.765625 C 115.320312 -81.117188 112.664062 -80.296875 109 -80.296875 L 85.8125 -80.296875 C 81.164062 -80.296875 78.164062 -79.472656 76.8125 -77.828125 C 75.46875 -76.191406 74.796875 -74.210938 74.796875 -71.890625 L 74.796875 -62.90625 C 74.796875 -60.582031 75.46875 -58.550781 76.8125 -56.8125 C 78.164062 -55.070312 81.164062 -54.203125 85.8125 -54.203125 Z M 85.8125 -54.203125 "/></g></g></g><g fill="#ff3131" fill-opacity="1"><g transform="translate(1914.290334, 1633.431403)"><g><path d="M 116.828125 0 L 25.21875 0 C 21.550781 0 18.894531 -0.816406 17.25 -2.453125 C 15.601562 -4.097656 14.78125 -6.757812 14.78125 -10.4375 L 14.78125 -44.359375 C 14.78125 -48.023438 15.601562 -50.679688 17.25 -52.328125 C 18.894531 -53.972656 21.550781 -54.796875 25.21875 -54.796875 L 103.203125 -54.796875 C 105.710938 -54.796875 107.59375 -55.613281 108.84375 -57.25 C 110.101562 -58.894531 110.734375 -60.878906 110.734375 -63.203125 C 110.734375 -66.484375 110.101562 -68.894531 108.84375 -70.4375 C 107.59375 -71.988281 105.710938 -72.859375 103.203125 -73.046875 L 59.71875 -79.140625 C 46.1875 -81.066406 35.3125 -85.507812 27.09375 -92.46875 C 18.882812 -99.425781 14.78125 -111.023438 14.78125 -127.265625 L 14.78125 -157.703125 C 14.78125 -174.128906 20.09375 -186.738281 30.71875 -195.53125 C 41.351562 -204.320312 56.046875 -208.71875 74.796875 -208.71875 L 155.96875 -208.71875 C 159.632812 -208.71875 162.285156 -207.894531 163.921875 -206.25 C 165.566406 -204.613281 166.390625 -201.957031 166.390625 -198.28125 L 166.390625 -163.78125 C 166.390625 -160.113281 165.566406 -157.457031 163.921875 -155.8125 C 162.285156 -154.175781 159.632812 -153.359375 155.96875 -153.359375 L 88.421875 -153.359375 C 85.898438 -153.359375 83.960938 -152.535156 82.609375 -150.890625 C 81.265625 -149.242188 80.59375 -147.164062 80.59375 -144.65625 C 80.59375 -142.144531 81.265625 -140.019531 82.609375 -138.28125 C 83.960938 -136.539062 85.898438 -135.570312 88.421875 -135.375 L 131.609375 -129.578125 C 145.140625 -127.648438 156.054688 -123.207031 164.359375 -116.25 C 172.671875 -109.289062 176.828125 -97.691406 176.828125 -81.453125 L 176.828125 -51.015625 C 176.828125 -34.585938 171.460938 -21.976562 160.734375 -13.1875 C 150.015625 -4.394531 135.378906 0 116.828125 0 Z M 116.828125 0 "/></g></g></g><g fill="#ff3131" fill-opacity="1"><g transform="translate(2102.714066, 1633.431403)"><g><path d="M 164.953125 0 L 30.4375 0 C 26.769531 0 24.113281 -0.816406 22.46875 -2.453125 C 20.820312 -4.097656 20 -6.757812 20 -10.4375 L 20 -198.28125 C 20 -201.957031 20.820312 -204.613281 22.46875 -206.25 C 24.113281 -207.894531 26.769531 -208.71875 30.4375 -208.71875 L 164.953125 -208.71875 C 168.617188 -208.71875 171.273438 -207.894531 172.921875 -206.25 C 174.566406 -204.613281 175.390625 -201.957031 175.390625 -198.28125 L 175.390625 -164.375 C 175.390625 -160.695312 174.566406 -158.035156 172.921875 -156.390625 C 171.273438 -154.753906 168.617188 -153.9375 164.953125 -153.9375 L 84.9375 -153.9375 L 84.9375 -131.609375 L 141.46875 -131.609375 C 145.132812 -131.609375 147.789062 -130.785156 149.4375 -129.140625 C 151.082031 -127.503906 151.90625 -124.847656 151.90625 -121.171875 L 151.90625 -90.15625 C 151.90625 -86.476562 151.082031 -83.816406 149.4375 -82.171875 C 147.789062 -80.535156 145.132812 -79.71875 141.46875 -79.71875 L 84.9375 -79.71875 L 84.9375 -54.796875 L 164.953125 -54.796875 C 168.617188 -54.796875 171.273438 -53.972656 172.921875 -52.328125 C 174.566406 -50.679688 175.390625 -48.023438 175.390625 -44.359375 L 175.390625 -10.4375 C 175.390625 -6.757812 174.566406 -4.097656 172.921875 -2.453125 C 171.273438 -0.816406 168.617188 0 164.953125 0 Z M 164.953125 0 "/></g></g></g><g fill="#ff3131" fill-opacity="1"><g transform="translate(2292.297324, 1633.431403)"><g><path d="M 178 0 L 30.4375 0 C 26.769531 0 24.113281 -0.816406 22.46875 -2.453125 C 20.820312 -4.097656 20 -6.757812 20 -10.4375 L 20 -198.28125 C 20 -201.957031 20.820312 -204.613281 22.46875 -206.25 C 24.113281 -207.894531 26.769531 -208.71875 30.4375 -208.71875 L 75.375 -208.71875 C 79.039062 -208.71875 81.695312 -207.894531 83.34375 -206.25 C 84.988281 -204.613281 85.8125 -201.957031 85.8125 -198.28125 L 85.8125 -54.796875 L 125.515625 -54.796875 L 125.515625 -101.75 C 125.515625 -105.425781 126.335938 -108.082031 127.984375 -109.71875 C 129.628906 -111.363281 132.285156 -112.1875 135.953125 -112.1875 L 178 -112.1875 C 181.664062 -112.1875 184.316406 -111.363281 185.953125 -109.71875 C 187.597656 -108.082031 188.421875 -105.425781 188.421875 -101.75 L 188.421875 -10.4375 C 188.421875 -6.757812 187.597656 -4.097656 185.953125 -2.453125 C 184.316406 -0.816406 181.664062 0 178 0 Z M 178 0 "/></g></g></g><g fill="#ff3131" fill-opacity="1"><g transform="translate(2493.765747, 1633.431403)"><g><path d="M 178 0 L 30.4375 0 C 26.769531 0 24.113281 -0.816406 22.46875 -2.453125 C 20.820312 -4.097656 20 -6.757812 20 -10.4375 L 20 -198.28125 C 20 -201.957031 20.820312 -204.613281 22.46875 -206.25 C 24.113281 -207.894531 26.769531 -208.71875 30.4375 -208.71875 L 75.375 -208.71875 C 79.039062 -208.71875 81.695312 -207.894531 83.34375 -206.25 C 84.988281 -204.613281 85.8125 -201.957031 85.8125 -198.28125 L 85.8125 -54.796875 L 125.515625 -54.796875 L 125.515625 -101.75 C 125.515625 -105.425781 126.335938 -108.082031 127.984375 -109.71875 C 129.628906 -111.363281 132.285156 -112.1875 135.953125 -112.1875 L 178 -112.1875 C 181.664062 -112.1875 184.316406 -111.363281 185.953125 -109.71875 C 187.597656 -108.082031 188.421875 -105.425781 188.421875 -101.75 L 188.421875 -10.4375 C 188.421875 -6.757812 187.597656 -4.097656 185.953125 -2.453125 C 184.316406 -0.816406 181.664062 0 178 0 Z M 178 0 "/></g></g></g><g fill="#ff3131" fill-opacity="1"><g transform="translate(2695.234124, 1633.431403)"><g><path d="M 164.953125 0 L 30.4375 0 C 26.769531 0 24.113281 -0.816406 22.46875 -2.453125 C 20.820312 -4.097656 20 -6.757812 20 -10.4375 L 20 -198.28125 C 20 -201.957031 20.820312 -204.613281 22.46875 -206.25 C 24.113281 -207.894531 26.769531 -208.71875 30.4375 -208.71875 L 164.953125 -208.71875 C 168.617188 -208.71875 171.273438 -207.894531 172.921875 -206.25 C 174.566406 -204.613281 175.390625 -201.957031 175.390625 -198.28125 L 175.390625 -164.375 C 175.390625 -160.695312 174.566406 -158.035156 172.921875 -156.390625 C 171.273438 -154.753906 168.617188 -153.9375 164.953125 -153.9375 L 84.9375 -153.9375 L 84.9375 -131.609375 L 141.46875 -131.609375 C 145.132812 -131.609375 147.789062 -130.785156 149.4375 -129.140625 C 151.082031 -127.503906 151.90625 -124.847656 151.90625 -121.171875 L 151.90625 -90.15625 C 151.90625 -86.476562 151.082031 -83.816406 149.4375 -82.171875 C 147.789062 -80.535156 145.132812 -79.71875 141.46875 -79.71875 L 84.9375 -79.71875 L 84.9375 -54.796875 L 164.953125 -54.796875 C 168.617188 -54.796875 171.273438 -53.972656 172.921875 -52.328125 C 174.566406 -50.679688 175.390625 -48.023438 175.390625 -44.359375 L 175.390625 -10.4375 C 175.390625 -6.757812 174.566406 -4.097656 172.921875 -2.453125 C 171.273438 -0.816406 168.617188 0 164.953125 0 Z M 164.953125 0 "/></g></g></g><g fill="#ff3131" fill-opacity="1"><g transform="translate(2884.817404, 1633.431403)"><g><path d="M 85.515625 -156.546875 L 85.515625 -119.4375 L 107.265625 -119.4375 C 112.285156 -119.4375 115.664062 -120.738281 117.40625 -123.34375 C 119.144531 -125.957031 120.015625 -129.195312 120.015625 -133.0625 L 120.015625 -142.921875 C 120.015625 -146.785156 119.144531 -150.019531 117.40625 -152.625 C 115.664062 -155.238281 112.285156 -156.546875 107.265625 -156.546875 Z M 75.078125 0 L 30.4375 0 C 26.769531 0 24.113281 -0.816406 22.46875 -2.453125 C 20.820312 -4.097656 20 -6.757812 20 -10.4375 L 20 -198.28125 C 20 -201.957031 20.820312 -204.613281 22.46875 -206.25 C 24.113281 -207.894531 26.769531 -208.71875 30.4375 -208.71875 L 126.96875 -208.71875 C 148.613281 -208.71875 163.539062 -204.222656 171.75 -195.234375 C 179.96875 -186.253906 184.078125 -174.613281 184.078125 -160.3125 L 184.078125 -146.96875 C 184.078125 -138.851562 182.867188 -131.945312 180.453125 -126.25 C 178.035156 -120.550781 173.832031 -116.441406 167.84375 -113.921875 C 178.28125 -112.765625 186.734375 -108.515625 193.203125 -101.171875 C 199.679688 -93.828125 202.921875 -84.066406 202.921875 -71.890625 L 202.921875 -10.4375 C 202.921875 -6.757812 202.097656 -4.097656 200.453125 -2.453125 C 198.816406 -0.816406 196.160156 0 192.484375 0 L 147.546875 0 C 143.878906 0 141.222656 -0.816406 139.578125 -2.453125 C 137.941406 -4.097656 137.125 -6.757812 137.125 -10.4375 L 137.125 -54.796875 C 137.125 -59.046875 136.300781 -62.179688 134.65625 -64.203125 C 133.007812 -66.234375 130.160156 -67.25 126.109375 -67.25 L 85.515625 -67.25 L 85.515625 -10.4375 C 85.515625 -6.757812 84.691406 -4.097656 83.046875 -2.453125 C 81.410156 -0.816406 78.753906 0 75.078125 0 Z M 75.078125 0 "/></g></g></g><g fill="#000000" fill-opacity="1"><g transform="translate(3100.203884, 1633.431403)"><g/></g></g><g fill="#ffde59" fill-opacity="1"><g transform="translate(3165.428717, 1633.431403)"><g><path d="M 75.375 0 L 30.4375 0 C 26.769531 0 24.113281 -0.816406 22.46875 -2.453125 C 20.820312 -4.097656 20 -6.757812 20 -10.4375 L 20 -198.28125 C 20 -201.957031 20.820312 -204.613281 22.46875 -206.25 C 24.113281 -207.894531 26.769531 -208.71875 30.4375 -208.71875 L 119.140625 -208.71875 C 145.421875 -208.71875 163.394531 -203.5 173.0625 -193.0625 C 182.726562 -182.625 187.5625 -169 187.5625 -152.1875 L 187.5625 -115.09375 C 187.5625 -98.269531 182.726562 -84.640625 173.0625 -74.203125 C 163.394531 -63.773438 145.421875 -58.5625 119.140625 -58.5625 L 85.8125 -58.5625 L 85.8125 -10.4375 C 85.8125 -6.757812 84.988281 -4.097656 83.34375 -2.453125 C 81.695312 -0.816406 79.039062 0 75.375 0 Z M 85.234375 -154.515625 L 85.234375 -110.734375 L 111.3125 -110.734375 C 116.914062 -110.734375 120.585938 -112.179688 122.328125 -115.078125 C 124.066406 -117.984375 124.9375 -121.269531 124.9375 -124.9375 L 124.9375 -140.3125 C 124.9375 -143.976562 124.066406 -147.257812 122.328125 -150.15625 C 120.585938 -153.0625 116.914062 -154.515625 111.3125 -154.515625 Z M 85.234375 -154.515625 "/></g></g></g><g fill="#ffde59" fill-opacity="1"><g transform="translate(3363.128658, 1633.431403)"><g><path d="M 196.828125 -54.796875 C 196.828125 -45.898438 195.523438 -37.828125 192.921875 -30.578125 C 190.316406 -23.335938 185.675781 -17.15625 179 -12.03125 C 172.332031 -6.90625 163.148438 -2.894531 151.453125 0 C 139.765625 2.894531 124.9375 4.34375 106.96875 4.34375 C 89 4.34375 74.117188 2.894531 62.328125 0 C 50.535156 -2.894531 41.304688 -6.90625 34.640625 -12.03125 C 27.972656 -17.15625 23.332031 -23.335938 20.71875 -30.578125 C 18.113281 -37.828125 16.8125 -45.898438 16.8125 -54.796875 L 16.8125 -153.640625 C 16.8125 -162.535156 18.113281 -170.601562 20.71875 -177.84375 C 23.332031 -185.09375 27.972656 -191.328125 34.640625 -196.546875 C 41.304688 -201.765625 50.535156 -205.820312 62.328125 -208.71875 C 74.117188 -211.613281 89 -213.0625 106.96875 -213.0625 C 124.9375 -213.0625 139.765625 -211.613281 151.453125 -208.71875 C 163.148438 -205.820312 172.332031 -201.765625 179 -196.546875 C 185.675781 -191.328125 190.316406 -185.09375 192.921875 -177.84375 C 195.523438 -170.601562 196.828125 -162.535156 196.828125 -153.640625 Z M 82.625 -65.21875 C 82.625 -61.351562 84.070312 -58.113281 86.96875 -55.5 C 89.863281 -52.894531 96.53125 -51.59375 106.96875 -51.59375 C 117.40625 -51.59375 124.070312 -52.894531 126.96875 -55.5 C 129.875 -58.113281 131.328125 -61.351562 131.328125 -65.21875 L 131.328125 -143.203125 C 131.328125 -146.878906 129.875 -150.019531 126.96875 -152.625 C 124.070312 -155.238281 117.40625 -156.546875 106.96875 -156.546875 C 96.53125 -156.546875 89.863281 -155.238281 86.96875 -152.625 C 84.070312 -150.019531 82.625 -146.878906 82.625 -143.203125 Z M 82.625 -65.21875 "/></g></g></g><g fill="#ffde59" fill-opacity="1"><g transform="translate(3576.772173, 1633.431403)"><g><path d="M 178 0 L 30.4375 0 C 26.769531 0 24.113281 -0.816406 22.46875 -2.453125 C 20.820312 -4.097656 20 -6.757812 20 -10.4375 L 20 -198.28125 C 20 -201.957031 20.820312 -204.613281 22.46875 -206.25 C 24.113281 -207.894531 26.769531 -208.71875 30.4375 -208.71875 L 75.375 -208.71875 C 79.039062 -208.71875 81.695312 -207.894531 83.34375 -206.25 C 84.988281 -204.613281 85.8125 -201.957031 85.8125 -198.28125 L 85.8125 -54.796875 L 125.515625 -54.796875 L 125.515625 -101.75 C 125.515625 -105.425781 126.335938 -108.082031 127.984375 -109.71875 C 129.628906 -111.363281 132.285156 -112.1875 135.953125 -112.1875 L 178 -112.1875 C 181.664062 -112.1875 184.316406 -111.363281 185.953125 -109.71875 C 187.597656 -108.082031 188.421875 -105.425781 188.421875 -101.75 L 188.421875 -10.4375 C 188.421875 -6.757812 187.597656 -4.097656 185.953125 -2.453125 C 184.316406 -0.816406 181.664062 0 178 0 Z M 178 0 "/></g></g></g><g fill="#ffde59" fill-opacity="1"><g transform="translate(3778.240595, 1633.431403)"><g><path d="M 25.796875 0 C 22.128906 0 19.472656 -0.816406 17.828125 -2.453125 C 16.179688 -4.097656 15.359375 -6.757812 15.359375 -10.4375 L 15.359375 -44.9375 C 15.359375 -48.601562 16.179688 -51.257812 17.828125 -52.90625 C 19.472656 -54.550781 22.128906 -55.375 25.796875 -55.375 L 54.5 -55.375 L 54.5 -152.765625 L 25.796875 -152.765625 C 22.128906 -152.765625 19.472656 -153.585938 17.828125 -155.234375 C 16.179688 -156.878906 15.359375 -159.535156 15.359375 -163.203125 L 15.359375 -198.28125 C 15.359375 -201.957031 16.179688 -204.613281 17.828125 -206.25 C 19.472656 -207.894531 22.128906 -208.71875 25.796875 -208.71875 L 149.296875 -208.71875 C 152.960938 -208.71875 155.617188 -207.894531 157.265625 -206.25 C 158.910156 -204.613281 159.734375 -201.957031 159.734375 -198.28125 L 159.734375 -163.203125 C 159.734375 -159.535156 158.910156 -156.878906 157.265625 -155.234375 C 155.617188 -153.585938 152.960938 -152.765625 149.296875 -152.765625 L 121.171875 -152.765625 L 121.171875 -55.375 L 149.296875 -55.375 C 152.960938 -55.375 155.617188 -54.550781 157.265625 -52.90625 C 158.910156 -51.257812 159.734375 -48.601562 159.734375 -44.9375 L 159.734375 -10.4375 C 159.734375 -6.757812 158.910156 -4.097656 157.265625 -2.453125 C 155.617188 -0.816406 152.960938 0 149.296875 0 Z M 25.796875 0 "/></g></g></g><g fill="#ffde59" fill-opacity="1"><g transform="translate(3953.619594, 1633.431403)"><g><path d="M 158.859375 0 L 88.125 0 C 63.96875 0 46.039062 -4.828125 34.34375 -14.484375 C 22.65625 -24.148438 16.8125 -39.035156 16.8125 -59.140625 L 16.8125 -149.296875 C 16.8125 -169.390625 22.65625 -184.316406 34.34375 -194.078125 C 46.039062 -203.835938 63.96875 -208.71875 88.125 -208.71875 L 158.859375 -208.71875 C 162.535156 -208.71875 165.191406 -207.894531 166.828125 -206.25 C 168.472656 -204.613281 169.296875 -201.957031 169.296875 -198.28125 L 169.296875 -163.203125 C 169.296875 -159.535156 168.472656 -156.878906 166.828125 -155.234375 C 165.191406 -153.585938 162.535156 -152.765625 158.859375 -152.765625 L 100.59375 -152.765625 C 94.601562 -152.765625 90.15625 -151.554688 87.25 -149.140625 C 84.351562 -146.734375 82.90625 -143.113281 82.90625 -138.28125 L 82.90625 -69.28125 C 82.90625 -64.445312 84.351562 -60.921875 87.25 -58.703125 C 90.15625 -56.484375 94.601562 -55.375 100.59375 -55.375 L 158.859375 -55.375 C 162.535156 -55.375 165.191406 -54.550781 166.828125 -52.90625 C 168.472656 -51.257812 169.296875 -48.601562 169.296875 -44.9375 L 169.296875 -10.4375 C 169.296875 -6.757812 168.472656 -4.097656 166.828125 -2.453125 C 165.191406 -0.816406 162.535156 0 158.859375 0 Z M 158.859375 0 "/></g></g></g><g fill="#ffde59" fill-opacity="1"><g transform="translate(4135.665867, 1633.431403)"><g><path d="M 125.8125 0 L 78.84375 0 C 75.175781 0 72.519531 -0.816406 70.875 -2.453125 C 69.238281 -4.097656 68.421875 -6.757812 68.421875 -10.4375 L 68.421875 -47.546875 L 24.0625 -106.96875 C 19.613281 -112.957031 16.664062 -118.175781 15.21875 -122.625 C 13.769531 -127.070312 13.046875 -133.738281 13.046875 -142.625 L 13.046875 -198.28125 C 13.046875 -201.957031 13.863281 -204.613281 15.5 -206.25 C 17.144531 -207.894531 19.804688 -208.71875 23.484375 -208.71875 L 68.125 -208.71875 C 71.789062 -208.71875 74.445312 -207.894531 76.09375 -206.25 C 77.738281 -204.613281 78.5625 -201.957031 78.5625 -198.28125 L 78.5625 -150.75 C 78.5625 -148.8125 78.65625 -146.78125 78.84375 -144.65625 C 79.039062 -142.53125 79.816406 -140.5 81.171875 -138.5625 L 94.5 -117.703125 C 95.46875 -115.960938 96.484375 -114.703125 97.546875 -113.921875 C 98.609375 -113.148438 99.914062 -112.765625 101.46875 -112.765625 L 104.359375 -112.765625 C 105.910156 -112.765625 107.21875 -113.148438 108.28125 -113.921875 C 109.34375 -114.703125 110.351562 -115.960938 111.3125 -117.703125 L 124.65625 -138.5625 C 126.007812 -140.5 126.78125 -142.53125 126.96875 -144.65625 C 127.164062 -146.78125 127.265625 -148.8125 127.265625 -150.75 L 127.265625 -198.28125 C 127.265625 -201.957031 128.082031 -204.613281 129.71875 -206.25 C 131.363281 -207.894531 134.023438 -208.71875 137.703125 -208.71875 L 180.890625 -208.71875 C 184.566406 -208.71875 187.222656 -207.894531 188.859375 -206.25 C 190.503906 -204.613281 191.328125 -201.957031 191.328125 -198.28125 L 191.328125 -142.625 C 191.328125 -133.738281 190.550781 -127.070312 189 -122.625 C 187.457031 -118.175781 184.5625 -112.957031 180.3125 -106.96875 L 136.25 -47.25 L 136.25 -10.4375 C 136.25 -6.757812 135.425781 -4.097656 133.78125 -2.453125 C 132.144531 -0.816406 129.488281 0 125.8125 0 Z M 125.8125 0 "/></g></g></g></svg>