<svg xmlns="http://www.w3.org/2000/svg" xmlns:xlink="http://www.w3.org/1999/xlink" width="994" zoomAndPan="magnify" viewBox="0 0 745.5 407.999985" height="544" preserveAspectRatio="xMidYMid meet" version="1.0"><defs><clipPath id="e39187d786"><path d="M 190.003906 97 L 555.007812 97 L 555.007812 386.507812 L 190.003906 386.507812 Z M 190.003906 97 " clip-rule="nonzero"/></clipPath><clipPath id="bc053d7c45"><path d="M 190.003906 21.503906 L 555.007812 21.503906 L 555.007812 98 L 190.003906 98 Z M 190.003906 21.503906 " clip-rule="nonzero"/></clipPath></defs><g clip-path="url(#e39187d786)"><path fill="#ecf0f1" d="M 534.554688 386.507812 L 210.457031 386.507812 C 199.160156 386.507812 190.003906 377.351562 190.003906 366.054688 L 190.003906 97.019531 L 555.007812 97.019531 L 555.007812 366.054688 C 555.007812 377.351562 545.851562 386.507812 534.554688 386.507812 Z M 534.554688 386.507812 " fill-opacity="1" fill-rule="nonzero"/></g><g clip-path="url(#bc053d7c45)"><path fill="#687492" d="M 555.007812 97.019531 L 190.003906 97.019531 L 190.003906 41.957031 C 190.003906 30.660156 199.160156 21.503906 210.457031 21.503906 L 534.554688 21.503906 C 545.851562 21.503906 555.007812 30.660156 555.007812 41.957031 Z M 555.007812 97.019531 " fill-opacity="1" fill-rule="nonzero"/></g><path fill="#e64c3c" d="M 215.175781 46.675781 L 240.347656 46.675781 L 240.347656 71.847656 L 215.175781 71.847656 Z M 215.175781 46.675781 " fill-opacity="1" fill-rule="nonzero"/><path fill="#f0c419" d="M 265.519531 46.675781 L 290.695312 46.675781 L 290.695312 71.847656 L 265.519531 71.847656 Z M 265.519531 46.675781 " fill-opacity="1" fill-rule="nonzero"/><path fill="#24ae5f" d="M 315.867188 46.675781 L 341.039062 46.675781 L 341.039062 71.847656 L 315.867188 71.847656 Z M 315.867188 46.675781 " fill-opacity="1" fill-rule="nonzero"/><path fill="#4482c3" d="M 416.558594 361.335938 L 328.453125 361.335938 C 318.042969 361.335938 309.574219 352.863281 309.574219 342.457031 C 309.574219 332.046875 318.042969 323.574219 328.453125 323.574219 L 416.558594 323.574219 C 426.96875 323.574219 435.4375 332.046875 435.4375 342.457031 C 435.4375 352.863281 426.96875 361.335938 416.558594 361.335938 Z M 416.558594 361.335938 " fill-opacity="1" fill-rule="nonzero"/><path fill="#bdc3c7" d="M 435.4375 279.523438 L 309.574219 279.523438 C 306.101562 279.523438 303.28125 276.710938 303.28125 273.230469 C 303.28125 269.75 306.101562 266.9375 309.574219 266.9375 L 435.4375 266.9375 C 438.910156 266.9375 441.730469 269.75 441.730469 273.230469 C 441.730469 276.710938 438.910156 279.523438 435.4375 279.523438 Z M 435.4375 279.523438 " fill-opacity="1" fill-rule="nonzero"/><path fill="#bdc3c7" d="M 466.902344 304.695312 L 278.109375 304.695312 C 274.632812 304.695312 271.816406 301.882812 271.816406 298.402344 C 271.816406 294.921875 274.632812 292.109375 278.109375 292.109375 L 466.902344 292.109375 C 470.378906 292.109375 473.195312 294.921875 473.195312 298.402344 C 473.195312 301.882812 470.378906 304.695312 466.902344 304.695312 Z M 466.902344 304.695312 " fill-opacity="1" fill-rule="nonzero"/><path fill="#e64c3c" d="M 284.402344 204.003906 C 283.578125 204.003906 282.734375 203.847656 281.929688 203.496094 C 278.730469 202.125 277.25 198.421875 278.625 195.238281 L 297.503906 151.1875 C 298.875 147.988281 302.570312 146.5 305.765625 147.882812 C 308.964844 149.253906 310.441406 152.957031 309.070312 156.140625 L 290.191406 200.191406 C 289.164062 202.578125 286.835938 204.003906 284.402344 204.003906 Z M 284.402344 204.003906 " fill-opacity="1" fill-rule="nonzero"/><path fill="#e64c3c" d="M 328.453125 204.003906 L 284.402344 204.003906 C 280.925781 204.003906 278.109375 201.191406 278.109375 197.710938 C 278.109375 194.230469 280.925781 191.417969 284.402344 191.417969 L 328.453125 191.417969 C 331.925781 191.417969 334.746094 194.230469 334.746094 197.710938 C 334.746094 201.191406 331.925781 204.003906 328.453125 204.003906 Z M 328.453125 204.003906 " fill-opacity="1" fill-rule="nonzero"/><path fill="#e64c3c" d="M 309.574219 229.179688 C 306.101562 229.179688 303.28125 226.363281 303.28125 222.886719 L 303.28125 185.125 C 303.28125 181.644531 306.101562 178.832031 309.574219 178.832031 C 313.046875 178.832031 315.867188 181.644531 315.867188 185.125 L 315.867188 222.886719 C 315.867188 226.363281 313.046875 229.179688 309.574219 229.179688 Z M 309.574219 229.179688 " fill-opacity="1" fill-rule="nonzero"/><path fill="#e64c3c" d="M 416.558594 204.003906 C 415.734375 204.003906 414.890625 203.847656 414.085938 203.496094 C 410.886719 202.125 409.410156 198.421875 410.78125 195.238281 L 429.660156 151.1875 C 431.03125 147.988281 434.734375 146.5 437.921875 147.882812 C 441.121094 149.253906 442.597656 152.957031 441.226562 156.140625 L 422.347656 200.191406 C 421.320312 202.578125 418.992188 204.003906 416.558594 204.003906 Z M 416.558594 204.003906 " fill-opacity="1" fill-rule="nonzero"/><path fill="#e64c3c" d="M 460.609375 204.003906 L 416.558594 204.003906 C 413.085938 204.003906 410.265625 201.191406 410.265625 197.710938 C 410.265625 194.230469 413.085938 191.417969 416.558594 191.417969 L 460.609375 191.417969 C 464.085938 191.417969 466.902344 194.230469 466.902344 197.710938 C 466.902344 201.191406 464.085938 204.003906 460.609375 204.003906 Z M 460.609375 204.003906 " fill-opacity="1" fill-rule="nonzero"/><path fill="#e64c3c" d="M 441.730469 229.179688 C 438.257812 229.179688 435.4375 226.363281 435.4375 222.886719 L 435.4375 185.125 C 435.4375 181.644531 438.257812 178.832031 441.730469 178.832031 C 445.203125 178.832031 448.023438 181.644531 448.023438 185.125 L 448.023438 222.886719 C 448.023438 226.363281 445.203125 229.179688 441.730469 229.179688 Z M 441.730469 229.179688 " fill-opacity="1" fill-rule="nonzero"/><path fill="#e64c3c" d="M 372.503906 229.179688 C 358.621094 229.179688 347.332031 217.886719 347.332031 204.003906 L 347.332031 172.539062 C 347.332031 158.65625 358.621094 147.367188 372.503906 147.367188 C 386.386719 147.367188 397.679688 158.65625 397.679688 172.539062 L 397.679688 204.003906 C 397.679688 217.886719 386.386719 229.179688 372.503906 229.179688 Z M 372.503906 159.953125 C 365.5625 159.953125 359.917969 165.597656 359.917969 172.539062 L 359.917969 204.003906 C 359.917969 210.945312 365.5625 216.59375 372.503906 216.59375 C 379.445312 216.59375 385.09375 210.945312 385.09375 204.003906 L 385.09375 172.539062 C 385.09375 165.597656 379.445312 159.953125 372.503906 159.953125 Z M 372.503906 159.953125 " fill-opacity="1" fill-rule="nonzero"/></svg>