<svg xmlns="http://www.w3.org/2000/svg" xmlns:xlink="http://www.w3.org/1999/xlink" width="500" zoomAndPan="magnify" viewBox="0 0 375 374.999991" height="500" preserveAspectRatio="xMidYMid meet" version="1.0"><defs><clipPath id="d2d889edae"><path d="M 71.050781 76.875 L 293 76.875 L 293 298 L 71.050781 298 Z M 71.050781 76.875 " clip-rule="nonzero"/></clipPath></defs><g clip-path="url(#d2d889edae)"><path fill="#006934" d="M 181.667969 297.945312 C 120.675781 297.945312 71.050781 248.398438 71.050781 187.476562 C 71.050781 126.554688 120.675781 76.980469 181.667969 76.980469 C 201.65625 76.980469 221.199219 82.3125 238.199219 92.4375 C 241.777344 94.5625 242.953125 99.1875 240.820312 102.734375 C 238.667969 106.328125 234.015625 107.402344 230.511719 105.351562 C 215.835938 96.617188 198.960938 91.996094 181.667969 91.996094 C 128.980469 91.996094 86.089844 134.820312 86.089844 187.476562 C 86.089844 240.082031 128.980469 282.878906 181.667969 282.878906 C 234.378906 282.878906 277.246094 240.082031 277.246094 187.476562 C 277.246094 183.316406 280.625 179.96875 284.789062 179.96875 C 288.953125 179.96875 292.335938 183.316406 292.335938 187.476562 C 292.335938 248.398438 242.683594 297.945312 181.667969 297.945312 Z M 181.667969 297.945312 " fill-opacity="1" fill-rule="nonzero"/></g><path fill="#00bb38" d="M 172.726562 249.128906 C 172.386719 249.128906 172.042969 249.128906 171.699219 249.082031 C 166.308594 248.785156 161.386719 246 158.324219 241.550781 L 121.460938 187.964844 C 115.996094 180.015625 118.03125 169.15625 125.96875 163.703125 C 134 158.222656 144.777344 160.277344 150.265625 168.203125 L 174.394531 203.320312 L 271.664062 92.460938 C 278.03125 85.195312 289.054688 84.511719 296.304688 90.847656 C 303.554688 97.179688 304.289062 108.210938 297.921875 115.449219 L 185.859375 243.164062 C 182.550781 246.976562 177.746094 249.128906 172.726562 249.128906 Z M 172.726562 249.128906 " fill-opacity="1" fill-rule="nonzero"/></svg>