<svg xmlns="http://www.w3.org/2000/svg" xmlns:xlink="http://www.w3.org/1999/xlink" width="500" zoomAndPan="magnify" viewBox="0 0 375 374.999991" height="500" preserveAspectRatio="xMidYMid meet" version="1.0"><defs><clipPath id="3144d7dd11"><path d="M 168 52.5 L 342.441406 52.5 L 342.441406 227 L 168 227 Z M 168 52.5 " clip-rule="nonzero"/></clipPath><clipPath id="177501a6ff"><path d="M 124 153.09375 L 313.511719 153.09375 L 313.511719 322.5 L 124 322.5 Z M 124 153.09375 " clip-rule="nonzero"/></clipPath><clipPath id="2eb5676524"><path d="M 32.691406 75 L 184 75 L 184 227 L 32.691406 227 Z M 32.691406 75 " clip-rule="nonzero"/></clipPath></defs><g clip-path="url(#3144d7dd11)"><path fill="#000000" d="M 187.527344 52.5 L 342.296875 207.269531 L 322.859375 226.707031 L 187.523438 91.367188 L 168.085938 71.933594 L 187.527344 52.5 " fill-opacity="1" fill-rule="nonzero"/></g><g clip-path="url(#177501a6ff)"><path fill="#ff3131" d="M 166.972656 216.191406 L 230.066406 153.097656 L 313.269531 236.300781 L 293.832031 255.734375 L 230.066406 191.96875 L 209.65625 212.378906 L 178.8125 243.226562 L 162.941406 259.097656 L 187.5 283.644531 L 212.042969 259.101562 L 190.703125 237.757812 L 210.136719 218.324219 L 250.914062 259.101562 L 187.5 322.507812 L 124.066406 259.101562 L 160.398438 222.765625 L 166.972656 216.191406 " fill-opacity="1" fill-rule="nonzero"/></g><path fill="#ff3131" d="M 144.914062 153.101562 L 184.277344 192.460938 L 164.839844 211.898438 L 144.914062 191.96875 L 81.144531 255.738281 L 61.710938 236.304688 L 144.914062 153.101562 " fill-opacity="1" fill-rule="nonzero"/><g clip-path="url(#2eb5676524)"><path fill="#000000" d="M 164.460938 75.558594 L 183.894531 94.992188 L 52.117188 226.714844 L 32.6875 207.273438 L 164.460938 75.558594 " fill-opacity="1" fill-rule="nonzero"/></g></svg>